[
{ "time": 1.50521, "duration": 0.501042, "pitch": 68, "velocity": 77 },
{ "time": 2.00625, "duration": 1, "pitch": 69, "velocity": 69 },
{ "time": 3.00625, "duration": 0.498958, "pitch": 68, "velocity": 77 },
{ "time": 3.50521, "duration": 0.5, "pitch": 66, "velocity": 69 },
{ "time": 4.00521, "duration": 0.5, "pitch": 64, "velocity": 69 },
{ "time": 4.50521, "duration": 0.75, "pitch": 71, "velocity": 77 },
{ "time": 5.25521, "duration": 0.125, "pitch": 69, "velocity": 65 },
{ "time": 5.38021, "duration": 0.126042, "pitch": 71, "velocity": 61 },
{ "time": 5.50625, "duration": 0.125, "pitch": 73, "velocity": 69 },
{ "time": 5.63125, "duration": 1.625, "pitch": 71, "velocity": 61 },
{ "time": 7.25625, "duration": 0.748958, "pitch": 71, "velocity": 65 },
{ "time": 8.00521, "duration": 0.5, "pitch": 73, "velocity": 69 },
{ "time": 8.50521, "duration": 0.5, "pitch": 71, "velocity": 69 },
{ "time": 9.00521, "duration": 1.12604, "pitch": 68, "velocity": 77 },
{ "time": 10.1312, "duration": 0.125, "pitch": 66, "velocity": 61 },
{ "time": 10.2562, "duration": 0.125, "pitch": 64, "velocity": 65 },
{ "time": 10.3812, "duration": 0.125, "pitch": 66, "velocity": 61 },
{ "time": 10.5062, "duration": 0.125, "pitch": 68, "velocity": 77 },
{ "time": 10.6312, "duration": 0.998958, "pitch": 66, "velocity": 61 },
{ "time": 11.5052, "duration": 0.25, "pitch": 66, "velocity": 63 },
{ "time": 11.7552, "duration": 0.501042, "pitch": 66, "velocity": 65 },
{ "time": 12.2562, "duration": 0.248958, "pitch": 68, "velocity": 65 },
{ "time": 12.5052, "duration": 0.25, "pitch": 71, "velocity": 71 },
{ "time": 12.7552, "duration": 0.25, "pitch": 68, "velocity": 69 },
{ "time": 13.0052, "duration": 0.25, "pitch": 66, "velocity": 73 },
{ "time": 13.2552, "duration": 0.251042, "pitch": 63, "velocity": 71 },
{ "time": 13.5062, "duration": 0.75, "pitch": 63, "velocity": 85 },
{ "time": 14.2562, "duration": 0.25, "pitch": 64, "velocity": 77 },
{ "time": 14.5062, "duration": 0.25, "pitch": 59, "velocity": 81 },
{ "time": 14.7562, "duration": 0.25, "pitch": 63, "velocity": 79 },
{ "time": 15.0062, "duration": 0.748958, "pitch": 61, "velocity": 77 },
{ "time": 15.6302, "duration": 0.125, "pitch": 64, "velocity": 77 },
{ "time": 15.7552, "duration": 0.125, "pitch": 66, "velocity": 81 },
{ "time": 15.8802, "duration": 0.126042, "pitch": 69, "velocity": 77 },
{ "time": 16.0063, "duration": 1, "pitch": 73, "velocity": 85 },
{ "time": 17.0063, "duration": 0.498958, "pitch": 69, "velocity": 62 },
{ "time": 17.5052, "duration": 0.5, "pitch": 68, "velocity": 62 },
{ "time": 18.0052, "duration": 1.25, "pitch": 66, "velocity": 67 },
{ "time": 19.1302, "duration": 0.125, "pitch": 68, "velocity": 58 },
{ "time": 19.2552, "duration": 0.125, "pitch": 66, "velocity": 60 },
{ "time": 19.3802, "duration": 0.125, "pitch": 68, "velocity": 58 },
{ "time": 19.5052, "duration": 0.5, "pitch": 69, "velocity": 67 },
{ "time": 20.0052, "duration": 0.5, "pitch": 68, "velocity": 62 },
{ "time": 20.5052, "duration": 0.498958, "pitch": 64, "velocity": 62 },
{ "time": 21.0042, "duration": 0.125, "pitch": 63, "velocity": 67 },
{ "time": 21.1292, "duration": 0.125, "pitch": 64, "velocity": 58 },
{ "time": 21.2542, "duration": 0.751042, "pitch": 66, "velocity": 60 },
{ "time": 22.0052, "duration": 0.375, "pitch": 66, "velocity": 62 },
{ "time": 22.3802, "duration": 0.126042, "pitch": 64, "velocity": 58 },
{ "time": 22.5063, "duration": 0.5, "pitch": 63, "velocity": 67 },
{ "time": 23.0063, "duration": 0.748958, "pitch": 59, "velocity": 63 },
{ "time": 23.6302, "duration": 0.125, "pitch": 61, "velocity": 62 },
{ "time": 23.7552, "duration": 0.125, "pitch": 63, "velocity": 65 },
{ "time": 23.8802, "duration": 0.125, "pitch": 66, "velocity": 63 },
{ "time": 24.0052, "duration": 0.25, "pitch": 66, "velocity": 73 },
{ "time": 24.2552, "duration": 0.251042, "pitch": 64, "velocity": 67 },
{ "time": 24.5063, "duration": 0.375, "pitch": 71, "velocity": 69 },
{ "time": 24.8813, "duration": 0.123958, "pitch": 69, "velocity": 67 },
{ "time": 25.0052, "duration": 0.25, "pitch": 73, "velocity": 72 },
{ "time": 25.2552, "duration": 0.125, "pitch": 71, "velocity": 70 },
{ "time": 25.3802, "duration": 0.126042, "pitch": 69, "velocity": 69 },
{ "time": 25.5063, "duration": 1.49896, "pitch": 68, "velocity": 67 },
{ "time": 27.0052, "duration": 0.5, "pitch": 68, "velocity": 44 },
{ "time": 27.5052, "duration": 0.5, "pitch": 76, "velocity": 41 },
{ "time": 28.0052, "duration": 0.5, "pitch": 68, "velocity": 41 },
{ "time": 28.5052, "duration": 0.375, "pitch": 68, "velocity": 44 },
{ "time": 28.8802, "duration": 0.125, "pitch": 66, "velocity": 39 },
{ "time": 29.0052, "duration": 0.125, "pitch": 64, "velocity": 41 },
{ "time": 29.1302, "duration": 1.125, "pitch": 66, "velocity": 39 },
{ "time": 30.2552, "duration": 0.25, "pitch": 75, "velocity": 40 },
{ "time": 30.5052, "duration": 0.25, "pitch": 73, "velocity": 41 },
{ "time": 30.7552, "duration": 0.25, "pitch": 72, "velocity": 40 },
{ "time": 31.0052, "duration": 0.25, "pitch": 75, "velocity": 41 },
{ "time": 31.2552, "duration": 0.251042, "pitch": 68, "velocity": 40 },
{ "time": 31.5063, "duration": 0.375, "pitch": 66, "velocity": 44 },
{ "time": 31.8813, "duration": 0.125, "pitch": 64, "velocity": 39 },
{ "time": 32.0063, "duration": 0.125, "pitch": 63, "velocity": 41 },
{ "time": 32.1313, "duration": 0.125, "pitch": 64, "velocity": 39 },
{ "time": 32.2563, "duration": 0.125, "pitch": 66, "velocity": 40 },
{ "time": 32.3813, "duration": 0.625, "pitch": 64, "velocity": 39 },
{ "time": 33.0063, "duration": 0.5, "pitch": 64, "velocity": 60 },
{ "time": 33.5063, "duration": 0.498958, "pitch": 59, "velocity": 68 },
{ "time": 34.0052, "duration": 0.5, "pitch": 57, "velocity": 81 },
{ "time": 34.5052, "duration": 0.375, "pitch": 56, "velocity": 85 },
{ "time": 34.8802, "duration": 0.126042, "pitch": 57, "velocity": 87 },
{ "time": 35.0063, "duration": 0.125, "pitch": 56, "velocity": 93 },
{ "time": 35.1313, "duration": 0.125, "pitch": 57, "velocity": 87 },
{ "time": 35.2563, "duration": 1, "pitch": 59, "velocity": 90 },
{ "time": 36.2563, "duration": 0.248958, "pitch": 61, "velocity": 90 },
{ "time": 36.5052, "duration": 0.25, "pitch": 64, "velocity": 93 },
{ "time": 36.7552, "duration": 0.25, "pitch": 62, "velocity": 90 },
{ "time": 37.0052, "duration": 0.25, "pitch": 61, "velocity": 93 },
{ "time": 37.2552, "duration": 0.25, "pitch": 59, "velocity": 90 },
{ "time": 37.5052, "duration": 0.501042, "pitch": 59, "velocity": 85 },
{ "time": 38.0063, "duration": 1, "pitch": 61, "velocity": 93 },
{ "time": 39.0063, "duration": 0.5, "pitch": 66, "velocity": 93 },
{ "time": 39.5063, "duration": 0.5, "pitch": 61, "velocity": 93 },
{ "time": 40.0063, "duration": 0.5, "pitch": 64, "velocity": 93 },
{ "time": 40.5063, "duration": 0.375, "pitch": 63, "velocity": 97 },
{ "time": 40.8813, "duration": 0.125, "pitch": 64, "velocity": 87 },
{ "time": 41.0063, "duration": 0.25, "pitch": 66, "velocity": 93 },
{ "time": 41.2563, "duration": 0.75, "pitch": 68, "velocity": 90 },
{ "time": 42.0063, "duration": 0.5, "pitch": 68, "velocity": 100 },
{ "time": 42.5063, "duration": 0.498958, "pitch": 73, "velocity": 93 },
{ "time": 43.0052, "duration": 0.5, "pitch": 75, "velocity": 93 },
{ "time": 43.5052, "duration": 0.375, "pitch": 78, "velocity": 101 },
{ "time": 43.8802, "duration": 0.125, "pitch": 76, "velocity": 101 },
{ "time": 44.0052, "duration": 0.125, "pitch": 75, "velocity": 109 },
{ "time": 44.1302, "duration": 0.125, "pitch": 73, "velocity": 101 },
{ "time": 44.2552, "duration": 0.375, "pitch": 78, "velocity": 105 },
{ "time": 44.6302, "duration": 0.125, "pitch": 76, "velocity": 101 },
{ "time": 44.7552, "duration": 0.25, "pitch": 73, "velocity": 105 },
{ "time": 45.0052, "duration": 0.5, "pitch": 73, "velocity": 95 },
{ "time": 45.5052, "duration": 0.5, "pitch": 71, "velocity": 93 },
{ "time": 46.0052, "duration": 0.5, "pitch": 73, "velocity": 78 },
{ "time": 46.5052, "duration": 0.751042, "pitch": 64, "velocity": 67 },
{ "time": 47.2563, "duration": 0.247917, "pitch": 66, "velocity": 60 },
{ "time": 47.5042, "duration": 1.25, "pitch": 68, "velocity": 62 },
{ "time": 48.7542, "duration": 0.251042, "pitch": 69, "velocity": 60 },
{ "time": 49.0052, "duration": 0.25, "pitch": 66, "velocity": 62 },
{ "time": 49.2552, "duration": 0.25, "pitch": 64, "velocity": 60 },
{ "time": 49.5052, "duration": 0.03125, "pitch": 66, "velocity": 67 },
{ "time": 49.5365, "duration": 0.03125, "pitch": 68, "velocity": 67 },
{ "time": 49.5677, "duration": 0.03125, "pitch": 66, "velocity": 67 },
{ "time": 49.599, "duration": 0.03125, "pitch": 68, "velocity": 67 },
{ "time": 49.6302, "duration": 0.03125, "pitch": 66, "velocity": 67 },
{ "time": 49.6615, "duration": 0.03125, "pitch": 68, "velocity": 67 },
{ "time": 49.6927, "duration": 0.03125, "pitch": 66, "velocity": 67 },
{ "time": 49.724, "duration": 0.03125, "pitch": 68, "velocity": 69 },
{ "time": 49.7552, "duration": 0.03125, "pitch": 66, "velocity": 69 },
{ "time": 49.7865, "duration": 0.03125, "pitch": 68, "velocity": 69 },
{ "time": 49.8177, "duration": 0.03125, "pitch": 66, "velocity": 69 },
{ "time": 49.849, "duration": 0.03125, "pitch": 68, "velocity": 73 },
{ "time": 49.8802, "duration": 0.03125, "pitch": 66, "velocity": 73 },
{ "time": 49.9115, "duration": 0.03125, "pitch": 68, "velocity": 77 },
{ "time": 49.9427, "duration": 0.03125, "pitch": 66, "velocity": 77 },
{ "time": 49.974, "duration": 0.03125, "pitch": 68, "velocity": 79 },
{ "time": 50.0052, "duration": 0.03125, "pitch": 66, "velocity": 79 },
{ "time": 50.0365, "duration": 0.03125, "pitch": 68, "velocity": 87 },
{ "time": 50.0677, "duration": 0.03125, "pitch": 66, "velocity": 87 },
{ "time": 50.099, "duration": 0.03125, "pitch": 68, "velocity": 87 },
{ "time": 50.1302, "duration": 0.03125, "pitch": 66, "velocity": 87 },
{ "time": 50.1615, "duration": 0.03125, "pitch": 68, "velocity": 87 },
{ "time": 50.1927, "duration": 0.03125, "pitch": 66, "velocity": 87 },
{ "time": 50.224, "duration": 0.03125, "pitch": 68, "velocity": 87 },
{ "time": 50.2552, "duration": 0.03125, "pitch": 66, "velocity": 87 },
{ "time": 50.2865, "duration": 0.03125, "pitch": 68, "velocity": 87 },
{ "time": 50.3177, "duration": 0.03125, "pitch": 66, "velocity": 87 },
{ "time": 50.349, "duration": 0.03125, "pitch": 68, "velocity": 87 },
{ "time": 50.3802, "duration": 0.03125, "pitch": 66, "velocity": 87 },
{ "time": 50.4115, "duration": 0.03125, "pitch": 68, "velocity": 87 },
{ "time": 50.4427, "duration": 0.03125, "pitch": 66, "velocity": 87 },
{ "time": 50.474, "duration": 0.0322917, "pitch": 68, "velocity": 87 },
{ "time": 50.5063, "duration": 0.03125, "pitch": 66, "velocity": 87 },
{ "time": 50.5375, "duration": 0.03125, "pitch": 68, "velocity": 87 },
{ "time": 50.5688, "duration": 0.03125, "pitch": 66, "velocity": 87 },
{ "time": 50.6, "duration": 0.03125, "pitch": 68, "velocity": 87 },
{ "time": 50.6313, "duration": 0.03125, "pitch": 66, "velocity": 87 },
{ "time": 50.6625, "duration": 0.03125, "pitch": 68, "velocity": 87 },
{ "time": 50.6938, "duration": 0.03125, "pitch": 66, "velocity": 87 },
{ "time": 50.725, "duration": 0.03125, "pitch": 68, "velocity": 87 },
{ "time": 50.7563, "duration": 0.03125, "pitch": 66, "velocity": 87 },
{ "time": 50.7875, "duration": 0.03125, "pitch": 68, "velocity": 87 },
{ "time": 50.8188, "duration": 0.03125, "pitch": 66, "velocity": 87 },
{ "time": 50.85, "duration": 0.03125, "pitch": 68, "velocity": 87 },
{ "time": 50.8813, "duration": 0.03125, "pitch": 66, "velocity": 87 },
{ "time": 50.9125, "duration": 0.03125, "pitch": 68, "velocity": 87 },
{ "time": 50.9438, "duration": 0.03125, "pitch": 66, "velocity": 87 },
{ "time": 50.975, "duration": 0.03125, "pitch": 68, "velocity": 87 },
{ "time": 51.0063, "duration": 0.03125, "pitch": 66, "velocity": 87 },
{ "time": 51.0375, "duration": 0.03125, "pitch": 68, "velocity": 87 },
{ "time": 51.0688, "duration": 0.03125, "pitch": 66, "velocity": 87 },
{ "time": 51.1, "duration": 0.03125, "pitch": 68, "velocity": 87 },
{ "time": 51.1313, "duration": 0.03125, "pitch": 66, "velocity": 87 },
{ "time": 51.1625, "duration": 0.03125, "pitch": 68, "velocity": 87 },
{ "time": 51.1938, "duration": 0.03125, "pitch": 66, "velocity": 87 },
{ "time": 51.225, "duration": 0.03125, "pitch": 68, "velocity": 87 },
{ "time": 51.2563, "duration": 0.03125, "pitch": 66, "velocity": 87 },
{ "time": 51.2875, "duration": 0.03125, "pitch": 68, "velocity": 87 },
{ "time": 51.3188, "duration": 0.03125, "pitch": 66, "velocity": 87 },
{ "time": 51.35, "duration": 0.03125, "pitch": 68, "velocity": 87 },
{ "time": 51.3813, "duration": 0.03125, "pitch": 66, "velocity": 87 },
{ "time": 51.4125, "duration": 0.03125, "pitch": 68, "velocity": 87 },
{ "time": 51.4438, "duration": 0.03125, "pitch": 66, "velocity": 87 },
{ "time": 51.475, "duration": 0.0291667, "pitch": 68, "velocity": 87 },
{ "time": 51.5042, "duration": 0.03125, "pitch": 66, "velocity": 87 },
{ "time": 51.5354, "duration": 0.03125, "pitch": 68, "velocity": 87 },
{ "time": 51.5667, "duration": 0.03125, "pitch": 66, "velocity": 87 },
{ "time": 51.5979, "duration": 0.03125, "pitch": 68, "velocity": 87 },
{ "time": 51.6292, "duration": 0.03125, "pitch": 66, "velocity": 87 },
{ "time": 51.6604, "duration": 0.03125, "pitch": 68, "velocity": 87 },
{ "time": 51.6917, "duration": 0.03125, "pitch": 66, "velocity": 87 },
{ "time": 51.7229, "duration": 0.03125, "pitch": 68, "velocity": 87 },
{ "time": 51.7542, "duration": 0.03125, "pitch": 66, "velocity": 87 },
{ "time": 51.7854, "duration": 0.03125, "pitch": 68, "velocity": 87 },
{ "time": 51.8167, "duration": 0.03125, "pitch": 66, "velocity": 87 },
{ "time": 51.8479, "duration": 0.03125, "pitch": 68, "velocity": 87 },
{ "time": 51.8792, "duration": 0.03125, "pitch": 66, "velocity": 87 },
{ "time": 51.9104, "duration": 0.03125, "pitch": 68, "velocity": 87 },
{ "time": 51.9417, "duration": 0.03125, "pitch": 66, "velocity": 87 },
{ "time": 51.9729, "duration": 0.03125, "pitch": 68, "velocity": 87 },
{ "time": 52.0042, "duration": 0.03125, "pitch": 66, "velocity": 87 },
{ "time": 52.0354, "duration": 0.03125, "pitch": 68, "velocity": 87 },
{ "time": 52.0667, "duration": 0.03125, "pitch": 66, "velocity": 87 },
{ "time": 52.0979, "duration": 0.03125, "pitch": 68, "velocity": 87 },
{ "time": 52.1292, "duration": 0.03125, "pitch": 66, "velocity": 87 },
{ "time": 52.1604, "duration": 0.03125, "pitch": 68, "velocity": 87 },
{ "time": 52.1917, "duration": 0.03125, "pitch": 66, "velocity": 87 },
{ "time": 52.2229, "duration": 0.03125, "pitch": 68, "velocity": 87 },
{ "time": 52.2542, "duration": 0.125, "pitch": 66, "velocity": 87 },
{ "time": 52.3792, "duration": 0.0625, "pitch": 64, "velocity": 97 },
{ "time": 52.4417, "duration": 0.0635417, "pitch": 66, "velocity": 99 },
{ "time": 52.5052, "duration": 0.501042, "pitch": 68, "velocity": 67 },
{ "time": 67.1312, "duration": 0.125, "pitch": 78, "velocity": 58 },
{ "time": 67.2562, "duration": 0.125, "pitch": 75, "velocity": 60 },
{ "time": 67.3812, "duration": 0.125, "pitch": 78, "velocity": 58 },
{ "time": 67.5062, "duration": 0.748958, "pitch": 71, "velocity": 67 },
{ "time": 68.2552, "duration": 0.251042, "pitch": 69, "velocity": 60 },
{ "time": 68.6312, "duration": 0.125, "pitch": 78, "velocity": 58 },
{ "time": 68.7562, "duration": 0.125, "pitch": 75, "velocity": 60 },
{ "time": 68.8812, "duration": 0.125, "pitch": 78, "velocity": 58 },
{ "time": 69.0062, "duration": 0.25, "pitch": 71, "velocity": 67 },
{ "time": 69.2562, "duration": 0.248958, "pitch": 69, "velocity": 60 },
{ "time": 69.5052, "duration": 0.25, "pitch": 68, "velocity": 62 },
{ "time": 69.7552, "duration": 0.25, "pitch": 66, "velocity": 60 },
{ "time": 70.0052, "duration": 0.125, "pitch": 71, "velocity": 62 },
{ "time": 70.1302, "duration": 0.125, "pitch": 69, "velocity": 58 },
{ "time": 70.2552, "duration": 0.125, "pitch": 68, "velocity": 60 },
{ "time": 70.3802, "duration": 0.125, "pitch": 66, "velocity": 58 },
{ "time": 70.5052, "duration": 0.751042, "pitch": 75, "velocity": 67 },
{ "time": 71.2562, "duration": 0.248958, "pitch": 73, "velocity": 60 },
{ "time": 71.5052, "duration": 0.25, "pitch": 71, "velocity": 62 },
{ "time": 71.7552, "duration": 0.25, "pitch": 68, "velocity": 60 },
{ "time": 72.0052, "duration": 0.25, "pitch": 66, "velocity": 67 },
{ "time": 72.2552, "duration": 0.5, "pitch": 68, "velocity": 60 },
{ "time": 73.1312, "duration": 0.125, "pitch": 76, "velocity": 58 },
{ "time": 73.2562, "duration": 0.125, "pitch": 73, "velocity": 60 },
{ "time": 73.3812, "duration": 0.125, "pitch": 76, "velocity": 58 },
{ "time": 73.5062, "duration": 0.748958, "pitch": 69, "velocity": 67 },
{ "time": 74.2552, "duration": 0.251042, "pitch": 67, "velocity": 60 },
{ "time": 74.6312, "duration": 0.125, "pitch": 76, "velocity": 58 },
{ "time": 74.7562, "duration": 0.125, "pitch": 73, "velocity": 60 },
{ "time": 74.8812, "duration": 0.125, "pitch": 76, "velocity": 58 },
{ "time": 75.0062, "duration": 0.25, "pitch": 69, "velocity": 67 },
{ "time": 75.2562, "duration": 0.248958, "pitch": 67, "velocity": 60 },
{ "time": 75.5052, "duration": 0.25, "pitch": 66, "velocity": 62 },
{ "time": 75.7552, "duration": 0.251042, "pitch": 64, "velocity": 60 },
{ "time": 76.0062, "duration": 0.125, "pitch": 69, "velocity": 62 },
{ "time": 76.1312, "duration": 0.125, "pitch": 67, "velocity": 58 },
{ "time": 76.2562, "duration": 0.125, "pitch": 66, "velocity": 60 },
{ "time": 76.3812, "duration": 0.125, "pitch": 64, "velocity": 58 },
{ "time": 76.5062, "duration": 0.75, "pitch": 73, "velocity": 67 },
{ "time": 77.1312, "duration": 0.125, "pitch": 74, "velocity": 58 },
{ "time": 77.2562, "duration": 0.125, "pitch": 73, "velocity": 60 },
{ "time": 77.3812, "duration": 0.123958, "pitch": 69, "velocity": 58 },
{ "time": 77.5052, "duration": 0.125, "pitch": 73, "velocity": 62 },
{ "time": 77.6302, "duration": 0.125, "pitch": 71, "velocity": 58 },
{ "time": 77.7552, "duration": 0.125, "pitch": 69, "velocity": 60 },
{ "time": 77.8802, "duration": 0.126042, "pitch": 66, "velocity": 58 },
{ "time": 78.0062, "duration": 0.25, "pitch": 64, "velocity": 67 },
{ "time": 78.2562, "duration": 0.75, "pitch": 66, "velocity": 60 },
{ "time": 79.0062, "duration": 0.375, "pitch": 66, "velocity": 78 },
{ "time": 79.3812, "duration": 0.125, "pitch": 67, "velocity": 83 },
{ "time": 79.5062, "duration": 0.5, "pitch": 69, "velocity": 100 },
{ "time": 80.0062, "duration": 0.25, "pitch": 71, "velocity": 93 },
{ "time": 80.2562, "duration": 0.25, "pitch": 74, "velocity": 90 },
{ "time": 80.5062, "duration": 0.25, "pitch": 71, "velocity": 93 },
{ "time": 80.7562, "duration": 0.248958, "pitch": 69, "velocity": 90 },
{ "time": 81.0052, "duration": 0.25, "pitch": 66, "velocity": 100 },
{ "time": 81.2552, "duration": 0.376042, "pitch": 62, "velocity": 90 },
{ "time": 81.6312, "duration": 0.125, "pitch": 64, "velocity": 87 },
{ "time": 81.7562, "duration": 0.873958, "pitch": 66, "velocity": 90 },
{ "time": 82.6302, "duration": 0.125, "pitch": 67, "velocity": 87 },
{ "time": 82.7552, "duration": 0.251042, "pitch": 64, "velocity": 90 },
{ "time": 83.0062, "duration": 0.498958, "pitch": 62, "velocity": 93 },
{ "time": 83.5052, "duration": 0.25, "pitch": 59, "velocity": 93 },
{ "time": 83.7552, "duration": 0.251042, "pitch": 61, "velocity": 90 },
{ "time": 84.0062, "duration": 0.498958, "pitch": 61, "velocity": 107 },
{ "time": 84.5052, "duration": 1, "pitch": 62, "velocity": 93 },
{ "time": 85.5885, "duration": 0.0833333, "pitch": 92, "velocity": 87 },
{ "time": 85.6719, "duration": 0.0833333, "pitch": 89, "velocity": 87 },
{ "time": 85.7552, "duration": 0.0833333, "pitch": 92, "velocity": 90 },
{ "time": 85.8385, "duration": 0.0833333, "pitch": 85, "velocity": 87 },
{ "time": 85.9219, "duration": 0.084375, "pitch": 89, "velocity": 87 },
{ "time": 86.0062, "duration": 0.0833333, "pitch": 83, "velocity": 93 },
{ "time": 86.0896, "duration": 0.0833333, "pitch": 85, "velocity": 87 },
{ "time": 86.1729, "duration": 0.0833333, "pitch": 82, "velocity": 87 },
{ "time": 86.2562, "duration": 0.0833333, "pitch": 85, "velocity": 90 },
{ "time": 86.3396, "duration": 0.0833333, "pitch": 80, "velocity": 87 },
{ "time": 86.4229, "duration": 0.084375, "pitch": 85, "velocity": 87 },
{ "time": 86.5073, "duration": 0.0833333, "pitch": 78, "velocity": 93 },
{ "time": 86.5906, "duration": 0.0833333, "pitch": 80, "velocity": 87 },
{ "time": 86.674, "duration": 0.0833333, "pitch": 77, "velocity": 87 },
{ "time": 86.7573, "duration": 0.0833333, "pitch": 80, "velocity": 90 },
{ "time": 86.8406, "duration": 0.0833333, "pitch": 73, "velocity": 87 },
{ "time": 86.924, "duration": 0.0822917, "pitch": 77, "velocity": 87 },
{ "time": 87.0062, "duration": 0.0833333, "pitch": 71, "velocity": 100 },
{ "time": 87.0896, "duration": 0.0833333, "pitch": 70, "velocity": 87 },
{ "time": 87.1729, "duration": 0.0833333, "pitch": 80, "velocity": 87 },
{ "time": 87.2562, "duration": 0.0833333, "pitch": 78, "velocity": 90 },
{ "time": 87.3396, "duration": 0.0833333, "pitch": 77, "velocity": 87 },
{ "time": 87.4229, "duration": 0.0833333, "pitch": 85, "velocity": 87 },
{ "time": 87.5062, "duration": 0.0833333, "pitch": 82, "velocity": 93 },
{ "time": 87.5896, "duration": 0.0833333, "pitch": 80, "velocity": 87 },
{ "time": 87.6729, "duration": 0.0833333, "pitch": 89, "velocity": 87 },
{ "time": 87.7562, "duration": 0.0833333, "pitch": 87, "velocity": 90 },
{ "time": 87.8396, "duration": 0.0833333, "pitch": 85, "velocity": 87 },
{ "time": 87.9229, "duration": 0.0833333, "pitch": 82, "velocity": 87 },
{ "time": 88.0062, "duration": 0.0833333, "pitch": 80, "velocity": 93 },
{ "time": 88.0896, "duration": 0.0833333, "pitch": 90, "velocity": 87 },
{ "time": 88.1729, "duration": 0.0833333, "pitch": 89, "velocity": 87 },
{ "time": 88.2562, "duration": 0.0833333, "pitch": 87, "velocity": 90 },
{ "time": 88.3396, "duration": 0.0833333, "pitch": 89, "velocity": 87 },
{ "time": 88.4229, "duration": 0.0833333, "pitch": 85, "velocity": 87 },
{ "time": 88.5062, "duration": 0.0833333, "pitch": 82, "velocity": 100 },
{ "time": 88.5896, "duration": 0.0833333, "pitch": 93, "velocity": 87 },
{ "time": 88.6729, "duration": 0.0833333, "pitch": 90, "velocity": 87 },
{ "time": 88.7562, "duration": 0.0833333, "pitch": 93, "velocity": 90 },
{ "time": 88.8396, "duration": 0.0833333, "pitch": 86, "velocity": 87 },
{ "time": 88.9229, "duration": 0.0833333, "pitch": 90, "velocity": 87 },
{ "time": 89.0062, "duration": 0.0833333, "pitch": 84, "velocity": 93 },
{ "time": 89.0896, "duration": 0.0833333, "pitch": 86, "velocity": 87 },
{ "time": 89.1729, "duration": 0.0833333, "pitch": 83, "velocity": 87 },
{ "time": 89.2562, "duration": 0.0833333, "pitch": 86, "velocity": 90 },
{ "time": 89.3396, "duration": 0.0833333, "pitch": 81, "velocity": 87 },
{ "time": 89.4229, "duration": 0.0833333, "pitch": 86, "velocity": 87 },
{ "time": 89.5062, "duration": 0.0833333, "pitch": 79, "velocity": 93 },
{ "time": 89.5896, "duration": 0.0833333, "pitch": 81, "velocity": 87 },
{ "time": 89.6729, "duration": 0.0833333, "pitch": 78, "velocity": 87 },
{ "time": 89.7562, "duration": 0.0833333, "pitch": 81, "velocity": 90 },
{ "time": 89.8396, "duration": 0.0833333, "pitch": 74, "velocity": 87 },
{ "time": 89.9229, "duration": 0.0833333, "pitch": 78, "velocity": 87 },
{ "time": 90.0062, "duration": 0.0833333, "pitch": 72, "velocity": 100 },
{ "time": 90.0896, "duration": 0.0833333, "pitch": 71, "velocity": 87 },
{ "time": 90.1729, "duration": 0.0833333, "pitch": 81, "velocity": 87 },
{ "time": 90.2562, "duration": 0.0833333, "pitch": 79, "velocity": 90 },
{ "time": 90.3396, "duration": 0.0833333, "pitch": 78, "velocity": 87 },
{ "time": 90.4229, "duration": 0.0833333, "pitch": 86, "velocity": 87 },
{ "time": 90.5062, "duration": 0.0833333, "pitch": 83, "velocity": 93 },
{ "time": 90.5896, "duration": 0.0833333, "pitch": 81, "velocity": 87 },
{ "time": 90.6729, "duration": 0.0833333, "pitch": 90, "velocity": 87 },
{ "time": 90.7562, "duration": 0.0833333, "pitch": 88, "velocity": 90 },
{ "time": 90.8396, "duration": 0.0833333, "pitch": 86, "velocity": 87 },
{ "time": 90.9229, "duration": 0.0833333, "pitch": 83, "velocity": 87 },
{ "time": 91.0062, "duration": 0.0833333, "pitch": 81, "velocity": 93 },
{ "time": 91.0896, "duration": 0.0833333, "pitch": 91, "velocity": 87 },
{ "time": 91.1729, "duration": 0.0833333, "pitch": 90, "velocity": 87 },
{ "time": 91.2562, "duration": 0.0833333, "pitch": 88, "velocity": 90 },
{ "time": 91.3396, "duration": 0.0833333, "pitch": 90, "velocity": 87 },
{ "time": 91.4229, "duration": 0.0822917, "pitch": 86, "velocity": 87 },
{ "time": 91.5052, "duration": 0.25, "pitch": 81, "velocity": 100 },
{ "time": 91.7552, "duration": 0.251042, "pitch": 83, "velocity": 90 },
{ "time": 92.5062, "duration": 0.25, "pitch": 65, "velocity": 93 },
{ "time": 92.5062, "duration": 0.25, "pitch": 55, "velocity": 93 },
{ "time": 92.7562, "duration": 0.5, "pitch": 65, "velocity": 90 },
{ "time": 92.7562, "duration": 0.5, "pitch": 55, "velocity": 90 },
{ "time": 93.2562, "duration": 0.25, "pitch": 65, "velocity": 90 },
{ "time": 93.2562, "duration": 0.25, "pitch": 55, "velocity": 90 },
{ "time": 93.5062, "duration": 0.25, "pitch": 65, "velocity": 93 },
{ "time": 93.5062, "duration": 0.25, "pitch": 57, "velocity": 93 },
{ "time": 93.7562, "duration": 0.248958, "pitch": 59, "velocity": 90 },
{ "time": 93.7562, "duration": 0.498958, "pitch": 64, "velocity": 90 },
{ "time": 94.0052, "duration": 0.25, "pitch": 57, "velocity": 93 },
{ "time": 94.2552, "duration": 0.501042, "pitch": 64, "velocity": 90 },
{ "time": 94.2552, "duration": 0.501042, "pitch": 55, "velocity": 90 },
{ "time": 94.7562, "duration": 0.25, "pitch": 60, "velocity": 90 },
{ "time": 94.7562, "duration": 0.25, "pitch": 64, "velocity": 90 },
{ "time": 95.0062, "duration": 0.498958, "pitch": 59, "velocity": 93 },
{ "time": 95.0062, "duration": 0.498958, "pitch": 60, "velocity": 93 },
{ "time": 95.5052, "duration": 0.25, "pitch": 57, "velocity": 93 },
{ "time": 95.5052, "duration": 0.25, "pitch": 60, "velocity": 93 },
{ "time": 95.7552, "duration": 0.248958, "pitch": 57, "velocity": 90 },
{ "time": 95.7552, "duration": 0.248958, "pitch": 60, "velocity": 90 },
{ "time": 96.2542, "duration": 0.251042, "pitch": 50, "velocity": 90 },
{ "time": 96.2542, "duration": 0.251042, "pitch": 59, "velocity": 90 },
{ "time": 96.5052, "duration": 0.5, "pitch": 59, "velocity": 86 },
{ "time": 96.5052, "duration": 0.5, "pitch": 50, "velocity": 86 },
{ "time": 97.0052, "duration": 0.25, "pitch": 59, "velocity": 74 },
{ "time": 97.0052, "duration": 0.25, "pitch": 50, "velocity": 74 },
{ "time": 97.2552, "duration": 0.251042, "pitch": 59, "velocity": 65 },
{ "time": 97.2552, "duration": 0.251042, "pitch": 50, "velocity": 65 },
{ "time": 97.5896, "duration": 0.0833333, "pitch": 68, "velocity": 58 },
{ "time": 97.6729, "duration": 0.0833333, "pitch": 67, "velocity": 58 },
{ "time": 97.7562, "duration": 0.0833333, "pitch": 68, "velocity": 60 },
{ "time": 97.8396, "duration": 0.0833333, "pitch": 65, "velocity": 58 },
{ "time": 97.9229, "duration": 0.0833333, "pitch": 68, "velocity": 58 },
{ "time": 98.0062, "duration": 0.0833333, "pitch": 63, "velocity": 62 },
{ "time": 98.0896, "duration": 0.0833333, "pitch": 68, "velocity": 58 },
{ "time": 98.1729, "duration": 0.0833333, "pitch": 62, "velocity": 58 },
{ "time": 98.2562, "duration": 0.0833333, "pitch": 68, "velocity": 60 },
{ "time": 98.3396, "duration": 0.0833333, "pitch": 60, "velocity": 58 },
{ "time": 98.4229, "duration": 0.084375, "pitch": 68, "velocity": 58 },
{ "time": 98.5073, "duration": 0.0833333, "pitch": 59, "velocity": 62 },
{ "time": 98.5906, "duration": 0.0833333, "pitch": 68, "velocity": 58 },
{ "time": 98.674, "duration": 0.0833333, "pitch": 57, "velocity": 58 },
{ "time": 98.7573, "duration": 0.0833333, "pitch": 68, "velocity": 60 },
{ "time": 98.8406, "duration": 0.0833333, "pitch": 67, "velocity": 58 },
{ "time": 98.924, "duration": 0.0822917, "pitch": 65, "velocity": 58 },
{ "time": 99.0062, "duration": 0.0833333, "pitch": 67, "velocity": 67 },
{ "time": 99.0896, "duration": 0.0833333, "pitch": 72, "velocity": 58 },
{ "time": 99.1729, "duration": 0.0833333, "pitch": 70, "velocity": 58 },
{ "time": 99.2562, "duration": 0.0833333, "pitch": 72, "velocity": 60 },
{ "time": 99.3396, "duration": 0.0833333, "pitch": 68, "velocity": 58 },
{ "time": 99.4229, "duration": 0.0833333, "pitch": 72, "velocity": 58 },
{ "time": 99.5062, "duration": 0.0833333, "pitch": 67, "velocity": 53 },
{ "time": 99.5896, "duration": 0.0833333, "pitch": 72, "velocity": 54 },
{ "time": 99.6729, "duration": 0.0833333, "pitch": 65, "velocity": 55 },
{ "time": 99.7562, "duration": 0.0833333, "pitch": 72, "velocity": 56 },
{ "time": 99.8396, "duration": 0.0833333, "pitch": 64, "velocity": 57 },
{ "time": 99.9229, "duration": 0.0833333, "pitch": 72, "velocity": 58 },
{ "time": 100.006, "duration": 0.0833333, "pitch": 62, "velocity": 59 },
{ "time": 100.09, "duration": 0.0833333, "pitch": 72, "velocity": 60 },
{ "time": 100.173, "duration": 0.0833333, "pitch": 60, "velocity": 61 },
{ "time": 100.256, "duration": 0.0833333, "pitch": 72, "velocity": 62 },
{ "time": 100.34, "duration": 0.0833333, "pitch": 68, "velocity": 64 },
{ "time": 100.423, "duration": 0.0833333, "pitch": 67, "velocity": 65 },
{ "time": 100.506, "duration": 0.0833333, "pitch": 68, "velocity": 66 },
{ "time": 100.59, "duration": 0.0833333, "pitch": 73, "velocity": 67 },
{ "time": 100.673, "duration": 0.0833333, "pitch": 72, "velocity": 68 },
{ "time": 100.756, "duration": 0.0833333, "pitch": 73, "velocity": 69 },
{ "time": 100.84, "duration": 0.0833333, "pitch": 70, "velocity": 70 },
{ "time": 100.923, "duration": 0.0833333, "pitch": 73, "velocity": 71 },
{ "time": 101.006, "duration": 0.0833333, "pitch": 68, "velocity": 72 },
{ "time": 101.09, "duration": 0.0833333, "pitch": 73, "velocity": 74 },
{ "time": 101.173, "duration": 0.0833333, "pitch": 67, "velocity": 75 },
{ "time": 101.256, "duration": 0.0833333, "pitch": 73, "velocity": 76 },
{ "time": 101.34, "duration": 0.0833333, "pitch": 65, "velocity": 77 },
{ "time": 101.423, "duration": 0.084375, "pitch": 73, "velocity": 78 },
{ "time": 101.507, "duration": 0.0833333, "pitch": 63, "velocity": 79 },
{ "time": 101.591, "duration": 0.0833333, "pitch": 75, "velocity": 80 },
{ "time": 101.674, "duration": 0.0833333, "pitch": 74, "velocity": 81 },
{ "time": 101.757, "duration": 0.0833333, "pitch": 75, "velocity": 82 },
{ "time": 101.841, "duration": 0.0833333, "pitch": 73, "velocity": 84 },
{ "time": 101.924, "duration": 0.0822917, "pitch": 75, "velocity": 85 },
{ "time": 102.006, "duration": 0.0833333, "pitch": 72, "velocity": 86 },
{ "time": 102.09, "duration": 0.0833333, "pitch": 75, "velocity": 87 },
{ "time": 102.173, "duration": 0.0833333, "pitch": 70, "velocity": 88 },
{ "time": 102.256, "duration": 0.0833333, "pitch": 75, "velocity": 89 },
{ "time": 102.34, "duration": 0.0833333, "pitch": 68, "velocity": 90 },
{ "time": 102.423, "duration": 0.0833333, "pitch": 75, "velocity": 91 },
{ "time": 102.506, "duration": 0.0833333, "pitch": 67, "velocity": 92 },
{ "time": 102.59, "duration": 0.0833333, "pitch": 76, "velocity": 93 },
{ "time": 102.673, "duration": 0.0833333, "pitch": 75, "velocity": 95 },
{ "time": 102.756, "duration": 0.0833333, "pitch": 76, "velocity": 96 },
{ "time": 102.84, "duration": 0.0833333, "pitch": 71, "velocity": 97 },
{ "time": 102.923, "duration": 0.084375, "pitch": 76, "velocity": 98 },
{ "time": 103.007, "duration": 0.0833333, "pitch": 67, "velocity": 99 },
{ "time": 103.091, "duration": 0.0833333, "pitch": 79, "velocity": 100 },
{ "time": 103.174, "duration": 0.0833333, "pitch": 78, "velocity": 101 },
{ "time": 103.257, "duration": 0.0833333, "pitch": 79, "velocity": 102 },
{ "time": 103.341, "duration": 0.0833333, "pitch": 76, "velocity": 103 },
{ "time": 103.424, "duration": 0.0822917, "pitch": 79, "velocity": 105 },
{ "time": 103.506, "duration": 0.0833333, "pitch": 71, "velocity": 106 },
{ "time": 103.59, "duration": 0.0833333, "pitch": 83, "velocity": 107 },
{ "time": 103.673, "duration": 0.0833333, "pitch": 82, "velocity": 108 },
{ "time": 103.756, "duration": 0.0833333, "pitch": 83, "velocity": 109 },
{ "time": 103.84, "duration": 0.0833333, "pitch": 79, "velocity": 110 },
{ "time": 103.923, "duration": 0.0833333, "pitch": 83, "velocity": 111 },
{ "time": 104.006, "duration": 0.0833333, "pitch": 76, "velocity": 112 },
{ "time": 104.09, "duration": 0.0833333, "pitch": 88, "velocity": 113 },
{ "time": 104.173, "duration": 0.0833333, "pitch": 87, "velocity": 115 },
{ "time": 104.256, "duration": 0.0833333, "pitch": 88, "velocity": 116 },
{ "time": 104.34, "duration": 0.0833333, "pitch": 83, "velocity": 117 },
{ "time": 104.423, "duration": 0.0833333, "pitch": 88, "velocity": 118 },
{ "time": 104.506, "duration": 0.0833333, "pitch": 79, "velocity": 119 },
{ "time": 104.59, "duration": 0.0833333, "pitch": 91, "velocity": 120 },
{ "time": 104.673, "duration": 0.0833333, "pitch": 90, "velocity": 121 },
{ "time": 104.756, "duration": 0.0833333, "pitch": 91, "velocity": 122 },
{ "time": 104.84, "duration": 0.0833333, "pitch": 88, "velocity": 123 },
{ "time": 104.923, "duration": 0.0833333, "pitch": 91, "velocity": 125 },
{ "time": 105.006, "duration": 0.0416667, "pitch": 83, "velocity": 127 },
{ "time": 105.048, "duration": 0.0416667, "pitch": 83, "velocity": 119 },
{ "time": 105.09, "duration": 0.0416667, "pitch": 95, "velocity": 119 },
{ "time": 105.131, "duration": 0.0416667, "pitch": 83, "velocity": 119 },
{ "time": 105.173, "duration": 0.0416667, "pitch": 91, "velocity": 119 },
{ "time": 105.215, "duration": 0.0416667, "pitch": 83, "velocity": 119 },
{ "time": 105.256, "duration": 0.0416667, "pitch": 95, "velocity": 123 },
{ "time": 105.298, "duration": 0.0416667, "pitch": 83, "velocity": 119 },
{ "time": 105.34, "duration": 0.0416667, "pitch": 88, "velocity": 119 },
{ "time": 105.381, "duration": 0.0416667, "pitch": 83, "velocity": 119 },
{ "time": 105.423, "duration": 0.0416667, "pitch": 91, "velocity": 119 },
{ "time": 105.465, "duration": 0.0416667, "pitch": 83, "velocity": 119 },
{ "time": 105.506, "duration": 0.0416667, "pitch": 83, "velocity": 127 },
{ "time": 105.548, "duration": 0.0416667, "pitch": 83, "velocity": 119 },
{ "time": 105.59, "duration": 0.0416667, "pitch": 95, "velocity": 119 },
{ "time": 105.631, "duration": 0.0416667, "pitch": 83, "velocity": 119 },
{ "time": 105.673, "duration": 0.0416667, "pitch": 91, "velocity": 119 },
{ "time": 105.715, "duration": 0.0416667, "pitch": 83, "velocity": 119 },
{ "time": 105.756, "duration": 0.0416667, "pitch": 95, "velocity": 123 },
{ "time": 105.798, "duration": 0.0416667, "pitch": 83, "velocity": 119 },
{ "time": 105.84, "duration": 0.0416667, "pitch": 88, "velocity": 119 },
{ "time": 105.881, "duration": 0.0416667, "pitch": 83, "velocity": 119 },
{ "time": 105.923, "duration": 0.0416667, "pitch": 91, "velocity": 119 },
{ "time": 105.965, "duration": 0.0416667, "pitch": 83, "velocity": 119 },
{ "time": 106.006, "duration": 0.0416667, "pitch": 83, "velocity": 127 },
{ "time": 106.048, "duration": 0.0416667, "pitch": 83, "velocity": 119 },
{ "time": 106.09, "duration": 0.0416667, "pitch": 95, "velocity": 119 },
{ "time": 106.131, "duration": 0.0416667, "pitch": 83, "velocity": 119 },
{ "time": 106.173, "duration": 0.0416667, "pitch": 92, "velocity": 119 },
{ "time": 106.215, "duration": 0.0416667, "pitch": 83, "velocity": 119 },
{ "time": 106.256, "duration": 0.0416667, "pitch": 95, "velocity": 123 },
{ "time": 106.298, "duration": 0.0416667, "pitch": 83, "velocity": 119 },
{ "time": 106.34, "duration": 0.0416667, "pitch": 87, "velocity": 119 },
{ "time": 106.381, "duration": 0.0416667, "pitch": 83, "velocity": 119 },
{ "time": 106.423, "duration": 0.0416667, "pitch": 92, "velocity": 119 },
{ "time": 106.465, "duration": 0.0427083, "pitch": 83, "velocity": 119 },
{ "time": 106.507, "duration": 0.0416667, "pitch": 83, "velocity": 127 },
{ "time": 106.549, "duration": 0.0416667, "pitch": 83, "velocity": 117 },
{ "time": 106.591, "duration": 0.0416667, "pitch": 95, "velocity": 115 },
{ "time": 106.632, "duration": 0.0416667, "pitch": 83, "velocity": 115 },
{ "time": 106.674, "duration": 0.0416667, "pitch": 92, "velocity": 115 },
{ "time": 106.716, "duration": 0.0416667, "pitch": 83, "velocity": 115 },
{ "time": 106.757, "duration": 0.0416667, "pitch": 95, "velocity": 117 },
{ "time": 106.799, "duration": 0.0416667, "pitch": 83, "velocity": 113 },
{ "time": 106.841, "duration": 0.0416667, "pitch": 87, "velocity": 113 },
{ "time": 106.882, "duration": 0.0416667, "pitch": 83, "velocity": 113 },
{ "time": 106.924, "duration": 0.0416667, "pitch": 92, "velocity": 111 },
{ "time": 106.966, "duration": 0.0416667, "pitch": 83, "velocity": 111 },
{ "time": 107.007, "duration": 0.0416667, "pitch": 83, "velocity": 117 },
{ "time": 107.049, "duration": 0.0416667, "pitch": 83, "velocity": 109 },
{ "time": 107.091, "duration": 0.0416667, "pitch": 95, "velocity": 109 },
{ "time": 107.132, "duration": 0.0416667, "pitch": 83, "velocity": 109 },
{ "time": 107.174, "duration": 0.0416667, "pitch": 92, "velocity": 109 },
{ "time": 107.216, "duration": 0.0416667, "pitch": 83, "velocity": 107 },
{ "time": 107.257, "duration": 0.0416667, "pitch": 95, "velocity": 111 },
{ "time": 107.299, "duration": 0.0416667, "pitch": 83, "velocity": 107 },
{ "time": 107.341, "duration": 0.0416667, "pitch": 87, "velocity": 105 },
{ "time": 107.382, "duration": 0.0416667, "pitch": 83, "velocity": 105 },
{ "time": 107.424, "duration": 0.0416667, "pitch": 92, "velocity": 105 },
{ "time": 107.466, "duration": 0.0416667, "pitch": 83, "velocity": 105 },
{ "time": 107.507, "duration": 0.0416667, "pitch": 83, "velocity": 109 },
{ "time": 107.549, "duration": 0.0416667, "pitch": 83, "velocity": 103 },
{ "time": 107.591, "duration": 0.0416667, "pitch": 95, "velocity": 103 },
{ "time": 107.632, "duration": 0.0416667, "pitch": 83, "velocity": 103 },
{ "time": 107.674, "duration": 0.0416667, "pitch": 92, "velocity": 101 },
{ "time": 107.716, "duration": 0.0416667, "pitch": 83, "velocity": 101 },
{ "time": 107.757, "duration": 0.0416667, "pitch": 95, "velocity": 103 },
{ "time": 107.799, "duration": 0.0416667, "pitch": 83, "velocity": 99 },
{ "time": 107.841, "duration": 0.0416667, "pitch": 87, "velocity": 99 },
{ "time": 107.882, "duration": 0.0416667, "pitch": 83, "velocity": 99 },
{ "time": 107.924, "duration": 0.0416667, "pitch": 92, "velocity": 99 },
{ "time": 107.966, "duration": 0.040625, "pitch": 83, "velocity": 97 },
{ "time": 108.006, "duration": 0.0833333, "pitch": 83, "velocity": 95 },
{ "time": 108.09, "duration": 0.0833333, "pitch": 95, "velocity": 94 },
{ "time": 108.173, "duration": 0.0833333, "pitch": 92, "velocity": 92 },
{ "time": 108.256, "duration": 0.0833333, "pitch": 95, "velocity": 93 },
{ "time": 108.34, "duration": 0.0833333, "pitch": 87, "velocity": 88 },
{ "time": 108.423, "duration": 0.0833333, "pitch": 92, "velocity": 85 },
{ "time": 108.506, "duration": 0.0833333, "pitch": 83, "velocity": 89 },
{ "time": 108.59, "duration": 0.0833333, "pitch": 95, "velocity": 81 },
{ "time": 108.673, "duration": 0.0833333, "pitch": 92, "velocity": 79 },
{ "time": 108.756, "duration": 0.0833333, "pitch": 95, "velocity": 80 },
{ "time": 108.84, "duration": 0.0833333, "pitch": 87, "velocity": 74 },
{ "time": 108.923, "duration": 0.0822917, "pitch": 92, "velocity": 72 },
{ "time": 109.005, "duration": 0.0833333, "pitch": 83, "velocity": 75 },
{ "time": 109.089, "duration": 0.0833333, "pitch": 95, "velocity": 69 },
{ "time": 109.172, "duration": 0.0833333, "pitch": 92, "velocity": 66 },
{ "time": 109.255, "duration": 0.0833333, "pitch": 95, "velocity": 66 },
{ "time": 109.339, "duration": 0.0833333, "pitch": 87, "velocity": 62 },
{ "time": 109.422, "duration": 0.0833333, "pitch": 92, "velocity": 60 },
{ "time": 109.505, "duration": 0.0625, "pitch": 83, "velocity": 67 },
{ "time": 109.568, "duration": 0.0625, "pitch": 95, "velocity": 58 },
{ "time": 109.63, "duration": 0.0625, "pitch": 93, "velocity": 58 },
{ "time": 109.693, "duration": 0.0625, "pitch": 95, "velocity": 58 },
{ "time": 109.755, "duration": 0.0625, "pitch": 92, "velocity": 60 },
{ "time": 109.818, "duration": 0.0625, "pitch": 95, "velocity": 58 },
{ "time": 109.88, "duration": 0.0625, "pitch": 90, "velocity": 58 },
{ "time": 109.943, "duration": 0.0635417, "pitch": 95, "velocity": 58 },
{ "time": 110.006, "duration": 0.0625, "pitch": 88, "velocity": 62 },
{ "time": 110.069, "duration": 0.0625, "pitch": 92, "velocity": 58 },
{ "time": 110.131, "duration": 0.0625, "pitch": 90, "velocity": 58 },
{ "time": 110.194, "duration": 0.0625, "pitch": 92, "velocity": 58 },
{ "time": 110.256, "duration": 0.0625, "pitch": 88, "velocity": 60 },
{ "time": 110.319, "duration": 0.0625, "pitch": 92, "velocity": 58 },
{ "time": 110.381, "duration": 0.0625, "pitch": 87, "velocity": 58 },
{ "time": 110.444, "duration": 0.0625, "pitch": 92, "velocity": 58 },
{ "time": 110.506, "duration": 0.0625, "pitch": 85, "velocity": 62 },
{ "time": 110.569, "duration": 0.0625, "pitch": 88, "velocity": 58 },
{ "time": 110.631, "duration": 0.0625, "pitch": 87, "velocity": 58 },
{ "time": 110.694, "duration": 0.0625, "pitch": 88, "velocity": 58 },
{ "time": 110.756, "duration": 0.0625, "pitch": 85, "velocity": 60 },
{ "time": 110.819, "duration": 0.0625, "pitch": 88, "velocity": 58 },
{ "time": 110.881, "duration": 0.0625, "pitch": 83, "velocity": 58 },
{ "time": 110.944, "duration": 0.0614583, "pitch": 88, "velocity": 58 },
{ "time": 111.005, "duration": 0.0625, "pitch": 81, "velocity": 67 },
{ "time": 111.068, "duration": 0.0625, "pitch": 80, "velocity": 58 },
{ "time": 111.13, "duration": 0.0625, "pitch": 78, "velocity": 58 },
{ "time": 111.193, "duration": 0.0625, "pitch": 76, "velocity": 58 },
{ "time": 111.255, "duration": 0.0625, "pitch": 75, "velocity": 60 },
{ "time": 111.318, "duration": 0.0625, "pitch": 73, "velocity": 58 },
{ "time": 111.38, "duration": 0.0625, "pitch": 71, "velocity": 58 },
{ "time": 111.443, "duration": 0.0625, "pitch": 69, "velocity": 58 },
{ "time": 111.505, "duration": 0.0625, "pitch": 71, "velocity": 62 },
{ "time": 111.568, "duration": 0.0625, "pitch": 73, "velocity": 58 },
{ "time": 111.63, "duration": 0.0625, "pitch": 75, "velocity": 58 },
{ "time": 111.693, "duration": 0.0625, "pitch": 76, "velocity": 58 },
{ "time": 111.755, "duration": 0.0625, "pitch": 78, "velocity": 60 },
{ "time": 111.818, "duration": 0.0625, "pitch": 80, "velocity": 58 },
{ "time": 111.88, "duration": 0.0625, "pitch": 81, "velocity": 58 },
{ "time": 111.943, "duration": 0.0635417, "pitch": 83, "velocity": 58 },
{ "time": 112.006, "duration": 0.0625, "pitch": 81, "velocity": 62 },
{ "time": 112.069, "duration": 0.0625, "pitch": 83, "velocity": 58 },
{ "time": 112.131, "duration": 0.0625, "pitch": 85, "velocity": 58 },
{ "time": 112.194, "duration": 0.0625, "pitch": 87, "velocity": 58 },
{ "time": 112.256, "duration": 0.0625, "pitch": 88, "velocity": 60 },
{ "time": 112.319, "duration": 0.0625, "pitch": 90, "velocity": 58 },
{ "time": 112.381, "duration": 0.0625, "pitch": 92, "velocity": 58 },
{ "time": 112.444, "duration": 0.0614583, "pitch": 93, "velocity": 58 },
{ "time": 112.505, "duration": 0.0625, "pitch": 95, "velocity": 67 },
{ "time": 112.568, "duration": 0.0625, "pitch": 99, "velocity": 58 },
{ "time": 112.63, "duration": 0.0625, "pitch": 97, "velocity": 58 },
{ "time": 112.693, "duration": 0.0625, "pitch": 99, "velocity": 58 },
{ "time": 112.755, "duration": 0.0625, "pitch": 95, "velocity": 60 },
{ "time": 112.818, "duration": 0.0625, "pitch": 99, "velocity": 58 },
{ "time": 112.88, "duration": 0.0625, "pitch": 93, "velocity": 58 },
{ "time": 112.943, "duration": 0.0625, "pitch": 99, "velocity": 58 },
{ "time": 113.005, "duration": 0.0625, "pitch": 92, "velocity": 62 },
{ "time": 113.068, "duration": 0.0625, "pitch": 95, "velocity": 58 },
{ "time": 113.13, "duration": 0.0625, "pitch": 93, "velocity": 58 },
{ "time": 113.193, "duration": 0.0625, "pitch": 95, "velocity": 58 },
{ "time": 113.255, "duration": 0.0625, "pitch": 92, "velocity": 60 },
{ "time": 113.318, "duration": 0.0625, "pitch": 95, "velocity": 58 },
{ "time": 113.38, "duration": 0.0625, "pitch": 90, "velocity": 58 },
{ "time": 113.443, "duration": 0.0625, "pitch": 95, "velocity": 58 },
{ "time": 113.505, "duration": 0.0625, "pitch": 88, "velocity": 62 },
{ "time": 113.568, "duration": 0.0625, "pitch": 92, "velocity": 58 },
{ "time": 113.63, "duration": 0.0625, "pitch": 90, "velocity": 58 },
{ "time": 113.693, "duration": 0.0625, "pitch": 92, "velocity": 58 },
{ "time": 113.755, "duration": 0.0625, "pitch": 88, "velocity": 60 },
{ "time": 113.818, "duration": 0.0625, "pitch": 92, "velocity": 58 },
{ "time": 113.88, "duration": 0.0625, "pitch": 87, "velocity": 58 },
{ "time": 113.943, "duration": 0.0625, "pitch": 92, "velocity": 58 },
{ "time": 114.005, "duration": 0.0625, "pitch": 85, "velocity": 67 },
{ "time": 114.068, "duration": 0.0625, "pitch": 83, "velocity": 58 },
{ "time": 114.13, "duration": 0.0625, "pitch": 81, "velocity": 58 },
{ "time": 114.193, "duration": 0.0625, "pitch": 80, "velocity": 58 },
{ "time": 114.255, "duration": 0.0625, "pitch": 78, "velocity": 60 },
{ "time": 114.318, "duration": 0.0625, "pitch": 76, "velocity": 58 },
{ "time": 114.38, "duration": 0.0625, "pitch": 75, "velocity": 58 },
{ "time": 114.443, "duration": 0.0635417, "pitch": 73, "velocity": 58 },
{ "time": 114.506, "duration": 0.0625, "pitch": 75, "velocity": 62 },
{ "time": 114.569, "duration": 0.0625, "pitch": 76, "velocity": 58 },
{ "time": 114.631, "duration": 0.0625, "pitch": 78, "velocity": 58 },
{ "time": 114.694, "duration": 0.0625, "pitch": 80, "velocity": 58 },
{ "time": 114.756, "duration": 0.0625, "pitch": 81, "velocity": 60 },
{ "time": 114.819, "duration": 0.0625, "pitch": 83, "velocity": 58 },
{ "time": 114.881, "duration": 0.0625, "pitch": 85, "velocity": 58 },
{ "time": 114.944, "duration": 0.0614583, "pitch": 87, "velocity": 58 },
{ "time": 115.005, "duration": 0.0625, "pitch": 85, "velocity": 62 },
{ "time": 115.068, "duration": 0.0625, "pitch": 87, "velocity": 58 },
{ "time": 115.13, "duration": 0.0625, "pitch": 88, "velocity": 58 },
{ "time": 115.193, "duration": 0.0625, "pitch": 90, "velocity": 58 },
{ "time": 115.255, "duration": 0.0625, "pitch": 92, "velocity": 60 },
{ "time": 115.318, "duration": 0.0625, "pitch": 93, "velocity": 58 },
{ "time": 115.38, "duration": 0.0625, "pitch": 95, "velocity": 58 },
{ "time": 115.443, "duration": 0.0635417, "pitch": 97, "velocity": 58 },
{ "time": 115.506, "duration": 0.0625, "pitch": 99, "velocity": 67 },
{ "time": 115.569, "duration": 0.0625, "pitch": 100, "velocity": 58 },
{ "time": 115.631, "duration": 0.0625, "pitch": 97, "velocity": 58 },
{ "time": 115.694, "duration": 0.0625, "pitch": 100, "velocity": 58 },
{ "time": 115.756, "duration": 0.0625, "pitch": 95, "velocity": 60 },
{ "time": 115.819, "duration": 0.0625, "pitch": 100, "velocity": 58 },
{ "time": 115.881, "duration": 0.0625, "pitch": 93, "velocity": 58 },
{ "time": 115.944, "duration": 0.0625, "pitch": 100, "velocity": 58 },
{ "time": 116.006, "duration": 0.0625, "pitch": 95, "velocity": 62 },
{ "time": 116.069, "duration": 0.0625, "pitch": 97, "velocity": 58 },
{ "time": 116.131, "duration": 0.0625, "pitch": 93, "velocity": 58 },
{ "time": 116.194, "duration": 0.0625, "pitch": 97, "velocity": 58 },
{ "time": 116.256, "duration": 0.0625, "pitch": 92, "velocity": 60 },
{ "time": 116.319, "duration": 0.0625, "pitch": 97, "velocity": 58 },
{ "time": 116.381, "duration": 0.0625, "pitch": 90, "velocity": 58 },
{ "time": 116.444, "duration": 0.0625, "pitch": 97, "velocity": 58 },
{ "time": 116.506, "duration": 0.0625, "pitch": 92, "velocity": 62 },
{ "time": 116.569, "duration": 0.0625, "pitch": 93, "velocity": 58 },
{ "time": 116.631, "duration": 0.0625, "pitch": 90, "velocity": 58 },
{ "time": 116.694, "duration": 0.0625, "pitch": 93, "velocity": 58 },
{ "time": 116.756, "duration": 0.0625, "pitch": 88, "velocity": 60 },
{ "time": 116.819, "duration": 0.0625, "pitch": 93, "velocity": 58 },
{ "time": 116.881, "duration": 0.0625, "pitch": 87, "velocity": 58 },
{ "time": 116.944, "duration": 0.0625, "pitch": 93, "velocity": 58 },
{ "time": 117.006, "duration": 0.0625, "pitch": 87, "velocity": 67 },
{ "time": 117.069, "duration": 0.0625, "pitch": 85, "velocity": 58 },
{ "time": 117.131, "duration": 0.0625, "pitch": 83, "velocity": 58 },
{ "time": 117.194, "duration": 0.0625, "pitch": 81, "velocity": 58 },
{ "time": 117.256, "duration": 0.0625, "pitch": 80, "velocity": 60 },
{ "time": 117.319, "duration": 0.0625, "pitch": 78, "velocity": 58 },
{ "time": 117.381, "duration": 0.0625, "pitch": 76, "velocity": 58 },
{ "time": 117.444, "duration": 0.0625, "pitch": 75, "velocity": 58 },
{ "time": 117.506, "duration": 0.0625, "pitch": 73, "velocity": 62 },
{ "time": 117.569, "duration": 0.0625, "pitch": 75, "velocity": 58 },
{ "time": 117.631, "duration": 0.0625, "pitch": 76, "velocity": 58 },
{ "time": 117.694, "duration": 0.0625, "pitch": 78, "velocity": 58 },
{ "time": 117.756, "duration": 0.0625, "pitch": 80, "velocity": 60 },
{ "time": 117.819, "duration": 0.0625, "pitch": 81, "velocity": 58 },
{ "time": 117.881, "duration": 0.0625, "pitch": 83, "velocity": 58 },
{ "time": 117.944, "duration": 0.0614583, "pitch": 85, "velocity": 58 },
{ "time": 118.005, "duration": 0.0625, "pitch": 87, "velocity": 62 },
{ "time": 118.068, "duration": 0.0625, "pitch": 88, "velocity": 58 },
{ "time": 118.13, "duration": 0.0625, "pitch": 90, "velocity": 58 },
{ "time": 118.193, "duration": 0.0625, "pitch": 92, "velocity": 58 },
{ "time": 118.255, "duration": 0.0625, "pitch": 93, "velocity": 60 },
{ "time": 118.318, "duration": 0.0625, "pitch": 95, "velocity": 58 },
{ "time": 118.38, "duration": 0.0625, "pitch": 97, "velocity": 58 },
{ "time": 118.443, "duration": 0.0625, "pitch": 99, "velocity": 58 },
{ "time": 118.505, "duration": 0.0625, "pitch": 100, "velocity": 67 },
{ "time": 118.568, "duration": 0.0625, "pitch": 97, "velocity": 58 },
{ "time": 118.63, "duration": 0.0625, "pitch": 95, "velocity": 58 },
{ "time": 118.693, "duration": 0.0625, "pitch": 97, "velocity": 58 },
{ "time": 118.755, "duration": 0.0625, "pitch": 93, "velocity": 60 },
{ "time": 118.818, "duration": 0.0625, "pitch": 97, "velocity": 58 },
{ "time": 118.88, "duration": 0.0625, "pitch": 92, "velocity": 58 },
{ "time": 118.943, "duration": 0.0635417, "pitch": 97, "velocity": 58 },
{ "time": 119.006, "duration": 0.0625, "pitch": 90, "velocity": 62 },
{ "time": 119.069, "duration": 0.0625, "pitch": 93, "velocity": 58 },
{ "time": 119.131, "duration": 0.0625, "pitch": 92, "velocity": 58 },
{ "time": 119.194, "duration": 0.0625, "pitch": 93, "velocity": 58 },
{ "time": 119.256, "duration": 0.0625, "pitch": 90, "velocity": 60 },
{ "time": 119.319, "duration": 0.0625, "pitch": 93, "velocity": 58 },
{ "time": 119.381, "duration": 0.0625, "pitch": 88, "velocity": 58 },
{ "time": 119.444, "duration": 0.0614583, "pitch": 93, "velocity": 58 },
{ "time": 119.505, "duration": 0.0625, "pitch": 87, "velocity": 62 },
{ "time": 119.568, "duration": 0.0625, "pitch": 90, "velocity": 58 },
{ "time": 119.63, "duration": 0.0625, "pitch": 88, "velocity": 58 },
{ "time": 119.693, "duration": 0.0625, "pitch": 90, "velocity": 58 },
{ "time": 119.755, "duration": 0.0625, "pitch": 87, "velocity": 60 },
{ "time": 119.818, "duration": 0.0625, "pitch": 90, "velocity": 58 },
{ "time": 119.88, "duration": 0.0625, "pitch": 85, "velocity": 58 },
{ "time": 119.943, "duration": 0.0635417, "pitch": 90, "velocity": 58 },
{ "time": 120.006, "duration": 0.0625, "pitch": 85, "velocity": 67 },
{ "time": 120.069, "duration": 0.0625, "pitch": 83, "velocity": 58 },
{ "time": 120.131, "duration": 0.0625, "pitch": 81, "velocity": 58 },
{ "time": 120.194, "duration": 0.0625, "pitch": 80, "velocity": 58 },
{ "time": 120.256, "duration": 0.0625, "pitch": 78, "velocity": 60 },
{ "time": 120.319, "duration": 0.0625, "pitch": 76, "velocity": 58 },
{ "time": 120.381, "duration": 0.0625, "pitch": 75, "velocity": 58 },
{ "time": 120.444, "duration": 0.0625, "pitch": 73, "velocity": 58 },
{ "time": 120.506, "duration": 0.0625, "pitch": 71, "velocity": 62 },
{ "time": 120.569, "duration": 0.0625, "pitch": 73, "velocity": 58 },
{ "time": 120.631, "duration": 0.0625, "pitch": 75, "velocity": 58 },
{ "time": 120.694, "duration": 0.0625, "pitch": 76, "velocity": 58 },
{ "time": 120.756, "duration": 0.0625, "pitch": 78, "velocity": 60 },
{ "time": 120.819, "duration": 0.0625, "pitch": 80, "velocity": 58 },
{ "time": 120.881, "duration": 0.0625, "pitch": 81, "velocity": 58 },
{ "time": 120.944, "duration": 0.0614583, "pitch": 83, "velocity": 58 },
{ "time": 121.005, "duration": 0.0625, "pitch": 85, "velocity": 62 },
{ "time": 121.068, "duration": 0.0625, "pitch": 87, "velocity": 58 },
{ "time": 121.13, "duration": 0.0625, "pitch": 88, "velocity": 58 },
{ "time": 121.193, "duration": 0.0625, "pitch": 90, "velocity": 58 },
{ "time": 121.255, "duration": 0.0625, "pitch": 92, "velocity": 60 },
{ "time": 121.318, "duration": 0.0625, "pitch": 93, "velocity": 58 },
{ "time": 121.38, "duration": 0.0625, "pitch": 95, "velocity": 58 },
{ "time": 121.443, "duration": 0.0635417, "pitch": 97, "velocity": 58 },
{ "time": 121.506, "duration": 0.0625, "pitch": 99, "velocity": 67 },
{ "time": 121.569, "duration": 0.0625, "pitch": 95, "velocity": 58 },
{ "time": 121.631, "duration": 0.0625, "pitch": 93, "velocity": 58 },
{ "time": 121.694, "duration": 0.0625, "pitch": 95, "velocity": 58 },
{ "time": 121.756, "duration": 0.0625, "pitch": 92, "velocity": 60 },
{ "time": 121.819, "duration": 0.0625, "pitch": 95, "velocity": 58 },
{ "time": 121.881, "duration": 0.0625, "pitch": 90, "velocity": 58 },
{ "time": 121.944, "duration": 0.0614583, "pitch": 95, "velocity": 58 },
{ "time": 122.005, "duration": 0.0625, "pitch": 87, "velocity": 62 },
{ "time": 122.068, "duration": 0.0625, "pitch": 92, "velocity": 58 },
{ "time": 122.13, "duration": 0.0625, "pitch": 90, "velocity": 58 },
{ "time": 122.193, "duration": 0.0625, "pitch": 92, "velocity": 58 },
{ "time": 122.255, "duration": 0.0625, "pitch": 87, "velocity": 60 },
{ "time": 122.318, "duration": 0.0625, "pitch": 92, "velocity": 58 },
{ "time": 122.38, "duration": 0.0625, "pitch": 83, "velocity": 58 },
{ "time": 122.443, "duration": 0.0635417, "pitch": 92, "velocity": 58 },
{ "time": 122.506, "duration": 0.0625, "pitch": 87, "velocity": 62 },
{ "time": 122.569, "duration": 0.0625, "pitch": 88, "velocity": 58 },
{ "time": 122.631, "duration": 0.0625, "pitch": 85, "velocity": 58 },
{ "time": 122.694, "duration": 0.0625, "pitch": 88, "velocity": 58 },
{ "time": 122.756, "duration": 0.0625, "pitch": 83, "velocity": 60 },
{ "time": 122.819, "duration": 0.0625, "pitch": 88, "velocity": 58 },
{ "time": 122.881, "duration": 0.0625, "pitch": 81, "velocity": 58 },
{ "time": 122.944, "duration": 0.0614583, "pitch": 88, "velocity": 58 },
{ "time": 123.005, "duration": 0.0625, "pitch": 80, "velocity": 67 },
{ "time": 123.068, "duration": 0.0625, "pitch": 78, "velocity": 58 },
{ "time": 123.13, "duration": 0.0625, "pitch": 76, "velocity": 58 },
{ "time": 123.193, "duration": 0.0625, "pitch": 75, "velocity": 58 },
{ "time": 123.255, "duration": 0.0625, "pitch": 73, "velocity": 60 },
{ "time": 123.318, "duration": 0.0625, "pitch": 71, "velocity": 58 },
{ "time": 123.38, "duration": 0.0625, "pitch": 69, "velocity": 58 },
{ "time": 123.443, "duration": 0.0625, "pitch": 68, "velocity": 58 },
{ "time": 123.505, "duration": 0.0625, "pitch": 68, "velocity": 62 },
{ "time": 123.568, "duration": 0.0625, "pitch": 66, "velocity": 58 },
{ "time": 123.63, "duration": 0.0625, "pitch": 68, "velocity": 58 },
{ "time": 123.693, "duration": 0.0625, "pitch": 69, "velocity": 58 },
{ "time": 123.755, "duration": 0.0625, "pitch": 71, "velocity": 60 },
{ "time": 123.818, "duration": 0.0625, "pitch": 73, "velocity": 58 },
{ "time": 123.88, "duration": 0.0625, "pitch": 75, "velocity": 58 },
{ "time": 123.943, "duration": 0.0635417, "pitch": 76, "velocity": 58 },
{ "time": 124.006, "duration": 0.0625, "pitch": 78, "velocity": 62 },
{ "time": 124.069, "duration": 0.0625, "pitch": 80, "velocity": 58 },
{ "time": 124.131, "duration": 0.0625, "pitch": 81, "velocity": 58 },
{ "time": 124.194, "duration": 0.0625, "pitch": 83, "velocity": 58 },
{ "time": 124.256, "duration": 0.0625, "pitch": 85, "velocity": 60 },
{ "time": 124.319, "duration": 0.0625, "pitch": 87, "velocity": 58 },
{ "time": 124.381, "duration": 0.0625, "pitch": 88, "velocity": 58 },
{ "time": 124.444, "duration": 0.0625, "pitch": 90, "velocity": 58 },
{ "time": 124.506, "duration": 0.0625, "pitch": 92, "velocity": 67 },
{ "time": 124.569, "duration": 0.0625, "pitch": 93, "velocity": 58 },
{ "time": 124.631, "duration": 0.0625, "pitch": 92, "velocity": 58 },
{ "time": 124.694, "duration": 0.0625, "pitch": 93, "velocity": 58 },
{ "time": 124.756, "duration": 0.0625, "pitch": 90, "velocity": 60 },
{ "time": 124.819, "duration": 0.0625, "pitch": 93, "velocity": 58 },
{ "time": 124.881, "duration": 0.0625, "pitch": 88, "velocity": 58 },
{ "time": 124.944, "duration": 0.0614583, "pitch": 93, "velocity": 58 },
{ "time": 125.005, "duration": 0.0625, "pitch": 88, "velocity": 62 },
{ "time": 125.068, "duration": 0.0625, "pitch": 90, "velocity": 58 },
{ "time": 125.13, "duration": 0.0625, "pitch": 88, "velocity": 58 },
{ "time": 125.193, "duration": 0.0625, "pitch": 90, "velocity": 58 },
{ "time": 125.255, "duration": 0.0625, "pitch": 87, "velocity": 60 },
{ "time": 125.318, "duration": 0.0625, "pitch": 90, "velocity": 58 },
{ "time": 125.38, "duration": 0.0625, "pitch": 85, "velocity": 58 },
{ "time": 125.443, "duration": 0.0625, "pitch": 90, "velocity": 58 },
{ "time": 125.505, "duration": 0.0625, "pitch": 87, "velocity": 62 },
{ "time": 125.568, "duration": 0.0625, "pitch": 88, "velocity": 58 },
{ "time": 125.63, "duration": 0.0625, "pitch": 87, "velocity": 58 },
{ "time": 125.693, "duration": 0.0625, "pitch": 88, "velocity": 58 },
{ "time": 125.755, "duration": 0.0625, "pitch": 85, "velocity": 60 },
{ "time": 125.818, "duration": 0.0625, "pitch": 88, "velocity": 58 },
{ "time": 125.88, "duration": 0.0625, "pitch": 83, "velocity": 58 },
{ "time": 125.943, "duration": 0.0625, "pitch": 88, "velocity": 58 },
{ "time": 126.005, "duration": 0.0625, "pitch": 83, "velocity": 67 },
{ "time": 126.068, "duration": 0.0625, "pitch": 81, "velocity": 58 },
{ "time": 126.13, "duration": 0.0625, "pitch": 80, "velocity": 58 },
{ "time": 126.193, "duration": 0.0625, "pitch": 78, "velocity": 58 },
{ "time": 126.255, "duration": 0.0625, "pitch": 76, "velocity": 60 },
{ "time": 126.318, "duration": 0.0625, "pitch": 75, "velocity": 58 },
{ "time": 126.38, "duration": 0.0625, "pitch": 73, "velocity": 58 },
{ "time": 126.443, "duration": 0.0635417, "pitch": 71, "velocity": 58 },
{ "time": 126.506, "duration": 0.0625, "pitch": 69, "velocity": 62 },
{ "time": 126.569, "duration": 0.0625, "pitch": 68, "velocity": 58 },
{ "time": 126.631, "duration": 0.0625, "pitch": 69, "velocity": 58 },
{ "time": 126.694, "duration": 0.0625, "pitch": 71, "velocity": 58 },
{ "time": 126.756, "duration": 0.0625, "pitch": 73, "velocity": 60 },
{ "time": 126.819, "duration": 0.0625, "pitch": 75, "velocity": 58 },
{ "time": 126.881, "duration": 0.0625, "pitch": 76, "velocity": 58 },
{ "time": 126.944, "duration": 0.0625, "pitch": 78, "velocity": 58 },
{ "time": 127.006, "duration": 0.0625, "pitch": 80, "velocity": 62 },
{ "time": 127.069, "duration": 0.0625, "pitch": 81, "velocity": 58 },
{ "time": 127.131, "duration": 0.0625, "pitch": 83, "velocity": 58 },
{ "time": 127.194, "duration": 0.0625, "pitch": 85, "velocity": 58 },
{ "time": 127.256, "duration": 0.0625, "pitch": 87, "velocity": 60 },
{ "time": 127.319, "duration": 0.0625, "pitch": 88, "velocity": 58 },
{ "time": 127.381, "duration": 0.0625, "pitch": 90, "velocity": 58 },
{ "time": 127.444, "duration": 0.0625, "pitch": 92, "velocity": 58 },
{ "time": 127.506, "duration": 0.0625, "pitch": 90, "velocity": 67 },
{ "time": 127.569, "duration": 0.0625, "pitch": 92, "velocity": 58 },
{ "time": 127.631, "duration": 0.0625, "pitch": 90, "velocity": 58 },
{ "time": 127.694, "duration": 0.0625, "pitch": 92, "velocity": 58 },
{ "time": 127.756, "duration": 0.0625, "pitch": 88, "velocity": 60 },
{ "time": 127.819, "duration": 0.0625, "pitch": 92, "velocity": 58 },
{ "time": 127.881, "duration": 0.0625, "pitch": 87, "velocity": 58 },
{ "time": 127.944, "duration": 0.0614583, "pitch": 92, "velocity": 58 },
{ "time": 128.005, "duration": 0.0625, "pitch": 85, "velocity": 62 },
{ "time": 128.068, "duration": 0.0625, "pitch": 83, "velocity": 58 },
{ "time": 128.13, "duration": 0.0625, "pitch": 81, "velocity": 58 },
{ "time": 128.193, "duration": 0.0625, "pitch": 80, "velocity": 58 },
{ "time": 128.255, "duration": 0.0625, "pitch": 81, "velocity": 60 },
{ "time": 128.318, "duration": 0.0625, "pitch": 83, "velocity": 58 },
{ "time": 128.38, "duration": 0.0625, "pitch": 85, "velocity": 58 },
{ "time": 128.443, "duration": 0.0625, "pitch": 87, "velocity": 58 },
{ "time": 128.505, "duration": 0.0625, "pitch": 87, "velocity": 62 },
{ "time": 128.568, "duration": 0.0625, "pitch": 88, "velocity": 58 },
{ "time": 128.63, "duration": 0.0625, "pitch": 85, "velocity": 58 },
{ "time": 128.693, "duration": 0.0625, "pitch": 88, "velocity": 58 },
{ "time": 128.755, "duration": 0.0625, "pitch": 83, "velocity": 60 },
{ "time": 128.818, "duration": 0.0625, "pitch": 88, "velocity": 58 },
{ "time": 128.88, "duration": 0.0625, "pitch": 81, "velocity": 58 },
{ "time": 128.943, "duration": 0.0625, "pitch": 88, "velocity": 58 },
{ "time": 129.005, "duration": 0.0625, "pitch": 80, "velocity": 67 },
{ "time": 129.068, "duration": 0.0625, "pitch": 78, "velocity": 58 },
{ "time": 129.13, "duration": 0.0625, "pitch": 76, "velocity": 58 },
{ "time": 129.193, "duration": 0.0625, "pitch": 75, "velocity": 58 },
{ "time": 129.255, "duration": 0.0625, "pitch": 73, "velocity": 60 },
{ "time": 129.318, "duration": 0.0625, "pitch": 71, "velocity": 58 },
{ "time": 129.38, "duration": 0.0625, "pitch": 68, "velocity": 58 },
{ "time": 129.443, "duration": 0.0625, "pitch": 66, "velocity": 58 },
{ "time": 129.505, "duration": 0.0625, "pitch": 63, "velocity": 62 },
{ "time": 129.568, "duration": 0.0625, "pitch": 59, "velocity": 58 },
{ "time": 129.63, "duration": 0.0625, "pitch": 61, "velocity": 58 },
{ "time": 129.693, "duration": 0.0625, "pitch": 63, "velocity": 58 },
{ "time": 129.755, "duration": 0.0625, "pitch": 64, "velocity": 60 },
{ "time": 129.818, "duration": 0.0625, "pitch": 66, "velocity": 58 },
{ "time": 129.88, "duration": 0.0625, "pitch": 68, "velocity": 58 },
{ "time": 129.943, "duration": 0.0625, "pitch": 70, "velocity": 58 },
{ "time": 130.005, "duration": 0.0625, "pitch": 71, "velocity": 62 },
{ "time": 130.068, "duration": 0.0625, "pitch": 73, "velocity": 58 },
{ "time": 130.13, "duration": 0.0625, "pitch": 75, "velocity": 58 },
{ "time": 130.193, "duration": 0.0625, "pitch": 76, "velocity": 58 },
{ "time": 130.255, "duration": 0.0625, "pitch": 78, "velocity": 60 },
{ "time": 130.318, "duration": 0.0625, "pitch": 80, "velocity": 58 },
{ "time": 130.38, "duration": 0.0625, "pitch": 82, "velocity": 58 },
{ "time": 130.443, "duration": 0.0625, "pitch": 83, "velocity": 58 },
{ "time": 130.505, "duration": 0.0625, "pitch": 85, "velocity": 67 },
{ "time": 130.568, "duration": 0.0625, "pitch": 83, "velocity": 63 },
{ "time": 130.63, "duration": 0.0625, "pitch": 80, "velocity": 63 },
{ "time": 130.693, "duration": 0.0625, "pitch": 78, "velocity": 63 },
{ "time": 130.755, "duration": 0.0625, "pitch": 83, "velocity": 67 },
{ "time": 130.818, "duration": 0.0625, "pitch": 80, "velocity": 63 },
{ "time": 130.88, "duration": 0.0625, "pitch": 78, "velocity": 63 },
{ "time": 130.943, "duration": 0.0625, "pitch": 75, "velocity": 63 },
{ "time": 131.005, "duration": 0.0625, "pitch": 80, "velocity": 71 },
{ "time": 131.068, "duration": 0.0625, "pitch": 78, "velocity": 63 },
{ "time": 131.13, "duration": 0.0625, "pitch": 75, "velocity": 63 },
{ "time": 131.193, "duration": 0.0625, "pitch": 73, "velocity": 63 },
{ "time": 131.255, "duration": 0.0625, "pitch": 78, "velocity": 67 },
{ "time": 131.318, "duration": 0.0625, "pitch": 75, "velocity": 63 },
{ "time": 131.38, "duration": 0.0625, "pitch": 73, "velocity": 63 },
{ "time": 131.443, "duration": 0.0625, "pitch": 71, "velocity": 63 },
{ "time": 131.505, "duration": 0.0625, "pitch": 68, "velocity": 71 },
{ "time": 131.568, "duration": 0.0625, "pitch": 66, "velocity": 63 },
{ "time": 131.63, "duration": 0.0625, "pitch": 63, "velocity": 63 },
{ "time": 131.693, "duration": 0.0625, "pitch": 61, "velocity": 63 },
{ "time": 131.755, "duration": 0.0625, "pitch": 59, "velocity": 67 },
{ "time": 131.818, "duration": 0.0625, "pitch": 54, "velocity": 63 },
{ "time": 131.88, "duration": 0.0625, "pitch": 52, "velocity": 63 },
{ "time": 131.943, "duration": 0.0635417, "pitch": 51, "velocity": 63 },
{ "time": 132.006, "duration": 0.0625, "pitch": 52, "velocity": 71 },
{ "time": 132.069, "duration": 0.0625, "pitch": 54, "velocity": 63 },
{ "time": 132.131, "duration": 0.0625, "pitch": 56, "velocity": 69 },
{ "time": 132.194, "duration": 0.0625, "pitch": 57, "velocity": 69 },
{ "time": 132.256, "duration": 0.0625, "pitch": 59, "velocity": 73 },
{ "time": 132.319, "duration": 0.0625, "pitch": 59, "velocity": 69 },
{ "time": 132.381, "duration": 0.0625, "pitch": 61, "velocity": 69 },
{ "time": 132.444, "duration": 0.0614583, "pitch": 63, "velocity": 69 },
{ "time": 132.505, "duration": 0.0625, "pitch": 64, "velocity": 77 },
{ "time": 132.568, "duration": 0.0625, "pitch": 66, "velocity": 69 },
{ "time": 132.63, "duration": 0.0625, "pitch": 68, "velocity": 69 },
{ "time": 132.693, "duration": 0.0625, "pitch": 69, "velocity": 69 },
{ "time": 132.755, "duration": 0.0625, "pitch": 71, "velocity": 73 },
{ "time": 132.818, "duration": 0.0625, "pitch": 73, "velocity": 69 },
{ "time": 132.88, "duration": 0.0625, "pitch": 75, "velocity": 69 },
{ "time": 132.943, "duration": 0.0614583, "pitch": 76, "velocity": 69 },
{ "time": 133.004, "duration": 0.0625, "pitch": 78, "velocity": 77 },
{ "time": 133.067, "duration": 0.0625, "pitch": 80, "velocity": 69 },
{ "time": 133.129, "duration": 0.0625, "pitch": 81, "velocity": 77 },
{ "time": 133.192, "duration": 0.0625, "pitch": 83, "velocity": 77 },
{ "time": 133.254, "duration": 0.0625, "pitch": 85, "velocity": 81 },
{ "time": 133.317, "duration": 0.0625, "pitch": 87, "velocity": 77 },
{ "time": 133.379, "duration": 0.0625, "pitch": 88, "velocity": 77 },
{ "time": 133.442, "duration": 0.0635417, "pitch": 90, "velocity": 77 },
{ "time": 133.505, "duration": 0.0625, "pitch": 92, "velocity": 83 },
{ "time": 133.568, "duration": 0.0625, "pitch": 96, "velocity": 77 },
{ "time": 133.63, "duration": 0.0625, "pitch": 94, "velocity": 77 },
{ "time": 133.693, "duration": 0.0625, "pitch": 96, "velocity": 77 },
{ "time": 133.755, "duration": 0.0625, "pitch": 92, "velocity": 81 },
{ "time": 133.818, "duration": 0.0625, "pitch": 96, "velocity": 79 },
{ "time": 133.88, "duration": 0.0625, "pitch": 90, "velocity": 79 },
{ "time": 133.943, "duration": 0.0625, "pitch": 96, "velocity": 79 },
{ "time": 134.005, "duration": 0.0625, "pitch": 88, "velocity": 87 },
{ "time": 134.068, "duration": 0.0625, "pitch": 92, "velocity": 79 },
{ "time": 134.13, "duration": 0.0625, "pitch": 90, "velocity": 81 },
{ "time": 134.193, "duration": 0.0625, "pitch": 92, "velocity": 81 },
{ "time": 134.255, "duration": 0.0625, "pitch": 88, "velocity": 85 },
{ "time": 134.318, "duration": 0.0625, "pitch": 92, "velocity": 81 },
{ "time": 134.38, "duration": 0.0625, "pitch": 87, "velocity": 81 },
{ "time": 134.443, "duration": 0.0625, "pitch": 92, "velocity": 83 },
{ "time": 134.505, "duration": 0.0625, "pitch": 85, "velocity": 91 },
{ "time": 134.568, "duration": 0.0625, "pitch": 87, "velocity": 83 },
{ "time": 134.63, "duration": 0.0625, "pitch": 84, "velocity": 83 },
{ "time": 134.693, "duration": 0.0625, "pitch": 87, "velocity": 83 },
{ "time": 134.755, "duration": 0.0625, "pitch": 82, "velocity": 89 },
{ "time": 134.818, "duration": 0.0625, "pitch": 87, "velocity": 85 },
{ "time": 134.88, "duration": 0.0625, "pitch": 80, "velocity": 85 },
{ "time": 134.943, "duration": 0.0625, "pitch": 87, "velocity": 85 },
{ "time": 135.005, "duration": 0.0625, "pitch": 78, "velocity": 93 },
{ "time": 135.068, "duration": 0.0625, "pitch": 76, "velocity": 87 },
{ "time": 135.13, "duration": 0.0625, "pitch": 75, "velocity": 87 },
{ "time": 135.193, "duration": 0.0625, "pitch": 73, "velocity": 87 },
{ "time": 135.255, "duration": 0.0625, "pitch": 72, "velocity": 91 },
{ "time": 135.318, "duration": 0.0625, "pitch": 73, "velocity": 89 },
{ "time": 135.38, "duration": 0.0625, "pitch": 75, "velocity": 89 },
{ "time": 135.443, "duration": 0.0635417, "pitch": 76, "velocity": 89 },
{ "time": 135.506, "duration": 0.0625, "pitch": 78, "velocity": 97 },
{ "time": 135.569, "duration": 0.0625, "pitch": 80, "velocity": 89 },
{ "time": 135.631, "duration": 0.0625, "pitch": 82, "velocity": 91 },
{ "time": 135.694, "duration": 0.0625, "pitch": 84, "velocity": 91 },
{ "time": 135.756, "duration": 0.0625, "pitch": 85, "velocity": 95 },
{ "time": 135.819, "duration": 0.0625, "pitch": 87, "velocity": 91 },
{ "time": 135.881, "duration": 0.0625, "pitch": 88, "velocity": 91 },
{ "time": 135.944, "duration": 0.0614583, "pitch": 90, "velocity": 93 },
{ "time": 136.005, "duration": 0.0625, "pitch": 92, "velocity": 101 },
{ "time": 136.068, "duration": 0.0625, "pitch": 94, "velocity": 93 },
{ "time": 136.13, "duration": 0.0625, "pitch": 96, "velocity": 93 },
{ "time": 136.193, "duration": 0.0625, "pitch": 97, "velocity": 93 },
{ "time": 136.255, "duration": 0.0625, "pitch": 96, "velocity": 99 },
{ "time": 136.318, "duration": 0.0625, "pitch": 97, "velocity": 95 },
{ "time": 136.38, "duration": 0.0625, "pitch": 100, "velocity": 95 },
{ "time": 136.443, "duration": 0.125, "pitch": 104, "velocity": 95 },
{ "time": 136.568, "duration": 0.0625, "pitch": 102, "velocity": 67 },
{ "time": 136.63, "duration": 0.0625, "pitch": 100, "velocity": 87 },
{ "time": 136.693, "duration": 0.0625, "pitch": 102, "velocity": 87 },
{ "time": 136.755, "duration": 0.0625, "pitch": 99, "velocity": 90 },
{ "time": 136.818, "duration": 0.0625, "pitch": 102, "velocity": 87 },
{ "time": 136.88, "duration": 0.0625, "pitch": 97, "velocity": 87 },
{ "time": 136.943, "duration": 0.0625, "pitch": 102, "velocity": 87 },
{ "time": 137.005, "duration": 0.0625, "pitch": 95, "velocity": 93 },
{ "time": 137.068, "duration": 0.0625, "pitch": 97, "velocity": 87 },
{ "time": 137.13, "duration": 0.0625, "pitch": 94, "velocity": 87 },
{ "time": 137.193, "duration": 0.0625, "pitch": 97, "velocity": 87 },
{ "time": 137.255, "duration": 0.0625, "pitch": 92, "velocity": 90 },
{ "time": 137.318, "duration": 0.0625, "pitch": 95, "velocity": 87 },
{ "time": 137.38, "duration": 0.0625, "pitch": 90, "velocity": 87 },
{ "time": 137.443, "duration": 0.0625, "pitch": 95, "velocity": 87 },
{ "time": 137.505, "duration": 0.0625, "pitch": 90, "velocity": 93 },
{ "time": 137.568, "duration": 0.0625, "pitch": 88, "velocity": 87 },
{ "time": 137.63, "duration": 0.0625, "pitch": 85, "velocity": 87 },
{ "time": 137.693, "duration": 0.0625, "pitch": 83, "velocity": 87 },
{ "time": 137.755, "duration": 0.0625, "pitch": 80, "velocity": 90 },
{ "time": 137.818, "duration": 0.0625, "pitch": 78, "velocity": 87 },
{ "time": 137.88, "duration": 0.0625, "pitch": 73, "velocity": 87 },
{ "time": 137.943, "duration": 0.0625, "pitch": 71, "velocity": 87 },
{ "time": 138.005, "duration": 0.0625, "pitch": 78, "velocity": 100 },
{ "time": 138.068, "duration": 0.0625, "pitch": 76, "velocity": 87 },
{ "time": 138.13, "duration": 0.0625, "pitch": 73, "velocity": 87 },
{ "time": 138.193, "duration": 0.0625, "pitch": 68, "velocity": 87 },
{ "time": 138.255, "duration": 0.0625, "pitch": 66, "velocity": 90 },
{ "time": 138.318, "duration": 0.0625, "pitch": 68, "velocity": 87 },
{ "time": 138.38, "duration": 0.0625, "pitch": 73, "velocity": 87 },
{ "time": 138.443, "duration": 0.0614583, "pitch": 76, "velocity": 87 },
{ "time": 138.504, "duration": 0.0625, "pitch": 78, "velocity": 93 },
{ "time": 138.567, "duration": 0.0625, "pitch": 80, "velocity": 87 },
{ "time": 138.629, "duration": 0.0625, "pitch": 83, "velocity": 87 },
{ "time": 138.692, "duration": 0.0625, "pitch": 85, "velocity": 87 },
{ "time": 138.754, "duration": 0.0625, "pitch": 88, "velocity": 90 },
{ "time": 138.817, "duration": 0.0625, "pitch": 85, "velocity": 87 },
{ "time": 138.879, "duration": 0.0625, "pitch": 83, "velocity": 87 },
{ "time": 138.942, "duration": 0.0635417, "pitch": 80, "velocity": 87 },
{ "time": 139.005, "duration": 0.0625, "pitch": 76, "velocity": 93 },
{ "time": 139.068, "duration": 0.0625, "pitch": 78, "velocity": 87 },
{ "time": 139.13, "duration": 0.0625, "pitch": 80, "velocity": 87 },
{ "time": 139.193, "duration": 0.0625, "pitch": 83, "velocity": 87 },
{ "time": 139.255, "duration": 0.0625, "pitch": 80, "velocity": 90 },
{ "time": 139.318, "duration": 0.0625, "pitch": 78, "velocity": 87 },
{ "time": 139.38, "duration": 0.0625, "pitch": 76, "velocity": 87 },
{ "time": 139.443, "duration": 0.0625, "pitch": 73, "velocity": 87 },
{ "time": 139.505, "duration": 0.0625, "pitch": 68, "velocity": 67 },
{ "time": 139.568, "duration": 0.0625, "pitch": 66, "velocity": 58 },
{ "time": 139.63, "duration": 0.0625, "pitch": 64, "velocity": 58 },
{ "time": 139.693, "duration": 0.0625, "pitch": 66, "velocity": 58 },
{ "time": 139.755, "duration": 0.0625, "pitch": 68, "velocity": 60 },
{ "time": 139.818, "duration": 0.0625, "pitch": 69, "velocity": 58 },
{ "time": 139.88, "duration": 0.0625, "pitch": 71, "velocity": 58 },
{ "time": 139.943, "duration": 0.0625, "pitch": 73, "velocity": 58 },
{ "time": 140.005, "duration": 0.0625, "pitch": 75, "velocity": 62 },
{ "time": 140.068, "duration": 0.0625, "pitch": 73, "velocity": 58 },
{ "time": 140.13, "duration": 0.0625, "pitch": 71, "velocity": 58 },
{ "time": 140.193, "duration": 0.0625, "pitch": 68, "velocity": 58 },
{ "time": 140.255, "duration": 0.0625, "pitch": 66, "velocity": 60 },
{ "time": 140.318, "duration": 0.0625, "pitch": 64, "velocity": 58 },
{ "time": 140.38, "duration": 0.0625, "pitch": 61, "velocity": 58 },
{ "time": 140.443, "duration": 0.0625, "pitch": 59, "velocity": 58 },
{ "time": 140.505, "duration": 0.0625, "pitch": 61, "velocity": 62 },
{ "time": 140.568, "duration": 0.0625, "pitch": 63, "velocity": 58 },
{ "time": 140.63, "duration": 0.0625, "pitch": 64, "velocity": 58 },
{ "time": 140.693, "duration": 0.0625, "pitch": 66, "velocity": 58 },
{ "time": 140.755, "duration": 0.0625, "pitch": 64, "velocity": 60 },
{ "time": 140.818, "duration": 0.0625, "pitch": 63, "velocity": 58 },
{ "time": 140.88, "duration": 0.0625, "pitch": 61, "velocity": 58 },
{ "time": 140.943, "duration": 0.0625, "pitch": 59, "velocity": 58 },
{ "time": 141.005, "duration": 0.0625, "pitch": 56, "velocity": 67 },
{ "time": 141.068, "duration": 0.0625, "pitch": 54, "velocity": 58 },
{ "time": 141.13, "duration": 0.0625, "pitch": 52, "velocity": 58 },
{ "time": 141.193, "duration": 0.0625, "pitch": 49, "velocity": 58 },
{ "time": 141.255, "duration": 0.0625, "pitch": 49, "velocity": 60 },
{ "time": 141.318, "duration": 0.0625, "pitch": 51, "velocity": 58 },
{ "time": 141.38, "duration": 0.0625, "pitch": 52, "velocity": 58 },
{ "time": 141.443, "duration": 0.0614583, "pitch": 54, "velocity": 58 },
{ "time": 141.504, "duration": 0.0625, "pitch": 56, "velocity": 62 },
{ "time": 141.567, "duration": 0.0625, "pitch": 54, "velocity": 58 },
{ "time": 141.629, "duration": 0.0625, "pitch": 52, "velocity": 58 },
{ "time": 141.692, "duration": 0.0625, "pitch": 51, "velocity": 58 },
{ "time": 141.754, "duration": 0.0625, "pitch": 51, "velocity": 60 },
{ "time": 141.817, "duration": 0.0625, "pitch": 52, "velocity": 58 },
{ "time": 141.879, "duration": 0.0625, "pitch": 54, "velocity": 58 },
{ "time": 141.942, "duration": 0.0635417, "pitch": 56, "velocity": 58 },
{ "time": 142.005, "duration": 0.0625, "pitch": 57, "velocity": 62 },
{ "time": 142.068, "duration": 0.0625, "pitch": 59, "velocity": 58 },
{ "time": 142.13, "duration": 0.0625, "pitch": 61, "velocity": 58 },
{ "time": 142.193, "duration": 0.0625, "pitch": 63, "velocity": 58 },
{ "time": 142.255, "duration": 0.0625, "pitch": 64, "velocity": 60 },
{ "time": 142.318, "duration": 0.0625, "pitch": 63, "velocity": 58 },
{ "time": 142.38, "duration": 0.0625, "pitch": 61, "velocity": 58 },
{ "time": 142.443, "duration": 0.0625, "pitch": 59, "velocity": 58 },
{ "time": 142.505, "duration": 0.0625, "pitch": 61, "velocity": 67 },
{ "time": 142.568, "duration": 0.0625, "pitch": 63, "velocity": 58 },
{ "time": 142.63, "duration": 0.0625, "pitch": 64, "velocity": 58 },
{ "time": 142.693, "duration": 0.0625, "pitch": 66, "velocity": 58 },
{ "time": 142.755, "duration": 0.0625, "pitch": 68, "velocity": 60 },
{ "time": 142.818, "duration": 0.0625, "pitch": 69, "velocity": 58 },
{ "time": 142.88, "duration": 0.0625, "pitch": 71, "velocity": 58 },
{ "time": 142.943, "duration": 0.0625, "pitch": 73, "velocity": 58 },
{ "time": 143.005, "duration": 0.0625, "pitch": 75, "velocity": 62 },
{ "time": 143.068, "duration": 0.0625, "pitch": 76, "velocity": 58 },
{ "time": 143.13, "duration": 0.0625, "pitch": 78, "velocity": 58 },
{ "time": 143.193, "duration": 0.0625, "pitch": 80, "velocity": 58 },
{ "time": 143.255, "duration": 0.0625, "pitch": 81, "velocity": 60 },
{ "time": 143.318, "duration": 0.0625, "pitch": 83, "velocity": 58 },
{ "time": 143.38, "duration": 0.0625, "pitch": 85, "velocity": 58 },
{ "time": 143.443, "duration": 0.0614583, "pitch": 87, "velocity": 58 },
{ "time": 143.504, "duration": 0.0625, "pitch": 88, "velocity": 62 },
{ "time": 143.567, "duration": 0.0625, "pitch": 90, "velocity": 58 },
{ "time": 143.629, "duration": 0.0625, "pitch": 92, "velocity": 58 },
{ "time": 143.692, "duration": 0.0625, "pitch": 93, "velocity": 58 },
{ "time": 143.754, "duration": 0.0625, "pitch": 95, "velocity": 60 },
{ "time": 143.817, "duration": 0.0625, "pitch": 97, "velocity": 58 },
{ "time": 143.879, "duration": 0.0625, "pitch": 99, "velocity": 58 },
{ "time": 143.942, "duration": 0.0635417, "pitch": 100, "velocity": 58 },
{ "time": 144.005, "duration": 0.0625, "pitch": 101, "velocity": 44 },
{ "time": 144.068, "duration": 0.0625, "pitch": 104, "velocity": 39 },
{ "time": 144.13, "duration": 0.0625, "pitch": 102, "velocity": 39 },
{ "time": 144.193, "duration": 0.0625, "pitch": 104, "velocity": 39 },
{ "time": 144.255, "duration": 0.0625, "pitch": 101, "velocity": 40 },
{ "time": 144.318, "duration": 0.0625, "pitch": 104, "velocity": 39 },
{ "time": 144.38, "duration": 0.0625, "pitch": 99, "velocity": 39 },
{ "time": 144.443, "duration": 0.0635417, "pitch": 104, "velocity": 39 },
{ "time": 144.506, "duration": 0.0625, "pitch": 97, "velocity": 41 },
{ "time": 144.569, "duration": 0.0625, "pitch": 101, "velocity": 39 },
{ "time": 144.631, "duration": 0.0625, "pitch": 99, "velocity": 39 },
{ "time": 144.694, "duration": 0.0625, "pitch": 101, "velocity": 39 },
{ "time": 144.756, "duration": 0.0625, "pitch": 97, "velocity": 40 },
{ "time": 144.819, "duration": 0.0625, "pitch": 101, "velocity": 39 },
{ "time": 144.881, "duration": 0.0625, "pitch": 95, "velocity": 39 },
{ "time": 144.944, "duration": 0.0614583, "pitch": 101, "velocity": 39 },
{ "time": 145.005, "duration": 0.0625, "pitch": 94, "velocity": 41 },
{ "time": 145.068, "duration": 0.0625, "pitch": 97, "velocity": 39 },
{ "time": 145.13, "duration": 0.0625, "pitch": 95, "velocity": 39 },
{ "time": 145.193, "duration": 0.0625, "pitch": 97, "velocity": 39 },
{ "time": 145.255, "duration": 0.0625, "pitch": 94, "velocity": 40 },
{ "time": 145.318, "duration": 0.0625, "pitch": 97, "velocity": 39 },
{ "time": 145.38, "duration": 0.0625, "pitch": 92, "velocity": 39 },
{ "time": 145.443, "duration": 0.0625, "pitch": 97, "velocity": 39 },
{ "time": 145.505, "duration": 0.0625, "pitch": 89, "velocity": 44 },
{ "time": 145.568, "duration": 0.0625, "pitch": 92, "velocity": 39 },
{ "time": 145.63, "duration": 0.0625, "pitch": 90, "velocity": 39 },
{ "time": 145.693, "duration": 0.0625, "pitch": 92, "velocity": 39 },
{ "time": 145.755, "duration": 0.0625, "pitch": 89, "velocity": 40 },
{ "time": 145.818, "duration": 0.0625, "pitch": 92, "velocity": 39 },
{ "time": 145.88, "duration": 0.0625, "pitch": 87, "velocity": 39 },
{ "time": 145.943, "duration": 0.0625, "pitch": 92, "velocity": 39 },
{ "time": 146.005, "duration": 0.0625, "pitch": 85, "velocity": 41 },
{ "time": 146.068, "duration": 0.0625, "pitch": 89, "velocity": 39 },
{ "time": 146.13, "duration": 0.0625, "pitch": 87, "velocity": 39 },
{ "time": 146.193, "duration": 0.0625, "pitch": 89, "velocity": 39 },
{ "time": 146.255, "duration": 0.0625, "pitch": 85, "velocity": 40 },
{ "time": 146.318, "duration": 0.0625, "pitch": 89, "velocity": 39 },
{ "time": 146.38, "duration": 0.0625, "pitch": 83, "velocity": 39 },
{ "time": 146.443, "duration": 0.0625, "pitch": 89, "velocity": 39 },
{ "time": 146.505, "duration": 0.0625, "pitch": 82, "velocity": 41 },
{ "time": 146.568, "duration": 0.0625, "pitch": 85, "velocity": 39 },
{ "time": 146.63, "duration": 0.0625, "pitch": 83, "velocity": 39 },
{ "time": 146.693, "duration": 0.0625, "pitch": 85, "velocity": 39 },
{ "time": 146.755, "duration": 0.0625, "pitch": 82, "velocity": 40 },
{ "time": 146.818, "duration": 0.0625, "pitch": 85, "velocity": 39 },
{ "time": 146.88, "duration": 0.0625, "pitch": 80, "velocity": 39 },
{ "time": 146.943, "duration": 0.0625, "pitch": 85, "velocity": 39 },
{ "time": 147.005, "duration": 0.0625, "pitch": 77, "velocity": 44 },
{ "time": 147.068, "duration": 0.0625, "pitch": 80, "velocity": 39 },
{ "time": 147.13, "duration": 0.0625, "pitch": 78, "velocity": 39 },
{ "time": 147.193, "duration": 0.0625, "pitch": 80, "velocity": 39 },
{ "time": 147.255, "duration": 0.0625, "pitch": 77, "velocity": 40 },
{ "time": 147.318, "duration": 0.0625, "pitch": 80, "velocity": 39 },
{ "time": 147.38, "duration": 0.0625, "pitch": 75, "velocity": 39 },
{ "time": 147.443, "duration": 0.0625, "pitch": 80, "velocity": 39 },
{ "time": 147.505, "duration": 0.0625, "pitch": 73, "velocity": 41 },
{ "time": 147.568, "duration": 0.0625, "pitch": 77, "velocity": 39 },
{ "time": 147.63, "duration": 0.0625, "pitch": 75, "velocity": 39 },
{ "time": 147.693, "duration": 0.0625, "pitch": 77, "velocity": 39 },
{ "time": 147.755, "duration": 0.0625, "pitch": 73, "velocity": 40 },
{ "time": 147.818, "duration": 0.0625, "pitch": 77, "velocity": 39 },
{ "time": 147.88, "duration": 0.0625, "pitch": 71, "velocity": 39 },
{ "time": 147.943, "duration": 0.0625, "pitch": 77, "velocity": 39 },
{ "time": 148.005, "duration": 0.0625, "pitch": 70, "velocity": 41 },
{ "time": 148.068, "duration": 0.0625, "pitch": 73, "velocity": 39 },
{ "time": 148.13, "duration": 0.0625, "pitch": 71, "velocity": 39 },
{ "time": 148.193, "duration": 0.0625, "pitch": 73, "velocity": 39 },
{ "time": 148.255, "duration": 0.0625, "pitch": 70, "velocity": 40 },
{ "time": 148.318, "duration": 0.0625, "pitch": 73, "velocity": 39 },
{ "time": 148.38, "duration": 0.0625, "pitch": 68, "velocity": 39 },
{ "time": 148.443, "duration": 0.0625, "pitch": 73, "velocity": 39 },
{ "time": 148.505, "duration": 0.0625, "pitch": 68, "velocity": 44 },
{ "time": 148.568, "duration": 0.0625, "pitch": 66, "velocity": 39 },
{ "time": 148.63, "duration": 0.0625, "pitch": 68, "velocity": 39 },
{ "time": 148.693, "duration": 0.0625, "pitch": 64, "velocity": 39 },
{ "time": 148.755, "duration": 0.0625, "pitch": 68, "velocity": 40 },
{ "time": 148.818, "duration": 0.0625, "pitch": 63, "velocity": 39 },
{ "time": 148.88, "duration": 0.0625, "pitch": 68, "velocity": 39 },
{ "time": 148.943, "duration": 0.0625, "pitch": 61, "velocity": 39 },
{ "time": 149.005, "duration": 0.0625, "pitch": 59, "velocity": 41 },
{ "time": 149.068, "duration": 0.0625, "pitch": 57, "velocity": 39 },
{ "time": 149.13, "duration": 0.0625, "pitch": 59, "velocity": 39 },
{ "time": 149.193, "duration": 0.0625, "pitch": 61, "velocity": 39 },
{ "time": 149.255, "duration": 0.0625, "pitch": 63, "velocity": 40 },
{ "time": 149.318, "duration": 0.0625, "pitch": 61, "velocity": 39 },
{ "time": 149.38, "duration": 0.0625, "pitch": 59, "velocity": 39 },
{ "time": 149.443, "duration": 0.0625, "pitch": 57, "velocity": 39 },
{ "time": 149.505, "duration": 0.0625, "pitch": 59, "velocity": 41 },
{ "time": 149.568, "duration": 0.0625, "pitch": 57, "velocity": 39 },
{ "time": 149.63, "duration": 0.0625, "pitch": 59, "velocity": 35 },
{ "time": 149.693, "duration": 0.0625, "pitch": 61, "velocity": 36 },
{ "time": 149.755, "duration": 0.0625, "pitch": 63, "velocity": 38 },
{ "time": 149.818, "duration": 0.0625, "pitch": 64, "velocity": 40 },
{ "time": 149.88, "duration": 0.0625, "pitch": 63, "velocity": 42 },
{ "time": 149.943, "duration": 0.0625, "pitch": 61, "velocity": 44 },
{ "time": 150.005, "duration": 0.0625, "pitch": 59, "velocity": 46 },
{ "time": 150.068, "duration": 0.0625, "pitch": 57, "velocity": 48 },
{ "time": 150.13, "duration": 0.0625, "pitch": 59, "velocity": 50 },
{ "time": 150.193, "duration": 0.0625, "pitch": 61, "velocity": 52 },
{ "time": 150.255, "duration": 0.0625, "pitch": 63, "velocity": 54 },
{ "time": 150.318, "duration": 0.0625, "pitch": 64, "velocity": 56 },
{ "time": 150.38, "duration": 0.0625, "pitch": 66, "velocity": 57 },
{ "time": 150.443, "duration": 0.0625, "pitch": 68, "velocity": 59 },
{ "time": 150.505, "duration": 0.0625, "pitch": 66, "velocity": 61 },
{ "time": 150.568, "duration": 0.0625, "pitch": 64, "velocity": 63 },
{ "time": 150.63, "duration": 0.0625, "pitch": 63, "velocity": 65 },
{ "time": 150.693, "duration": 0.0625, "pitch": 61, "velocity": 67 },
{ "time": 150.755, "duration": 0.0625, "pitch": 59, "velocity": 69 },
{ "time": 150.818, "duration": 0.0625, "pitch": 57, "velocity": 71 },
{ "time": 150.88, "duration": 0.0625, "pitch": 59, "velocity": 73 },
{ "time": 150.943, "duration": 0.0614583, "pitch": 61, "velocity": 75 },
{ "time": 151.004, "duration": 0.0625, "pitch": 63, "velocity": 77 },
{ "time": 151.067, "duration": 0.0625, "pitch": 64, "velocity": 79 },
{ "time": 151.129, "duration": 0.0625, "pitch": 66, "velocity": 80 },
{ "time": 151.192, "duration": 0.0625, "pitch": 68, "velocity": 87 },
{ "time": 151.254, "duration": 0.0625, "pitch": 69, "velocity": 90 },
{ "time": 151.317, "duration": 0.0625, "pitch": 71, "velocity": 87 },
{ "time": 151.379, "duration": 0.0625, "pitch": 73, "velocity": 87 },
{ "time": 151.442, "duration": 0.0635417, "pitch": 75, "velocity": 87 },
{ "time": 151.505, "duration": 0.0625, "pitch": 73, "velocity": 100 },
{ "time": 151.568, "duration": 0.0625, "pitch": 71, "velocity": 87 },
{ "time": 151.63, "duration": 0.0625, "pitch": 69, "velocity": 87 },
{ "time": 151.693, "duration": 0.0625, "pitch": 68, "velocity": 87 },
{ "time": 151.755, "duration": 0.0625, "pitch": 69, "velocity": 90 },
{ "time": 151.818, "duration": 0.0625, "pitch": 71, "velocity": 87 },
{ "time": 151.88, "duration": 0.0625, "pitch": 73, "velocity": 87 },
{ "time": 151.943, "duration": 0.0625, "pitch": 75, "velocity": 87 },
{ "time": 152.005, "duration": 0.0625, "pitch": 76, "velocity": 93 },
{ "time": 152.068, "duration": 0.0625, "pitch": 78, "velocity": 87 },
{ "time": 152.13, "duration": 0.0625, "pitch": 80, "velocity": 87 },
{ "time": 152.193, "duration": 0.0625, "pitch": 78, "velocity": 87 },
{ "time": 152.255, "duration": 0.0625, "pitch": 76, "velocity": 90 },
{ "time": 152.318, "duration": 0.0625, "pitch": 75, "velocity": 87 },
{ "time": 152.38, "duration": 0.0625, "pitch": 73, "velocity": 87 },
{ "time": 152.443, "duration": 0.0614583, "pitch": 71, "velocity": 87 },
{ "time": 152.504, "duration": 0.0625, "pitch": 69, "velocity": 93 },
{ "time": 152.567, "duration": 0.0625, "pitch": 71, "velocity": 83 },
{ "time": 152.629, "duration": 0.0625, "pitch": 73, "velocity": 81 },
{ "time": 152.692, "duration": 0.0625, "pitch": 75, "velocity": 79 },
{ "time": 152.754, "duration": 0.0625, "pitch": 76, "velocity": 76 },
{ "time": 152.817, "duration": 0.0625, "pitch": 78, "velocity": 74 },
{ "time": 152.879, "duration": 0.0625, "pitch": 80, "velocity": 72 },
{ "time": 152.942, "duration": 0.0635417, "pitch": 81, "velocity": 69 },
{ "time": 153.005, "duration": 0.03125, "pitch": 83, "velocity": 67 },
{ "time": 153.036, "duration": 0.03125, "pitch": 85, "velocity": 66 },
{ "time": 153.068, "duration": 0.03125, "pitch": 83, "velocity": 66 },
{ "time": 153.099, "duration": 0.03125, "pitch": 85, "velocity": 66 },
{ "time": 153.13, "duration": 0.03125, "pitch": 83, "velocity": 66 },
{ "time": 153.161, "duration": 0.03125, "pitch": 85, "velocity": 66 },
{ "time": 153.193, "duration": 0.03125, "pitch": 83, "velocity": 66 },
{ "time": 153.224, "duration": 0.03125, "pitch": 85, "velocity": 66 },
{ "time": 153.255, "duration": 0.03125, "pitch": 83, "velocity": 66 },
{ "time": 153.286, "duration": 0.03125, "pitch": 85, "velocity": 66 },
{ "time": 153.318, "duration": 0.03125, "pitch": 83, "velocity": 66 },
{ "time": 153.349, "duration": 0.03125, "pitch": 85, "velocity": 65 },
{ "time": 153.38, "duration": 0.03125, "pitch": 83, "velocity": 65 },
{ "time": 153.411, "duration": 0.03125, "pitch": 85, "velocity": 65 },
{ "time": 153.443, "duration": 0.03125, "pitch": 83, "velocity": 65 },
{ "time": 153.474, "duration": 0.03125, "pitch": 85, "velocity": 65 },
{ "time": 153.505, "duration": 0.03125, "pitch": 83, "velocity": 65 },
{ "time": 153.536, "duration": 0.03125, "pitch": 85, "velocity": 65 },
{ "time": 153.568, "duration": 0.03125, "pitch": 83, "velocity": 65 },
{ "time": 153.599, "duration": 0.03125, "pitch": 85, "velocity": 65 },
{ "time": 153.63, "duration": 0.03125, "pitch": 83, "velocity": 65 },
{ "time": 153.661, "duration": 0.03125, "pitch": 85, "velocity": 64 },
{ "time": 153.693, "duration": 0.03125, "pitch": 83, "velocity": 64 },
{ "time": 153.724, "duration": 0.03125, "pitch": 85, "velocity": 64 },
{ "time": 153.755, "duration": 0.03125, "pitch": 83, "velocity": 64 },
{ "time": 153.786, "duration": 0.03125, "pitch": 85, "velocity": 64 },
{ "time": 153.818, "duration": 0.03125, "pitch": 83, "velocity": 64 },
{ "time": 153.849, "duration": 0.03125, "pitch": 85, "velocity": 64 },
{ "time": 153.88, "duration": 0.03125, "pitch": 83, "velocity": 64 },
{ "time": 153.911, "duration": 0.03125, "pitch": 85, "velocity": 64 },
{ "time": 153.943, "duration": 0.03125, "pitch": 83, "velocity": 64 },
{ "time": 153.974, "duration": 0.03125, "pitch": 85, "velocity": 63 },
{ "time": 154.005, "duration": 0.03125, "pitch": 83, "velocity": 63 },
{ "time": 154.036, "duration": 0.03125, "pitch": 85, "velocity": 63 },
{ "time": 154.068, "duration": 0.03125, "pitch": 83, "velocity": 63 },
{ "time": 154.099, "duration": 0.03125, "pitch": 85, "velocity": 63 },
{ "time": 154.13, "duration": 0.03125, "pitch": 83, "velocity": 63 },
{ "time": 154.161, "duration": 0.03125, "pitch": 85, "velocity": 63 },
{ "time": 154.193, "duration": 0.03125, "pitch": 83, "velocity": 63 },
{ "time": 154.224, "duration": 0.03125, "pitch": 85, "velocity": 63 },
{ "time": 154.255, "duration": 0.03125, "pitch": 83, "velocity": 63 },
{ "time": 154.286, "duration": 0.03125, "pitch": 85, "velocity": 63 },
{ "time": 154.318, "duration": 0.03125, "pitch": 83, "velocity": 62 },
{ "time": 154.349, "duration": 0.03125, "pitch": 85, "velocity": 62 },
{ "time": 154.38, "duration": 0.03125, "pitch": 83, "velocity": 62 },
{ "time": 154.411, "duration": 0.03125, "pitch": 85, "velocity": 62 },
{ "time": 154.443, "duration": 0.03125, "pitch": 83, "velocity": 62 },
{ "time": 154.474, "duration": 0.03125, "pitch": 85, "velocity": 62 },
{ "time": 154.505, "duration": 0.03125, "pitch": 83, "velocity": 62 },
{ "time": 154.536, "duration": 0.03125, "pitch": 85, "velocity": 62 },
{ "time": 154.568, "duration": 0.03125, "pitch": 83, "velocity": 62 },
{ "time": 154.599, "duration": 0.03125, "pitch": 85, "velocity": 62 },
{ "time": 154.63, "duration": 0.03125, "pitch": 83, "velocity": 61 },
{ "time": 154.661, "duration": 0.03125, "pitch": 85, "velocity": 61 },
{ "time": 154.693, "duration": 0.03125, "pitch": 83, "velocity": 61 },
{ "time": 154.724, "duration": 0.03125, "pitch": 85, "velocity": 61 },
{ "time": 154.755, "duration": 0.03125, "pitch": 83, "velocity": 61 },
{ "time": 154.786, "duration": 0.03125, "pitch": 85, "velocity": 61 },
{ "time": 154.818, "duration": 0.03125, "pitch": 83, "velocity": 61 },
{ "time": 154.849, "duration": 0.03125, "pitch": 85, "velocity": 61 },
{ "time": 154.88, "duration": 0.03125, "pitch": 83, "velocity": 61 },
{ "time": 154.911, "duration": 0.03125, "pitch": 85, "velocity": 61 },
{ "time": 154.943, "duration": 0.03125, "pitch": 83, "velocity": 60 },
{ "time": 154.974, "duration": 0.03125, "pitch": 85, "velocity": 60 },
{ "time": 155.005, "duration": 0.03125, "pitch": 83, "velocity": 60 },
{ "time": 155.036, "duration": 0.03125, "pitch": 85, "velocity": 60 },
{ "time": 155.068, "duration": 0.03125, "pitch": 83, "velocity": 60 },
{ "time": 155.099, "duration": 0.03125, "pitch": 85, "velocity": 60 },
{ "time": 155.13, "duration": 0.03125, "pitch": 83, "velocity": 60 },
{ "time": 155.161, "duration": 0.03125, "pitch": 85, "velocity": 60 },
{ "time": 155.193, "duration": 0.03125, "pitch": 83, "velocity": 60 },
{ "time": 155.224, "duration": 0.03125, "pitch": 85, "velocity": 60 },
{ "time": 155.255, "duration": 0.03125, "pitch": 83, "velocity": 60 },
{ "time": 155.286, "duration": 0.03125, "pitch": 85, "velocity": 59 },
{ "time": 155.318, "duration": 0.03125, "pitch": 83, "velocity": 59 },
{ "time": 155.349, "duration": 0.03125, "pitch": 85, "velocity": 59 },
{ "time": 155.38, "duration": 0.03125, "pitch": 83, "velocity": 59 },
{ "time": 155.411, "duration": 0.03125, "pitch": 85, "velocity": 59 },
{ "time": 155.443, "duration": 0.03125, "pitch": 83, "velocity": 59 },
{ "time": 155.474, "duration": 0.03125, "pitch": 85, "velocity": 59 },
{ "time": 155.505, "duration": 0.03125, "pitch": 83, "velocity": 59 },
{ "time": 155.536, "duration": 0.03125, "pitch": 85, "velocity": 59 },
{ "time": 155.568, "duration": 0.03125, "pitch": 83, "velocity": 59 },
{ "time": 155.599, "duration": 0.03125, "pitch": 85, "velocity": 58 },
{ "time": 155.63, "duration": 0.03125, "pitch": 83, "velocity": 58 },
{ "time": 155.661, "duration": 0.03125, "pitch": 85, "velocity": 58 },
{ "time": 155.693, "duration": 0.03125, "pitch": 83, "velocity": 58 },
{ "time": 155.724, "duration": 0.03125, "pitch": 85, "velocity": 58 },
{ "time": 155.755, "duration": 0.03125, "pitch": 83, "velocity": 58 },
{ "time": 155.786, "duration": 0.03125, "pitch": 85, "velocity": 58 },
{ "time": 155.818, "duration": 0.03125, "pitch": 83, "velocity": 58 },
{ "time": 155.849, "duration": 0.03125, "pitch": 85, "velocity": 58 },
{ "time": 155.88, "duration": 0.03125, "pitch": 83, "velocity": 58 },
{ "time": 155.911, "duration": 0.03125, "pitch": 85, "velocity": 57 },
{ "time": 155.943, "duration": 0.03125, "pitch": 83, "velocity": 57 },
{ "time": 155.974, "duration": 0.03125, "pitch": 85, "velocity": 57 },
{ "time": 156.005, "duration": 0.03125, "pitch": 83, "velocity": 57 },
{ "time": 156.036, "duration": 0.03125, "pitch": 85, "velocity": 57 },
{ "time": 156.068, "duration": 0.03125, "pitch": 83, "velocity": 57 },
{ "time": 156.099, "duration": 0.03125, "pitch": 85, "velocity": 57 },
{ "time": 156.13, "duration": 0.03125, "pitch": 83, "velocity": 57 },
{ "time": 156.161, "duration": 0.03125, "pitch": 85, "velocity": 57 },
{ "time": 156.193, "duration": 0.03125, "pitch": 83, "velocity": 57 },
{ "time": 156.224, "duration": 0.03125, "pitch": 85, "velocity": 56 },
{ "time": 156.255, "duration": 0.03125, "pitch": 83, "velocity": 56 },
{ "time": 156.286, "duration": 0.03125, "pitch": 85, "velocity": 56 },
{ "time": 156.318, "duration": 0.03125, "pitch": 83, "velocity": 56 },
{ "time": 156.349, "duration": 0.03125, "pitch": 85, "velocity": 56 },
{ "time": 156.38, "duration": 0.03125, "pitch": 83, "velocity": 56 },
{ "time": 156.411, "duration": 0.03125, "pitch": 85, "velocity": 56 },
{ "time": 156.443, "duration": 0.03125, "pitch": 83, "velocity": 56 },
{ "time": 156.474, "duration": 0.03125, "pitch": 85, "velocity": 56 },
{ "time": 156.505, "duration": 0.03125, "pitch": 83, "velocity": 56 },
{ "time": 156.536, "duration": 0.03125, "pitch": 85, "velocity": 56 },
{ "time": 156.568, "duration": 0.03125, "pitch": 83, "velocity": 55 },
{ "time": 156.599, "duration": 0.03125, "pitch": 85, "velocity": 55 },
{ "time": 156.63, "duration": 0.03125, "pitch": 83, "velocity": 55 },
{ "time": 156.661, "duration": 0.03125, "pitch": 85, "velocity": 55 },
{ "time": 156.693, "duration": 0.03125, "pitch": 83, "velocity": 55 },
{ "time": 156.724, "duration": 0.03125, "pitch": 85, "velocity": 55 },
{ "time": 156.755, "duration": 0.03125, "pitch": 83, "velocity": 55 },
{ "time": 156.786, "duration": 0.03125, "pitch": 85, "velocity": 55 },
{ "time": 156.818, "duration": 0.03125, "pitch": 83, "velocity": 55 },
{ "time": 156.849, "duration": 0.03125, "pitch": 85, "velocity": 55 },
{ "time": 156.88, "duration": 0.03125, "pitch": 83, "velocity": 54 },
{ "time": 156.911, "duration": 0.03125, "pitch": 85, "velocity": 54 },
{ "time": 156.943, "duration": 0.03125, "pitch": 83, "velocity": 54 },
{ "time": 156.974, "duration": 0.03125, "pitch": 85, "velocity": 54 },
{ "time": 157.005, "duration": 0.03125, "pitch": 83, "velocity": 54 },
{ "time": 157.036, "duration": 0.03125, "pitch": 85, "velocity": 54 },
{ "time": 157.068, "duration": 0.03125, "pitch": 83, "velocity": 54 },
{ "time": 157.099, "duration": 0.03125, "pitch": 85, "velocity": 54 },
{ "time": 157.13, "duration": 0.03125, "pitch": 83, "velocity": 54 },
{ "time": 157.161, "duration": 0.03125, "pitch": 85, "velocity": 54 },
{ "time": 157.193, "duration": 0.03125, "pitch": 83, "velocity": 53 },
{ "time": 157.224, "duration": 0.03125, "pitch": 85, "velocity": 53 },
{ "time": 157.255, "duration": 0.03125, "pitch": 83, "velocity": 53 },
{ "time": 157.286, "duration": 0.03125, "pitch": 85, "velocity": 53 },
{ "time": 157.318, "duration": 0.03125, "pitch": 83, "velocity": 53 },
{ "time": 157.349, "duration": 0.03125, "pitch": 85, "velocity": 53 },
{ "time": 157.38, "duration": 0.03125, "pitch": 83, "velocity": 53 },
{ "time": 157.411, "duration": 0.03125, "pitch": 85, "velocity": 53 },
{ "time": 157.443, "duration": 0.03125, "pitch": 83, "velocity": 53 },
{ "time": 157.474, "duration": 0.03125, "pitch": 85, "velocity": 53 },
{ "time": 157.505, "duration": 0.03125, "pitch": 83, "velocity": 53 },
{ "time": 157.536, "duration": 0.03125, "pitch": 85, "velocity": 52 },
{ "time": 157.568, "duration": 0.03125, "pitch": 83, "velocity": 52 },
{ "time": 157.599, "duration": 0.03125, "pitch": 85, "velocity": 52 },
{ "time": 157.63, "duration": 0.03125, "pitch": 83, "velocity": 52 },
{ "time": 157.661, "duration": 0.03125, "pitch": 85, "velocity": 52 },
{ "time": 157.693, "duration": 0.03125, "pitch": 83, "velocity": 52 },
{ "time": 157.724, "duration": 0.03125, "pitch": 85, "velocity": 52 },
{ "time": 157.755, "duration": 0.03125, "pitch": 83, "velocity": 52 },
{ "time": 157.786, "duration": 0.03125, "pitch": 85, "velocity": 52 },
{ "time": 157.818, "duration": 0.03125, "pitch": 83, "velocity": 52 },
{ "time": 157.849, "duration": 0.03125, "pitch": 85, "velocity": 51 },
{ "time": 157.88, "duration": 0.03125, "pitch": 83, "velocity": 51 },
{ "time": 157.911, "duration": 0.03125, "pitch": 85, "velocity": 51 },
{ "time": 157.943, "duration": 0.03125, "pitch": 83, "velocity": 51 },
{ "time": 157.974, "duration": 0.03125, "pitch": 85, "velocity": 51 },
{ "time": 158.005, "duration": 0.03125, "pitch": 83, "velocity": 51 },
{ "time": 158.036, "duration": 0.03125, "pitch": 85, "velocity": 51 },
{ "time": 158.068, "duration": 0.03125, "pitch": 83, "velocity": 51 },
{ "time": 158.099, "duration": 0.03125, "pitch": 85, "velocity": 51 },
{ "time": 158.13, "duration": 0.03125, "pitch": 83, "velocity": 51 },
{ "time": 158.161, "duration": 0.03125, "pitch": 85, "velocity": 50 },
{ "time": 158.193, "duration": 0.03125, "pitch": 83, "velocity": 50 },
{ "time": 158.224, "duration": 0.03125, "pitch": 85, "velocity": 50 },
{ "time": 158.255, "duration": 0.03125, "pitch": 83, "velocity": 50 },
{ "time": 158.286, "duration": 0.03125, "pitch": 85, "velocity": 50 },
{ "time": 158.318, "duration": 0.03125, "pitch": 83, "velocity": 50 },
{ "time": 158.349, "duration": 0.03125, "pitch": 85, "velocity": 50 },
{ "time": 158.38, "duration": 0.03125, "pitch": 83, "velocity": 50 },
{ "time": 158.411, "duration": 0.03125, "pitch": 85, "velocity": 50 },
{ "time": 158.443, "duration": 0.03125, "pitch": 83, "velocity": 50 },
{ "time": 158.474, "duration": 0.03125, "pitch": 85, "velocity": 50 },
{ "time": 158.505, "duration": 0.03125, "pitch": 83, "velocity": 49 },
{ "time": 158.536, "duration": 0.03125, "pitch": 85, "velocity": 49 },
{ "time": 158.568, "duration": 0.03125, "pitch": 83, "velocity": 49 },
{ "time": 158.599, "duration": 0.03125, "pitch": 85, "velocity": 49 },
{ "time": 158.63, "duration": 0.03125, "pitch": 83, "velocity": 49 },
{ "time": 158.661, "duration": 0.03125, "pitch": 85, "velocity": 49 },
{ "time": 158.693, "duration": 0.03125, "pitch": 83, "velocity": 49 },
{ "time": 158.724, "duration": 0.03125, "pitch": 85, "velocity": 49 },
{ "time": 158.755, "duration": 0.03125, "pitch": 83, "velocity": 49 },
{ "time": 158.786, "duration": 0.03125, "pitch": 85, "velocity": 49 },
{ "time": 158.818, "duration": 0.03125, "pitch": 83, "velocity": 48 },
{ "time": 158.849, "duration": 0.03125, "pitch": 85, "velocity": 48 },
{ "time": 158.88, "duration": 0.03125, "pitch": 83, "velocity": 48 },
{ "time": 158.911, "duration": 0.03125, "pitch": 85, "velocity": 48 },
{ "time": 158.943, "duration": 0.03125, "pitch": 83, "velocity": 48 },
{ "time": 158.974, "duration": 0.03125, "pitch": 85, "velocity": 48 },
{ "time": 159.005, "duration": 0.03125, "pitch": 83, "velocity": 48 },
{ "time": 159.036, "duration": 0.03125, "pitch": 85, "velocity": 48 },
{ "time": 159.068, "duration": 0.03125, "pitch": 83, "velocity": 48 },
{ "time": 159.099, "duration": 0.03125, "pitch": 85, "velocity": 48 },
{ "time": 159.13, "duration": 0.03125, "pitch": 83, "velocity": 47 },
{ "time": 159.161, "duration": 0.03125, "pitch": 85, "velocity": 55 },
{ "time": 159.193, "duration": 0.03125, "pitch": 83, "velocity": 55 },
{ "time": 159.224, "duration": 0.03125, "pitch": 85, "velocity": 55 },
{ "time": 159.255, "duration": 0.03125, "pitch": 83, "velocity": 55 },
{ "time": 159.286, "duration": 0.03125, "pitch": 85, "velocity": 55 },
{ "time": 159.318, "duration": 0.03125, "pitch": 83, "velocity": 55 },
{ "time": 159.349, "duration": 0.03125, "pitch": 85, "velocity": 56 },
{ "time": 159.38, "duration": 0.03125, "pitch": 83, "velocity": 56 },
{ "time": 159.411, "duration": 0.03125, "pitch": 85, "velocity": 56 },
{ "time": 159.443, "duration": 0.03125, "pitch": 83, "velocity": 56 },
{ "time": 159.474, "duration": 0.03125, "pitch": 85, "velocity": 56 },
{ "time": 159.505, "duration": 0.03125, "pitch": 83, "velocity": 56 },
{ "time": 159.536, "duration": 0.03125, "pitch": 85, "velocity": 56 },
{ "time": 159.568, "duration": 0.03125, "pitch": 83, "velocity": 56 },
{ "time": 159.599, "duration": 0.03125, "pitch": 85, "velocity": 56 },
{ "time": 159.63, "duration": 0.03125, "pitch": 83, "velocity": 56 },
{ "time": 159.661, "duration": 0.03125, "pitch": 85, "velocity": 56 },
{ "time": 159.693, "duration": 0.03125, "pitch": 83, "velocity": 56 },
{ "time": 159.724, "duration": 0.03125, "pitch": 85, "velocity": 56 },
{ "time": 159.755, "duration": 0.03125, "pitch": 83, "velocity": 56 },
{ "time": 159.786, "duration": 0.03125, "pitch": 85, "velocity": 56 },
{ "time": 159.818, "duration": 0.03125, "pitch": 83, "velocity": 56 },
{ "time": 159.849, "duration": 0.03125, "pitch": 85, "velocity": 56 },
{ "time": 159.88, "duration": 0.03125, "pitch": 83, "velocity": 57 },
{ "time": 159.911, "duration": 0.03125, "pitch": 85, "velocity": 57 },
{ "time": 159.943, "duration": 0.03125, "pitch": 83, "velocity": 57 },
{ "time": 159.974, "duration": 0.03125, "pitch": 85, "velocity": 57 },
{ "time": 160.005, "duration": 0.03125, "pitch": 83, "velocity": 57 },
{ "time": 160.036, "duration": 0.03125, "pitch": 85, "velocity": 57 },
{ "time": 160.068, "duration": 0.03125, "pitch": 83, "velocity": 57 },
{ "time": 160.099, "duration": 0.03125, "pitch": 85, "velocity": 57 },
{ "time": 160.13, "duration": 0.03125, "pitch": 83, "velocity": 57 },
{ "time": 160.161, "duration": 0.03125, "pitch": 85, "velocity": 57 },
{ "time": 160.193, "duration": 0.03125, "pitch": 83, "velocity": 57 },
{ "time": 160.224, "duration": 0.03125, "pitch": 85, "velocity": 57 },
{ "time": 160.255, "duration": 0.03125, "pitch": 83, "velocity": 57 },
{ "time": 160.286, "duration": 0.03125, "pitch": 85, "velocity": 57 },
{ "time": 160.318, "duration": 0.03125, "pitch": 83, "velocity": 57 },
{ "time": 160.349, "duration": 0.03125, "pitch": 85, "velocity": 57 },
{ "time": 160.38, "duration": 0.125, "pitch": 83, "velocity": 57 },
{ "time": 160.505, "duration": 1, "pitch": 83, "velocity": 60 },
{ "time": 0.00520833, "duration": 0.25, "pitch": 40, "velocity": 67 },
{ "time": 0.255208, "duration": 0.25, "pitch": 64, "velocity": 60 },
{ "time": 0.255208, "duration": 0.25, "pitch": 56, "velocity": 60 },
{ "time": 0.505208, "duration": 0.25, "pitch": 64, "velocity": 62 },
{ "time": 0.505208, "duration": 0.25, "pitch": 56, "velocity": 62 },
{ "time": 0.755208, "duration": 0.25, "pitch": 40, "velocity": 60 },
{ "time": 1.00521, "duration": 0.25, "pitch": 56, "velocity": 62 },
{ "time": 1.00521, "duration": 0.25, "pitch": 64, "velocity": 62 },
{ "time": 1.25521, "duration": 0.25, "pitch": 64, "velocity": 60 },
{ "time": 1.25521, "duration": 0.25, "pitch": 56, "velocity": 60 },
{ "time": 1.50521, "duration": 0.25, "pitch": 40, "velocity": 73 },
{ "time": 1.75521, "duration": 0.251042, "pitch": 64, "velocity": 61 },
{ "time": 1.75521, "duration": 0.251042, "pitch": 56, "velocity": 61 },
{ "time": 2.00625, "duration": 0.25, "pitch": 64, "velocity": 65 },
{ "time": 2.00625, "duration": 0.25, "pitch": 56, "velocity": 65 },
{ "time": 2.25625, "duration": 0.25, "pitch": 40, "velocity": 61 },
{ "time": 2.50625, "duration": 0.25, "pitch": 64, "velocity": 65 },
{ "time": 2.50625, "duration": 0.25, "pitch": 56, "velocity": 65 },
{ "time": 2.75625, "duration": 0.25, "pitch": 64, "velocity": 61 },
{ "time": 2.75625, "duration": 0.25, "pitch": 56, "velocity": 61 },
{ "time": 3.00625, "duration": 0.25, "pitch": 40, "velocity": 73 },
{ "time": 3.25625, "duration": 0.248958, "pitch": 64, "velocity": 61 },
{ "time": 3.25625, "duration": 0.248958, "pitch": 56, "velocity": 61 },
{ "time": 3.50521, "duration": 0.25, "pitch": 63, "velocity": 65 },
{ "time": 3.50521, "duration": 0.25, "pitch": 56, "velocity": 65 },
{ "time": 3.75521, "duration": 0.25, "pitch": 40, "velocity": 61 },
{ "time": 4.00521, "duration": 0.25, "pitch": 61, "velocity": 65 },
{ "time": 4.00521, "duration": 0.25, "pitch": 56, "velocity": 65 },
{ "time": 4.25521, "duration": 0.25, "pitch": 56, "velocity": 61 },
{ "time": 4.25521, "duration": 0.25, "pitch": 61, "velocity": 61 },
{ "time": 4.50521, "duration": 0.25, "pitch": 44, "velocity": 73 },
{ "time": 4.75521, "duration": 0.25, "pitch": 59, "velocity": 61 },
{ "time": 4.75521, "duration": 0.25, "pitch": 63, "velocity": 61 },
{ "time": 5.00521, "duration": 0.25, "pitch": 59, "velocity": 65 },
{ "time": 5.00521, "duration": 0.25, "pitch": 63, "velocity": 65 },
{ "time": 5.25521, "duration": 0.251042, "pitch": 44, "velocity": 61 },
{ "time": 5.50625, "duration": 0.25, "pitch": 63, "velocity": 65 },
{ "time": 5.50625, "duration": 0.25, "pitch": 59, "velocity": 65 },
{ "time": 5.75625, "duration": 0.25, "pitch": 63, "velocity": 61 },
{ "time": 5.75625, "duration": 0.25, "pitch": 59, "velocity": 61 },
{ "time": 6.00625, "duration": 0.25, "pitch": 44, "velocity": 73 },
{ "time": 6.25625, "duration": 0.25, "pitch": 63, "velocity": 61 },
{ "time": 6.25625, "duration": 0.25, "pitch": 59, "velocity": 61 },
{ "time": 6.50625, "duration": 0.25, "pitch": 63, "velocity": 65 },
{ "time": 6.50625, "duration": 0.25, "pitch": 59, "velocity": 65 },
{ "time": 6.75625, "duration": 0.25, "pitch": 56, "velocity": 61 },
{ "time": 7.00625, "duration": 0.25, "pitch": 63, "velocity": 65 },
{ "time": 7.00625, "duration": 0.25, "pitch": 59, "velocity": 65 },
{ "time": 7.25625, "duration": 0.248958, "pitch": 63, "velocity": 61 },
{ "time": 7.25625, "duration": 0.248958, "pitch": 59, "velocity": 61 },
{ "time": 7.50521, "duration": 0.25, "pitch": 56, "velocity": 73 },
{ "time": 7.75521, "duration": 0.25, "pitch": 57, "velocity": 61 },
{ "time": 7.75521, "duration": 0.25, "pitch": 64, "velocity": 61 },
{ "time": 8.00521, "duration": 0.25, "pitch": 57, "velocity": 65 },
{ "time": 8.00521, "duration": 0.25, "pitch": 64, "velocity": 65 },
{ "time": 8.25521, "duration": 0.25, "pitch": 56, "velocity": 61 },
{ "time": 8.50521, "duration": 0.25, "pitch": 57, "velocity": 65 },
{ "time": 8.50521, "duration": 0.25, "pitch": 64, "velocity": 65 },
{ "time": 8.75521, "duration": 0.25, "pitch": 57, "velocity": 61 },
{ "time": 8.75521, "duration": 0.25, "pitch": 64, "velocity": 61 },
{ "time": 9.00521, "duration": 0.25, "pitch": 54, "velocity": 73 },
{ "time": 9.25521, "duration": 0.25, "pitch": 64, "velocity": 61 },
{ "time": 9.25521, "duration": 0.25, "pitch": 57, "velocity": 61 },
{ "time": 9.50521, "duration": 0.25, "pitch": 64, "velocity": 65 },
{ "time": 9.50521, "duration": 0.25, "pitch": 57, "velocity": 65 },
{ "time": 9.75521, "duration": 0.251042, "pitch": 54, "velocity": 61 },
{ "time": 10.0062, "duration": 0.25, "pitch": 64, "velocity": 65 },
{ "time": 10.0062, "duration": 0.25, "pitch": 57, "velocity": 65 },
{ "time": 10.2562, "duration": 0.25, "pitch": 63, "velocity": 61 },
{ "time": 10.2562, "duration": 0.25, "pitch": 57, "velocity": 61 },
{ "time": 10.5062, "duration": 0.25, "pitch": 52, "velocity": 73 },
{ "time": 10.7562, "duration": 0.25, "pitch": 63, "velocity": 61 },
{ "time": 10.7562, "duration": 0.25, "pitch": 57, "velocity": 61 },
{ "time": 11.0062, "duration": 0.25, "pitch": 63, "velocity": 65 },
{ "time": 11.0062, "duration": 0.25, "pitch": 57, "velocity": 65 },
{ "time": 11.2562, "duration": 0.248958, "pitch": 52, "velocity": 61 },
{ "time": 11.5052, "duration": 0.25, "pitch": 61, "velocity": 65 },
{ "time": 11.5052, "duration": 0.25, "pitch": 57, "velocity": 65 },
{ "time": 11.7552, "duration": 0.251042, "pitch": 61, "velocity": 61 },
{ "time": 11.7552, "duration": 0.251042, "pitch": 57, "velocity": 61 },
{ "time": 12.0062, "duration": 0.25, "pitch": 51, "velocity": 73 },
{ "time": 12.2562, "duration": 0.248958, "pitch": 61, "velocity": 61 },
{ "time": 12.2562, "duration": 0.248958, "pitch": 57, "velocity": 61 },
{ "time": 12.5052, "duration": 0.25, "pitch": 61, "velocity": 67 },
{ "time": 12.5052, "duration": 0.25, "pitch": 57, "velocity": 67 },
{ "time": 12.7552, "duration": 0.25, "pitch": 51, "velocity": 65 },
{ "time": 13.0052, "duration": 0.25, "pitch": 61, "velocity": 69 },
{ "time": 13.0052, "duration": 0.25, "pitch": 56, "velocity": 69 },
{ "time": 13.2552, "duration": 0.251042, "pitch": 56, "velocity": 67 },
{ "time": 13.2552, "duration": 0.251042, "pitch": 59, "velocity": 67 },
{ "time": 13.5062, "duration": 0.25, "pitch": 49, "velocity": 81 },
{ "time": 13.7562, "duration": 0.25, "pitch": 56, "velocity": 69 },
{ "time": 13.7562, "duration": 0.25, "pitch": 59, "velocity": 69 },
{ "time": 14.0062, "duration": 0.25, "pitch": 56, "velocity": 75 },
{ "time": 14.0062, "duration": 0.25, "pitch": 59, "velocity": 75 },
{ "time": 14.2562, "duration": 0.25, "pitch": 49, "velocity": 73 },
{ "time": 14.5062, "duration": 0.25, "pitch": 56, "velocity": 77 },
{ "time": 14.5062, "duration": 0.25, "pitch": 52, "velocity": 77 },
{ "time": 14.7562, "duration": 0.25, "pitch": 52, "velocity": 75 },
{ "time": 14.7562, "duration": 0.25, "pitch": 56, "velocity": 75 },
{ "time": 15.0062, "duration": 0.25, "pitch": 47, "velocity": 89 },
{ "time": 15.2562, "duration": 0.248958, "pitch": 56, "velocity": 77 },
{ "time": 15.2562, "duration": 0.248958, "pitch": 52, "velocity": 77 },
{ "time": 15.5052, "duration": 0.25, "pitch": 57, "velocity": 83 },
{ "time": 15.5052, "duration": 0.25, "pitch": 52, "velocity": 83 },
{ "time": 15.7552, "duration": 0.251042, "pitch": 45, "velocity": 79 },
{ "time": 16.0063, "duration": 0.25, "pitch": 52, "velocity": 65 },
{ "time": 16.0063, "duration": 0.25, "pitch": 59, "velocity": 65 },
{ "time": 16.2563, "duration": 0.25, "pitch": 52, "velocity": 80 },
{ "time": 16.2563, "duration": 0.25, "pitch": 59, "velocity": 80 },
{ "time": 16.5063, "duration": 0.25, "pitch": 44, "velocity": 67 },
{ "time": 16.7563, "duration": 0.25, "pitch": 52, "velocity": 60 },
{ "time": 16.7563, "duration": 0.25, "pitch": 57, "velocity": 60 },
{ "time": 17.0063, "duration": 0.25, "pitch": 54, "velocity": 62 },
{ "time": 17.0063, "duration": 0.25, "pitch": 59, "velocity": 62 },
{ "time": 17.2563, "duration": 0.248958, "pitch": 42, "velocity": 60 },
{ "time": 17.5052, "duration": 0.25, "pitch": 61, "velocity": 62 },
{ "time": 17.5052, "duration": 0.25, "pitch": 52, "velocity": 62 },
{ "time": 17.7552, "duration": 0.25, "pitch": 61, "velocity": 60 },
{ "time": 17.7552, "duration": 0.25, "pitch": 52, "velocity": 60 },
{ "time": 18.0052, "duration": 0.25, "pitch": 40, "velocity": 67 },
{ "time": 18.2552, "duration": 0.251042, "pitch": 63, "velocity": 60 },
{ "time": 18.2552, "duration": 0.251042, "pitch": 57, "velocity": 60 },
{ "time": 18.5063, "duration": 0.25, "pitch": 61, "velocity": 62 },
{ "time": 18.5063, "duration": 0.25, "pitch": 57, "velocity": 62 },
{ "time": 18.7563, "duration": 0.248958, "pitch": 52, "velocity": 60 },
{ "time": 19.0052, "duration": 0.25, "pitch": 59, "velocity": 62 },
{ "time": 19.0052, "duration": 0.25, "pitch": 57, "velocity": 62 },
{ "time": 19.2552, "duration": 0.25, "pitch": 59, "velocity": 60 },
{ "time": 19.2552, "duration": 0.25, "pitch": 57, "velocity": 60 },
{ "time": 19.5052, "duration": 0.25, "pitch": 39, "velocity": 67 },
{ "time": 19.7552, "duration": 0.25, "pitch": 61, "velocity": 60 },
{ "time": 19.7552, "duration": 0.25, "pitch": 52, "velocity": 60 },
{ "time": 20.0052, "duration": 0.25, "pitch": 59, "velocity": 62 },
{ "time": 20.0052, "duration": 0.25, "pitch": 52, "velocity": 62 },
{ "time": 20.2552, "duration": 0.25, "pitch": 37, "velocity": 60 },
{ "time": 20.5052, "duration": 0.25, "pitch": 54, "velocity": 62 },
{ "time": 20.5052, "duration": 0.25, "pitch": 57, "velocity": 62 },
{ "time": 20.7552, "duration": 0.248958, "pitch": 54, "velocity": 60 },
{ "time": 20.7552, "duration": 0.248958, "pitch": 57, "velocity": 60 },
{ "time": 21.0042, "duration": 0.25, "pitch": 56, "velocity": 67 },
{ "time": 21.0042, "duration": 0.25, "pitch": 59, "velocity": 67 },
{ "time": 21.0042, "duration": 0.503125, "pitch": 35, "velocity": 67 },
{ "time": 21.2542, "duration": 0.253125, "pitch": 54, "velocity": 60 },
{ "time": 21.2542, "duration": 0.253125, "pitch": 63, "velocity": 60 },
{ "time": 21.5073, "duration": 0.25, "pitch": 63, "velocity": 62 },
{ "time": 21.5073, "duration": 0.25, "pitch": 54, "velocity": 62 },
{ "time": 21.7573, "duration": 0.247917, "pitch": 47, "velocity": 60 },
{ "time": 22.0052, "duration": 0.25, "pitch": 63, "velocity": 62 },
{ "time": 22.0052, "duration": 0.25, "pitch": 59, "velocity": 62 },
{ "time": 22.2552, "duration": 0.251042, "pitch": 63, "velocity": 60 },
{ "time": 22.2552, "duration": 0.251042, "pitch": 59, "velocity": 60 },
{ "time": 22.5063, "duration": 0.25, "pitch": 45, "velocity": 67 },
{ "time": 22.7563, "duration": 0.25, "pitch": 54, "velocity": 60 },
{ "time": 22.7563, "duration": 0.25, "pitch": 59, "velocity": 60 },
{ "time": 23.0063, "duration": 0.25, "pitch": 51, "velocity": 63 },
{ "time": 23.0063, "duration": 0.25, "pitch": 54, "velocity": 63 },
{ "time": 23.2563, "duration": 0.248958, "pitch": 45, "velocity": 63 },
{ "time": 23.5052, "duration": 0.25, "pitch": 54, "velocity": 65 },
{ "time": 23.5052, "duration": 0.25, "pitch": 51, "velocity": 65 },
{ "time": 23.7552, "duration": 0.25, "pitch": 59, "velocity": 65 },
{ "time": 23.7552, "duration": 0.25, "pitch": 54, "velocity": 65 },
{ "time": 24.0052, "duration": 0.25, "pitch": 44, "velocity": 73 },
{ "time": 24.2552, "duration": 0.251042, "pitch": 54, "velocity": 67 },
{ "time": 24.2552, "duration": 0.251042, "pitch": 59, "velocity": 67 },
{ "time": 24.5063, "duration": 0.25, "pitch": 56, "velocity": 69 },
{ "time": 24.5063, "duration": 0.25, "pitch": 61, "velocity": 69 },
{ "time": 24.7563, "duration": 0.248958, "pitch": 56, "velocity": 69 },
{ "time": 25.0052, "duration": 0.25, "pitch": 56, "velocity": 72 },
{ "time": 25.0052, "duration": 0.25, "pitch": 64, "velocity": 72 },
{ "time": 25.0052, "duration": 0.25, "pitch": 57, "velocity": 72 },
{ "time": 25.2552, "duration": 0.251042, "pitch": 57, "velocity": 70 },
{ "time": 25.2552, "duration": 0.251042, "pitch": 54, "velocity": 70 },
{ "time": 25.2552, "duration": 0.251042, "pitch": 63, "velocity": 70 },
{ "time": 25.5063, "duration": 0.25, "pitch": 52, "velocity": 67 },
{ "time": 25.7563, "duration": 0.25, "pitch": 66, "velocity": 56 },
{ "time": 25.7563, "duration": 0.25, "pitch": 60, "velocity": 56 },
{ "time": 26.0063, "duration": 0.25, "pitch": 66, "velocity": 55 },
{ "time": 26.0063, "duration": 0.25, "pitch": 60, "velocity": 55 },
{ "time": 26.2563, "duration": 0.248958, "pitch": 51, "velocity": 50 },
{ "time": 26.5052, "duration": 0.25, "pitch": 66, "velocity": 47 },
{ "time": 26.5052, "duration": 0.25, "pitch": 60, "velocity": 47 },
{ "time": 26.7552, "duration": 0.25, "pitch": 60, "velocity": 43 },
{ "time": 26.7552, "duration": 0.25, "pitch": 66, "velocity": 43 },
{ "time": 27.0052, "duration": 0.25, "pitch": 49, "velocity": 44 },
{ "time": 27.2552, "duration": 0.25, "pitch": 66, "velocity": 40 },
{ "time": 27.2552, "duration": 0.25, "pitch": 56, "velocity": 40 },
{ "time": 27.5052, "duration": 0.25, "pitch": 63, "velocity": 41 },
{ "time": 27.5052, "duration": 0.25, "pitch": 56, "velocity": 41 },
{ "time": 27.7552, "duration": 0.25, "pitch": 49, "velocity": 40 },
{ "time": 28.0052, "duration": 0.25, "pitch": 64, "velocity": 41 },
{ "time": 28.0052, "duration": 0.25, "pitch": 56, "velocity": 41 },
{ "time": 28.2552, "duration": 0.25, "pitch": 64, "velocity": 40 },
{ "time": 28.2552, "duration": 0.25, "pitch": 56, "velocity": 40 },
{ "time": 28.5052, "duration": 0.25, "pitch": 49, "velocity": 44 },
{ "time": 28.7552, "duration": 0.25, "pitch": 63, "velocity": 40 },
{ "time": 28.7552, "duration": 0.25, "pitch": 59, "velocity": 40 },
{ "time": 29.0052, "duration": 0.25, "pitch": 63, "velocity": 41 },
{ "time": 29.0052, "duration": 0.25, "pitch": 57, "velocity": 41 },
{ "time": 29.2552, "duration": 0.251042, "pitch": 49, "velocity": 40 },
{ "time": 29.5063, "duration": 0.25, "pitch": 63, "velocity": 41 },
{ "time": 29.5063, "duration": 0.25, "pitch": 59, "velocity": 41 },
{ "time": 29.7563, "duration": 0.248958, "pitch": 63, "velocity": 40 },
{ "time": 29.7563, "duration": 0.248958, "pitch": 57, "velocity": 40 },
{ "time": 30.0052, "duration": 0.25, "pitch": 49, "velocity": 44 },
{ "time": 30.2552, "duration": 0.25, "pitch": 59, "velocity": 40 },
{ "time": 30.2552, "duration": 0.25, "pitch": 66, "velocity": 40 },
{ "time": 30.5052, "duration": 0.25, "pitch": 66, "velocity": 41 },
{ "time": 30.5052, "duration": 0.25, "pitch": 57, "velocity": 41 },
{ "time": 30.7552, "duration": 0.25, "pitch": 49, "velocity": 40 },
{ "time": 31.0052, "duration": 0.25, "pitch": 66, "velocity": 41 },
{ "time": 31.0052, "duration": 0.25, "pitch": 58, "velocity": 41 },
{ "time": 31.2552, "duration": 0.251042, "pitch": 66, "velocity": 40 },
{ "time": 31.2552, "duration": 0.251042, "pitch": 60, "velocity": 40 },
{ "time": 31.5063, "duration": 0.25, "pitch": 49, "velocity": 44 },
{ "time": 31.7563, "duration": 0.25, "pitch": 56, "velocity": 40 },
{ "time": 31.7563, "duration": 0.25, "pitch": 63, "velocity": 40 },
{ "time": 32.0063, "duration": 0.25, "pitch": 61, "velocity": 41 },
{ "time": 32.0063, "duration": 0.25, "pitch": 56, "velocity": 41 },
{ "time": 32.2563, "duration": 0.248958, "pitch": 47, "velocity": 40 },
{ "time": 32.5052, "duration": 0.25, "pitch": 56, "velocity": 43 },
{ "time": 32.5052, "duration": 0.25, "pitch": 61, "velocity": 43 },
{ "time": 32.7552, "duration": 0.251042, "pitch": 45, "velocity": 48 },
{ "time": 33.0063, "duration": 0.25, "pitch": 44, "velocity": 60 },
{ "time": 33.2563, "duration": 0.25, "pitch": 59, "velocity": 60 },
{ "time": 33.2563, "duration": 0.25, "pitch": 52, "velocity": 60 },
{ "time": 33.5063, "duration": 0.25, "pitch": 52, "velocity": 68 },
{ "time": 33.7563, "duration": 0.248958, "pitch": 42, "velocity": 72 },
{ "time": 34.0052, "duration": 0.25, "pitch": 59, "velocity": 81 },
{ "time": 34.0052, "duration": 0.25, "pitch": 52, "velocity": 81 },
{ "time": 34.2552, "duration": 0.25, "pitch": 52, "velocity": 84 },
{ "time": 34.2552, "duration": 0.25, "pitch": 59, "velocity": 84 },
{ "time": 34.5052, "duration": 0.25, "pitch": 40, "velocity": 100 },
{ "time": 34.7552, "duration": 0.251042, "pitch": 52, "velocity": 90 },
{ "time": 34.7552, "duration": 0.251042, "pitch": 59, "velocity": 90 },
{ "time": 35.0063, "duration": 0.25, "pitch": 59, "velocity": 93 },
{ "time": 35.0063, "duration": 0.25, "pitch": 52, "velocity": 93 },
{ "time": 35.2563, "duration": 0.248958, "pitch": 42, "velocity": 90 },
{ "time": 35.5052, "duration": 0.25, "pitch": 52, "velocity": 93 },
{ "time": 35.5052, "duration": 0.25, "pitch": 57, "velocity": 93 },
{ "time": 35.7552, "duration": 0.251042, "pitch": 52, "velocity": 90 },
{ "time": 35.7552, "duration": 0.251042, "pitch": 57, "velocity": 90 },
{ "time": 36.0063, "duration": 0.25, "pitch": 44, "velocity": 100 },
{ "time": 36.2563, "duration": 0.248958, "pitch": 52, "velocity": 90 },
{ "time": 36.2563, "duration": 0.248958, "pitch": 57, "velocity": 90 },
{ "time": 36.5052, "duration": 0.25, "pitch": 57, "velocity": 93 },
{ "time": 36.5052, "duration": 0.25, "pitch": 52, "velocity": 93 },
{ "time": 36.7552, "duration": 0.25, "pitch": 42, "velocity": 90 },
{ "time": 37.0052, "duration": 0.25, "pitch": 57, "velocity": 93 },
{ "time": 37.0052, "duration": 0.25, "pitch": 52, "velocity": 93 },
{ "time": 37.2552, "duration": 0.25, "pitch": 44, "velocity": 90 },
{ "time": 37.5052, "duration": 0.25, "pitch": 45, "velocity": 100 },
{ "time": 37.7552, "duration": 0.251042, "pitch": 57, "velocity": 90 },
{ "time": 37.7552, "duration": 0.251042, "pitch": 52, "velocity": 90 },
{ "time": 38.0063, "duration": 0.25, "pitch": 57, "velocity": 93 },
{ "time": 38.0063, "duration": 0.25, "pitch": 52, "velocity": 93 },
{ "time": 38.2563, "duration": 0.248958, "pitch": 45, "velocity": 90 },
{ "time": 38.5052, "duration": 0.25, "pitch": 57, "velocity": 93 },
{ "time": 38.5052, "duration": 0.25, "pitch": 53, "velocity": 93 },
{ "time": 38.7552, "duration": 0.251042, "pitch": 53, "velocity": 90 },
{ "time": 38.7552, "duration": 0.251042, "pitch": 57, "velocity": 90 },
{ "time": 39.0063, "duration": 0.25, "pitch": 45, "velocity": 100 },
{ "time": 39.2563, "duration": 0.25, "pitch": 61, "velocity": 90 },
{ "time": 39.2563, "duration": 0.25, "pitch": 53, "velocity": 90 },
{ "time": 39.5063, "duration": 0.25, "pitch": 53, "velocity": 93 },
{ "time": 39.7563, "duration": 0.25, "pitch": 46, "velocity": 90 },
{ "time": 40.0063, "duration": 0.25, "pitch": 54, "velocity": 93 },
{ "time": 40.0063, "duration": 0.25, "pitch": 61, "velocity": 93 },
{ "time": 40.2563, "duration": 0.25, "pitch": 61, "velocity": 90 },
{ "time": 40.2563, "duration": 0.25, "pitch": 54, "velocity": 90 },
{ "time": 40.5063, "duration": 0.25, "pitch": 47, "velocity": 100 },
{ "time": 40.7563, "duration": 0.25, "pitch": 54, "velocity": 90 },
{ "time": 40.7563, "duration": 0.25, "pitch": 59, "velocity": 90 },
{ "time": 41.0063, "duration": 0.25, "pitch": 63, "velocity": 93 },
{ "time": 41.0063, "duration": 0.25, "pitch": 57, "velocity": 93 },
{ "time": 41.2563, "duration": 0.248958, "pitch": 48, "velocity": 90 },
{ "time": 41.5052, "duration": 0.25, "pitch": 64, "velocity": 93 },
{ "time": 41.5052, "duration": 0.25, "pitch": 56, "velocity": 93 },
{ "time": 41.7552, "duration": 0.251042, "pitch": 64, "velocity": 90 },
{ "time": 41.7552, "duration": 0.251042, "pitch": 56, "velocity": 90 },
{ "time": 42.0063, "duration": 0.25, "pitch": 49, "velocity": 100 },
{ "time": 42.2563, "duration": 0.25, "pitch": 64, "velocity": 92 },
{ "time": 42.2563, "duration": 0.25, "pitch": 56, "velocity": 92 },
{ "time": 42.5063, "duration": 0.25, "pitch": 64, "velocity": 97 },
{ "time": 42.5063, "duration": 0.25, "pitch": 56, "velocity": 97 },
{ "time": 42.7563, "duration": 0.248958, "pitch": 47, "velocity": 97 },
{ "time": 43.0052, "duration": 0.25, "pitch": 64, "velocity": 102 },
{ "time": 43.0052, "duration": 0.25, "pitch": 56, "velocity": 102 },
{ "time": 43.2552, "duration": 0.25, "pitch": 56, "velocity": 102 },
{ "time": 43.2552, "duration": 0.25, "pitch": 64, "velocity": 102 },
{ "time": 43.5052, "duration": 0.25, "pitch": 46, "velocity": 117 },
{ "time": 43.7552, "duration": 0.25, "pitch": 64, "velocity": 105 },
{ "time": 43.7552, "duration": 0.25, "pitch": 56, "velocity": 105 },
{ "time": 44.0052, "duration": 0.25, "pitch": 64, "velocity": 109 },
{ "time": 44.0052, "duration": 0.25, "pitch": 54, "velocity": 109 },
{ "time": 44.2552, "duration": 0.25, "pitch": 45, "velocity": 105 },
{ "time": 44.5052, "duration": 0.25, "pitch": 64, "velocity": 109 },
{ "time": 44.5052, "duration": 0.25, "pitch": 56, "velocity": 109 },
{ "time": 44.7552, "duration": 0.25, "pitch": 64, "velocity": 105 },
{ "time": 44.7552, "duration": 0.25, "pitch": 54, "velocity": 105 },
{ "time": 45.0052, "duration": 0.25, "pitch": 44, "velocity": 117 },
{ "time": 45.2552, "duration": 0.25, "pitch": 62, "velocity": 97 },
{ "time": 45.2552, "duration": 0.25, "pitch": 52, "velocity": 97 },
{ "time": 45.5052, "duration": 0.25, "pitch": 62, "velocity": 93 },
{ "time": 45.5052, "duration": 0.25, "pitch": 52, "velocity": 93 },
{ "time": 45.7552, "duration": 0.25, "pitch": 42, "velocity": 82 },
{ "time": 46.0052, "duration": 0.25, "pitch": 62, "velocity": 78 },
{ "time": 46.0052, "duration": 0.25, "pitch": 52, "velocity": 78 },
{ "time": 46.2552, "duration": 0.25, "pitch": 44, "velocity": 67 },
{ "time": 46.5052, "duration": 0.25, "pitch": 45, "velocity": 67 },
{ "time": 46.7552, "duration": 0.251042, "pitch": 64, "velocity": 60 },
{ "time": 46.7552, "duration": 0.251042, "pitch": 56, "velocity": 60 },
{ "time": 46.7552, "duration": 0.251042, "pitch": 61, "velocity": 60 },
{ "time": 47.0063, "duration": 0.25, "pitch": 54, "velocity": 62 },
{ "time": 47.0063, "duration": 0.25, "pitch": 63, "velocity": 62 },
{ "time": 47.0063, "duration": 0.25, "pitch": 59, "velocity": 62 },
{ "time": 47.2563, "duration": 0.247917, "pitch": 45, "velocity": 60 },
{ "time": 47.5042, "duration": 0.25, "pitch": 52, "velocity": 62 },
{ "time": 47.5042, "duration": 0.25, "pitch": 61, "velocity": 62 },
{ "time": 47.5042, "duration": 0.25, "pitch": 57, "velocity": 62 },
{ "time": 47.7542, "duration": 0.252083, "pitch": 51, "velocity": 60 },
{ "time": 47.7542, "duration": 0.252083, "pitch": 59, "velocity": 60 },
{ "time": 47.7542, "duration": 0.252083, "pitch": 56, "velocity": 60 },
{ "time": 48.0063, "duration": 0.25, "pitch": 42, "velocity": 67 },
{ "time": 48.2563, "duration": 0.247917, "pitch": 49, "velocity": 60 },
{ "time": 48.2563, "duration": 0.247917, "pitch": 57, "velocity": 60 },
{ "time": 48.5042, "duration": 0.25, "pitch": 59, "velocity": 62 },
{ "time": 48.5042, "duration": 0.25, "pitch": 51, "velocity": 62 },
{ "time": 48.7542, "duration": 0.251042, "pitch": 42, "velocity": 60 },
{ "time": 49.0052, "duration": 0.25, "pitch": 61, "velocity": 62 },
{ "time": 49.0052, "duration": 0.25, "pitch": 52, "velocity": 62 },
{ "time": 49.2552, "duration": 0.25, "pitch": 63, "velocity": 60 },
{ "time": 49.2552, "duration": 0.25, "pitch": 54, "velocity": 60 },
{ "time": 49.5052, "duration": 0.25, "pitch": 35, "velocity": 67 },
{ "time": 49.7552, "duration": 0.25, "pitch": 57, "velocity": 60 },
{ "time": 49.7552, "duration": 0.25, "pitch": 64, "velocity": 60 },
{ "time": 50.0052, "duration": 0.25, "pitch": 57, "velocity": 62 },
{ "time": 50.0052, "duration": 0.25, "pitch": 64, "velocity": 62 },
{ "time": 50.2552, "duration": 0.251042, "pitch": 47, "velocity": 60 },
{ "time": 50.5063, "duration": 0.25, "pitch": 63, "velocity": 62 },
{ "time": 50.5063, "duration": 0.25, "pitch": 57, "velocity": 62 },
{ "time": 50.7563, "duration": 0.25, "pitch": 63, "velocity": 60 },
{ "time": 50.7563, "duration": 0.25, "pitch": 57, "velocity": 60 },
{ "time": 51.0063, "duration": 0.25, "pitch": 47, "velocity": 67 },
{ "time": 51.2563, "duration": 0.247917, "pitch": 57, "velocity": 60 },
{ "time": 51.2563, "duration": 0.247917, "pitch": 62, "velocity": 60 },
{ "time": 51.5042, "duration": 0.25, "pitch": 57, "velocity": 62 },
{ "time": 51.5042, "duration": 0.25, "pitch": 62, "velocity": 62 },
{ "time": 51.7542, "duration": 0.25, "pitch": 40, "velocity": 60 },
{ "time": 52.0042, "duration": 0.25, "pitch": 56, "velocity": 62 },
{ "time": 52.0042, "duration": 0.25, "pitch": 62, "velocity": 62 },
{ "time": 52.2542, "duration": 0.251042, "pitch": 56, "velocity": 60 },
{ "time": 52.2542, "duration": 0.251042, "pitch": 62, "velocity": 60 },
{ "time": 52.5052, "duration": 0.25, "pitch": 45, "velocity": 67 },
{ "time": 52.7552, "duration": 0.251042, "pitch": 56, "velocity": 60 },
{ "time": 52.7552, "duration": 0.251042, "pitch": 61, "velocity": 60 },
{ "time": 53.0063, "duration": 0.25, "pitch": 61, "velocity": 62 },
{ "time": 53.0063, "duration": 0.25, "pitch": 54, "velocity": 62 },
{ "time": 53.2563, "duration": 0.248958, "pitch": 45, "velocity": 60 },
{ "time": 53.5052, "duration": 0.25, "pitch": 61, "velocity": 62 },
{ "time": 53.5052, "duration": 0.25, "pitch": 52, "velocity": 62 },
{ "time": 53.7552, "duration": 0.25, "pitch": 61, "velocity": 60 },
{ "time": 53.7552, "duration": 0.25, "pitch": 52, "velocity": 60 },
{ "time": 54.0052, "duration": 0.25, "pitch": 47, "velocity": 67 },
{ "time": 54.2552, "duration": 0.25, "pitch": 56, "velocity": 60 },
{ "time": 54.2552, "duration": 0.25, "pitch": 61, "velocity": 60 },
{ "time": 54.5052, "duration": 0.25, "pitch": 56, "velocity": 62 },
{ "time": 54.5052, "duration": 0.25, "pitch": 61, "velocity": 62 },
{ "time": 54.7552, "duration": 0.25, "pitch": 49, "velocity": 60 },
{ "time": 55.0052, "duration": 0.25, "pitch": 59, "velocity": 62 },
{ "time": 55.0052, "duration": 0.25, "pitch": 64, "velocity": 62 },
{ "time": 55.2552, "duration": 0.25, "pitch": 64, "velocity": 60 },
{ "time": 55.2552, "duration": 0.25, "pitch": 59, "velocity": 60 },
{ "time": 55.5052, "duration": 0.25, "pitch": 51, "velocity": 67 },
{ "time": 55.7552, "duration": 0.25, "pitch": 59, "velocity": 60 },
{ "time": 55.7552, "duration": 0.25, "pitch": 68, "velocity": 60 },
{ "time": 56.0052, "duration": 0.25, "pitch": 68, "velocity": 62 },
{ "time": 56.0052, "duration": 0.25, "pitch": 59, "velocity": 62 },
{ "time": 56.2552, "duration": 0.25, "pitch": 51, "velocity": 60 },
{ "time": 56.5052, "duration": 0.25, "pitch": 59, "velocity": 62 },
{ "time": 56.5052, "duration": 0.25, "pitch": 68, "velocity": 62 },
{ "time": 56.7552, "duration": 0.25, "pitch": 59, "velocity": 60 },
{ "time": 56.7552, "duration": 0.25, "pitch": 68, "velocity": 60 },
{ "time": 57.0052, "duration": 0.25, "pitch": 52, "velocity": 67 },
{ "time": 57.2552, "duration": 0.25, "pitch": 63, "velocity": 60 },
{ "time": 57.2552, "duration": 0.25, "pitch": 68, "velocity": 60 },
{ "time": 57.5052, "duration": 0.25, "pitch": 68, "velocity": 62 },
{ "time": 57.5052, "duration": 0.25, "pitch": 61, "velocity": 62 },
{ "time": 57.7552, "duration": 0.25, "pitch": 52, "velocity": 60 },
{ "time": 58.0052, "duration": 0.25, "pitch": 59, "velocity": 62 },
{ "time": 58.0052, "duration": 0.25, "pitch": 68, "velocity": 62 },
{ "time": 58.2552, "duration": 0.25, "pitch": 59, "velocity": 60 },
{ "time": 58.2552, "duration": 0.25, "pitch": 68, "velocity": 60 },
{ "time": 58.5052, "duration": 0.25, "pitch": 49, "velocity": 67 },
{ "time": 58.7552, "duration": 0.25, "pitch": 59, "velocity": 60 },
{ "time": 58.7552, "duration": 0.25, "pitch": 64, "velocity": 60 },
{ "time": 59.0052, "duration": 0.25, "pitch": 59, "velocity": 62 },
{ "time": 59.0052, "duration": 0.25, "pitch": 64, "velocity": 62 },
{ "time": 59.2552, "duration": 0.25, "pitch": 49, "velocity": 60 },
{ "time": 59.5052, "duration": 0.25, "pitch": 58, "velocity": 62 },
{ "time": 59.5052, "duration": 0.25, "pitch": 64, "velocity": 62 },
{ "time": 59.7552, "duration": 0.25, "pitch": 58, "velocity": 60 },
{ "time": 59.7552, "duration": 0.25, "pitch": 64, "velocity": 60 },
{ "time": 60.0052, "duration": 0.25, "pitch": 44, "velocity": 67 },
{ "time": 60.2552, "duration": 0.251042, "pitch": 63, "velocity": 61 },
{ "time": 60.2552, "duration": 0.251042, "pitch": 68, "velocity": 61 },
{ "time": 60.2552, "duration": 0.251042, "pitch": 59, "velocity": 61 },
{ "time": 60.5063, "duration": 0.25, "pitch": 68, "velocity": 65 },
{ "time": 60.5063, "duration": 0.25, "pitch": 59, "velocity": 65 },
{ "time": 60.5063, "duration": 0.25, "pitch": 63, "velocity": 65 },
{ "time": 60.7563, "duration": 0.248958, "pitch": 42, "velocity": 66 },
{ "time": 61.0052, "duration": 0.25, "pitch": 63, "velocity": 69 },
{ "time": 61.0052, "duration": 0.25, "pitch": 68, "velocity": 69 },
{ "time": 61.0052, "duration": 0.25, "pitch": 59, "velocity": 69 },
{ "time": 61.2552, "duration": 0.25, "pitch": 68, "velocity": 70 },
{ "time": 61.2552, "duration": 0.25, "pitch": 59, "velocity": 70 },
{ "time": 61.2552, "duration": 0.25, "pitch": 63, "velocity": 70 },
{ "time": 61.5052, "duration": 0.25, "pitch": 41, "velocity": 78 },
{ "time": 61.7552, "duration": 0.25, "pitch": 63, "velocity": 70 },
{ "time": 61.7552, "duration": 0.25, "pitch": 59, "velocity": 70 },
{ "time": 61.7552, "duration": 0.25, "pitch": 68, "velocity": 70 },
{ "time": 62.0052, "duration": 0.25, "pitch": 63, "velocity": 72 },
{ "time": 62.0052, "duration": 0.25, "pitch": 68, "velocity": 72 },
{ "time": 62.0052, "duration": 0.25, "pitch": 59, "velocity": 72 },
{ "time": 62.2552, "duration": 0.25, "pitch": 41, "velocity": 70 },
{ "time": 62.5052, "duration": 0.25, "pitch": 59, "velocity": 72 },
{ "time": 62.5052, "duration": 0.25, "pitch": 63, "velocity": 72 },
{ "time": 62.5052, "duration": 0.25, "pitch": 68, "velocity": 72 },
{ "time": 62.7552, "duration": 0.25, "pitch": 63, "velocity": 70 },
{ "time": 62.7552, "duration": 0.25, "pitch": 68, "velocity": 70 },
{ "time": 62.7552, "duration": 0.25, "pitch": 59, "velocity": 70 },
{ "time": 63.0052, "duration": 0.25, "pitch": 42, "velocity": 67 },
{ "time": 63.2552, "duration": 0.25, "pitch": 70, "velocity": 57 },
{ "time": 63.2552, "duration": 0.25, "pitch": 58, "velocity": 57 },
{ "time": 63.2552, "duration": 0.25, "pitch": 63, "velocity": 57 },
{ "time": 63.5052, "duration": 0.25, "pitch": 70, "velocity": 56 },
{ "time": 63.5052, "duration": 0.25, "pitch": 58, "velocity": 56 },
{ "time": 63.5052, "duration": 0.25, "pitch": 63, "velocity": 56 },
{ "time": 63.7552, "duration": 0.25, "pitch": 44, "velocity": 51 },
{ "time": 64.0052, "duration": 0.25, "pitch": 63, "velocity": 53 },
{ "time": 64.0052, "duration": 0.25, "pitch": 68, "velocity": 53 },
{ "time": 64.0052, "duration": 0.25, "pitch": 71, "velocity": 53 },
{ "time": 64.2552, "duration": 0.25, "pitch": 68, "velocity": 51 },
{ "time": 64.2552, "duration": 0.25, "pitch": 71, "velocity": 51 },
{ "time": 64.2552, "duration": 0.25, "pitch": 63, "velocity": 51 },
{ "time": 64.5052, "duration": 0.25, "pitch": 46, "velocity": 57 },
{ "time": 64.7552, "duration": 0.25, "pitch": 70, "velocity": 51 },
{ "time": 64.7552, "duration": 0.25, "pitch": 65, "velocity": 51 },
{ "time": 64.7552, "duration": 0.25, "pitch": 58, "velocity": 51 },
{ "time": 65.0052, "duration": 0.25, "pitch": 70, "velocity": 53 },
{ "time": 65.0052, "duration": 0.25, "pitch": 65, "velocity": 53 },
{ "time": 65.0052, "duration": 0.25, "pitch": 58, "velocity": 53 },
{ "time": 65.2552, "duration": 0.25, "pitch": 46, "velocity": 51 },
{ "time": 65.5052, "duration": 0.25, "pitch": 65, "velocity": 53 },
{ "time": 65.5052, "duration": 0.25, "pitch": 70, "velocity": 53 },
{ "time": 65.5052, "duration": 0.25, "pitch": 58, "velocity": 53 },
{ "time": 65.7552, "duration": 0.25, "pitch": 65, "velocity": 51 },
{ "time": 65.7552, "duration": 0.25, "pitch": 70, "velocity": 51 },
{ "time": 65.7552, "duration": 0.25, "pitch": 58, "velocity": 51 },
{ "time": 66.0052, "duration": 0.25, "pitch": 51, "velocity": 57 },
{ "time": 66.2552, "duration": 0.251042, "pitch": 58, "velocity": 51 },
{ "time": 66.2552, "duration": 0.251042, "pitch": 67, "velocity": 51 },
{ "time": 66.5062, "duration": 0.25, "pitch": 67, "velocity": 53 },
{ "time": 66.5062, "duration": 0.25, "pitch": 58, "velocity": 53 },
{ "time": 66.7562, "duration": 0.25, "pitch": 51, "velocity": 51 },
{ "time": 67.0062, "duration": 0.25, "pitch": 51, "velocity": 53 },
{ "time": 67.2562, "duration": 0.25, "pitch": 67, "velocity": 51 },
{ "time": 67.2562, "duration": 0.25, "pitch": 58, "velocity": 51 },
{ "time": 67.5062, "duration": 0.25, "pitch": 48, "velocity": 57 },
{ "time": 67.7562, "duration": 0.248958, "pitch": 66, "velocity": 51 },
{ "time": 67.7562, "duration": 0.248958, "pitch": 56, "velocity": 51 },
{ "time": 68.0052, "duration": 0.25, "pitch": 66, "velocity": 53 },
{ "time": 68.0052, "duration": 0.25, "pitch": 56, "velocity": 53 },
{ "time": 68.2552, "duration": 0.251042, "pitch": 46, "velocity": 51 },
{ "time": 68.5062, "duration": 0.25, "pitch": 48, "velocity": 53 },
{ "time": 68.7562, "duration": 0.25, "pitch": 66, "velocity": 51 },
{ "time": 68.7562, "duration": 0.25, "pitch": 56, "velocity": 51 },
{ "time": 69.0062, "duration": 0.25, "pitch": 48, "velocity": 57 },
{ "time": 69.2562, "duration": 0.248958, "pitch": 66, "velocity": 51 },
{ "time": 69.2562, "duration": 0.248958, "pitch": 56, "velocity": 51 },
{ "time": 69.5052, "duration": 0.25, "pitch": 63, "velocity": 53 },
{ "time": 69.5052, "duration": 0.25, "pitch": 56, "velocity": 53 },
{ "time": 69.7552, "duration": 0.25, "pitch": 46, "velocity": 51 },
{ "time": 70.0052, "duration": 0.25, "pitch": 48, "velocity": 53 },
{ "time": 70.2552, "duration": 0.25, "pitch": 56, "velocity": 51 },
{ "time": 70.2552, "duration": 0.25, "pitch": 63, "velocity": 51 },
{ "time": 70.5052, "duration": 0.25, "pitch": 49, "velocity": 57 },
{ "time": 70.7552, "duration": 0.251042, "pitch": 64, "velocity": 51 },
{ "time": 70.7552, "duration": 0.251042, "pitch": 56, "velocity": 51 },
{ "time": 71.0062, "duration": 0.25, "pitch": 56, "velocity": 53 },
{ "time": 71.0062, "duration": 0.25, "pitch": 64, "velocity": 53 },
{ "time": 71.2562, "duration": 0.248958, "pitch": 48, "velocity": 51 },
{ "time": 71.5052, "duration": 0.25, "pitch": 56, "velocity": 53 },
{ "time": 71.5052, "duration": 0.25, "pitch": 64, "velocity": 53 },
{ "time": 71.7552, "duration": 0.25, "pitch": 64, "velocity": 51 },
{ "time": 71.7552, "duration": 0.25, "pitch": 56, "velocity": 51 },
{ "time": 72.0052, "duration": 0.25, "pitch": 49, "velocity": 57 },
{ "time": 72.2552, "duration": 0.25, "pitch": 56, "velocity": 51 },
{ "time": 72.2552, "duration": 0.25, "pitch": 64, "velocity": 51 },
{ "time": 72.5052, "duration": 0.25, "pitch": 56, "velocity": 53 },
{ "time": 72.5052, "duration": 0.25, "pitch": 64, "velocity": 53 },
{ "time": 72.7552, "duration": 0.251042, "pitch": 49, "velocity": 51 },
{ "time": 73.0062, "duration": 0.25, "pitch": 47, "velocity": 53 },
{ "time": 73.2562, "duration": 0.25, "pitch": 64, "velocity": 51 },
{ "time": 73.2562, "duration": 0.25, "pitch": 55, "velocity": 51 },
{ "time": 73.5062, "duration": 0.25, "pitch": 46, "velocity": 57 },
{ "time": 73.7562, "duration": 0.248958, "pitch": 64, "velocity": 51 },
{ "time": 73.7562, "duration": 0.248958, "pitch": 54, "velocity": 51 },
{ "time": 74.0052, "duration": 0.25, "pitch": 64, "velocity": 53 },
{ "time": 74.0052, "duration": 0.25, "pitch": 54, "velocity": 53 },
{ "time": 74.2552, "duration": 0.251042, "pitch": 44, "velocity": 51 },
{ "time": 74.5062, "duration": 0.25, "pitch": 46, "velocity": 53 },
{ "time": 74.7562, "duration": 0.25, "pitch": 54, "velocity": 51 },
{ "time": 74.7562, "duration": 0.25, "pitch": 64, "velocity": 51 },
{ "time": 75.0062, "duration": 0.25, "pitch": 46, "velocity": 57 },
{ "time": 75.2562, "duration": 0.248958, "pitch": 64, "velocity": 51 },
{ "time": 75.2562, "duration": 0.248958, "pitch": 54, "velocity": 51 },
{ "time": 75.5052, "duration": 0.25, "pitch": 61, "velocity": 53 },
{ "time": 75.5052, "duration": 0.25, "pitch": 54, "velocity": 53 },
{ "time": 75.7552, "duration": 0.251042, "pitch": 44, "velocity": 51 },
{ "time": 76.0062, "duration": 0.25, "pitch": 46, "velocity": 53 },
{ "time": 76.2562, "duration": 0.25, "pitch": 61, "velocity": 51 },
{ "time": 76.2562, "duration": 0.25, "pitch": 54, "velocity": 51 },
{ "time": 76.5062, "duration": 0.25, "pitch": 47, "velocity": 57 },
{ "time": 76.7562, "duration": 0.25, "pitch": 62, "velocity": 51 },
{ "time": 76.7562, "duration": 0.25, "pitch": 54, "velocity": 51 },
{ "time": 77.0062, "duration": 0.25, "pitch": 62, "velocity": 53 },
{ "time": 77.0062, "duration": 0.25, "pitch": 54, "velocity": 53 },
{ "time": 77.2562, "duration": 0.248958, "pitch": 46, "velocity": 51 },
{ "time": 77.5052, "duration": 0.25, "pitch": 62, "velocity": 53 },
{ "time": 77.5052, "duration": 0.25, "pitch": 54, "velocity": 53 },
{ "time": 77.7552, "duration": 0.251042, "pitch": 62, "velocity": 51 },
{ "time": 77.7552, "duration": 0.251042, "pitch": 54, "velocity": 51 },
{ "time": 78.0062, "duration": 0.25, "pitch": 47, "velocity": 57 },
{ "time": 78.2562, "duration": 0.25, "pitch": 62, "velocity": 51 },
{ "time": 78.2562, "duration": 0.25, "pitch": 54, "velocity": 51 },
{ "time": 78.5062, "duration": 0.25, "pitch": 62, "velocity": 62 },
{ "time": 78.5062, "duration": 0.25, "pitch": 54, "velocity": 62 },
{ "time": 78.7562, "duration": 0.25, "pitch": 47, "velocity": 67 },
{ "time": 79.0062, "duration": 0.25, "pitch": 62, "velocity": 78 },
{ "time": 79.0062, "duration": 0.25, "pitch": 54, "velocity": 78 },
{ "time": 79.2562, "duration": 0.25, "pitch": 62, "velocity": 67 },
{ "time": 79.2562, "duration": 0.25, "pitch": 54, "velocity": 67 },
{ "time": 79.5062, "duration": 0.25, "pitch": 42, "velocity": 85 },
{ "time": 79.7562, "duration": 0.25, "pitch": 50, "velocity": 75 },
{ "time": 79.7562, "duration": 0.25, "pitch": 60, "velocity": 75 },
{ "time": 80.0062, "duration": 0.25, "pitch": 50, "velocity": 77 },
{ "time": 80.0062, "duration": 0.25, "pitch": 60, "velocity": 77 },
{ "time": 80.2562, "duration": 0.25, "pitch": 40, "velocity": 75 },
{ "time": 80.5062, "duration": 0.25, "pitch": 50, "velocity": 77 },
{ "time": 80.5062, "duration": 0.25, "pitch": 60, "velocity": 77 },
{ "time": 80.7562, "duration": 0.248958, "pitch": 42, "velocity": 75 },
{ "time": 81.0052, "duration": 0.25, "pitch": 43, "velocity": 85 },
{ "time": 81.2552, "duration": 0.251042, "pitch": 59, "velocity": 75 },
{ "time": 81.2552, "duration": 0.251042, "pitch": 54, "velocity": 75 },
{ "time": 81.5062, "duration": 0.25, "pitch": 59, "velocity": 77 },
{ "time": 81.5062, "duration": 0.25, "pitch": 52, "velocity": 77 },
{ "time": 81.7562, "duration": 0.25, "pitch": 43, "velocity": 75 },
{ "time": 82.0062, "duration": 0.25, "pitch": 59, "velocity": 77 },
{ "time": 82.0062, "duration": 0.25, "pitch": 50, "velocity": 77 },
{ "time": 82.2562, "duration": 0.248958, "pitch": 59, "velocity": 75 },
{ "time": 82.2562, "duration": 0.248958, "pitch": 50, "velocity": 75 },
{ "time": 82.5052, "duration": 0.25, "pitch": 40, "velocity": 89 },
{ "time": 82.7552, "duration": 0.251042, "pitch": 55, "velocity": 79 },
{ "time": 82.7552, "duration": 0.251042, "pitch": 59, "velocity": 79 },
{ "time": 83.0062, "duration": 0.25, "pitch": 54, "velocity": 81 },
{ "time": 83.0062, "duration": 0.25, "pitch": 55, "velocity": 81 },
{ "time": 83.2562, "duration": 0.248958, "pitch": 45, "velocity": 79 },
{ "time": 83.5052, "duration": 0.25, "pitch": 52, "velocity": 81 },
{ "time": 83.5052, "duration": 0.25, "pitch": 55, "velocity": 81 },
{ "time": 83.7552, "duration": 0.251042, "pitch": 52, "velocity": 79 },
{ "time": 83.7552, "duration": 0.251042, "pitch": 55, "velocity": 79 },
{ "time": 84.0062, "duration": 0.25, "pitch": 38, "velocity": 89 },
{ "time": 84.2562, "duration": 0.248958, "pitch": 45, "velocity": 79 },
{ "time": 84.2562, "duration": 0.248958, "pitch": 52, "velocity": 79 },
{ "time": 84.5052, "duration": 0.25, "pitch": 54, "velocity": 81 },
{ "time": 84.5052, "duration": 0.25, "pitch": 45, "velocity": 81 },
{ "time": 84.7552, "duration": 0.25, "pitch": 38, "velocity": 79 },
{ "time": 85.0052, "duration": 0.25, "pitch": 45, "velocity": 81 },
{ "time": 85.0052, "duration": 0.25, "pitch": 54, "velocity": 81 },
{ "time": 85.2552, "duration": 0.25, "pitch": 54, "velocity": 65 },
{ "time": 85.2552, "duration": 0.25, "pitch": 45, "velocity": 77 },
{ "time": 85.5052, "duration": 0.25, "pitch": 38, "velocity": 85 },
{ "time": 85.7552, "duration": 0.251042, "pitch": 48, "velocity": 77 },
{ "time": 85.7552, "duration": 0.251042, "pitch": 56, "velocity": 77 },
{ "time": 86.0062, "duration": 0.25, "pitch": 48, "velocity": 79 },
{ "time": 86.0062, "duration": 0.25, "pitch": 56, "velocity": 79 },
{ "time": 86.2562, "duration": 0.251042, "pitch": 38, "velocity": 77 },
{ "time": 86.5073, "duration": 0.25, "pitch": 48, "velocity": 79 },
{ "time": 86.5073, "duration": 0.25, "pitch": 56, "velocity": 79 },
{ "time": 86.7573, "duration": 0.248958, "pitch": 48, "velocity": 77 },
{ "time": 86.7573, "duration": 0.248958, "pitch": 56, "velocity": 77 },
{ "time": 87.0062, "duration": 0.25, "pitch": 38, "velocity": 87 },
{ "time": 87.2562, "duration": 0.25, "pitch": 48, "velocity": 77 },
{ "time": 87.2562, "duration": 0.25, "pitch": 56, "velocity": 77 },
{ "time": 87.5062, "duration": 0.25, "pitch": 48, "velocity": 79 },
{ "time": 87.5062, "duration": 0.25, "pitch": 56, "velocity": 79 },
{ "time": 87.7562, "duration": 0.25, "pitch": 34, "velocity": 77 },
{ "time": 88.0062, "duration": 0.25, "pitch": 58, "velocity": 79 },
{ "time": 88.0062, "duration": 0.25, "pitch": 53, "velocity": 79 },
{ "time": 88.2562, "duration": 0.25, "pitch": 59, "velocity": 77 },
{ "time": 88.2562, "duration": 0.25, "pitch": 53, "velocity": 77 },
{ "time": 88.5062, "duration": 0.25, "pitch": 39, "velocity": 87 },
{ "time": 88.7562, "duration": 0.25, "pitch": 49, "velocity": 90 },
{ "time": 88.7562, "duration": 0.25, "pitch": 57, "velocity": 90 },
{ "time": 89.0062, "duration": 0.25, "pitch": 57, "velocity": 93 },
{ "time": 89.0062, "duration": 0.25, "pitch": 49, "velocity": 93 },
{ "time": 89.2562, "duration": 0.25, "pitch": 39, "velocity": 90 },
{ "time": 89.5062, "duration": 0.25, "pitch": 49, "velocity": 93 },
{ "time": 89.5062, "duration": 0.25, "pitch": 57, "velocity": 93 },
{ "time": 89.7562, "duration": 0.25, "pitch": 57, "velocity": 90 },
{ "time": 89.7562, "duration": 0.25, "pitch": 49, "velocity": 90 },
{ "time": 90.0062, "duration": 0.25, "pitch": 39, "velocity": 100 },
{ "time": 90.2562, "duration": 0.25, "pitch": 49, "velocity": 90 },
{ "time": 90.2562, "duration": 0.25, "pitch": 57, "velocity": 90 },
{ "time": 90.5062, "duration": 0.25, "pitch": 57, "velocity": 93 },
{ "time": 90.5062, "duration": 0.25, "pitch": 49, "velocity": 93 },
{ "time": 90.7562, "duration": 0.25, "pitch": 35, "velocity": 90 },
{ "time": 91.0062, "duration": 0.25, "pitch": 59, "velocity": 93 },
{ "time": 91.0062, "duration": 0.25, "pitch": 51, "velocity": 93 },
{ "time": 91.2562, "duration": 0.248958, "pitch": 60, "velocity": 90 },
{ "time": 91.2562, "duration": 0.248958, "pitch": 51, "velocity": 90 },
{ "time": 91.5052, "duration": 0.25, "pitch": 40, "velocity": 100 },
{ "time": 91.7552, "duration": 0.251042, "pitch": 67, "velocity": 90 },
{ "time": 91.7552, "duration": 0.251042, "pitch": 59, "velocity": 90 },
{ "time": 92.0062, "duration": 0.25, "pitch": 67, "velocity": 93 },
{ "time": 92.0062, "duration": 0.25, "pitch": 59, "velocity": 93 },
{ "time": 92.2562, "duration": 0.5, "pitch": 35, "velocity": 90 },
{ "time": 92.2562, "duration": 0.5, "pitch": 47, "velocity": 90 },
{ "time": 92.7562, "duration": 0.25, "pitch": 45, "velocity": 90 },
{ "time": 92.7562, "duration": 0.25, "pitch": 33, "velocity": 90 },
{ "time": 93.0062, "duration": 0.75, "pitch": 35, "velocity": 100 },
{ "time": 93.0062, "duration": 0.75, "pitch": 47, "velocity": 100 },
{ "time": 93.7562, "duration": 0.75, "pitch": 48, "velocity": 90 },
{ "time": 93.7562, "duration": 0.75, "pitch": 36, "velocity": 90 },
{ "time": 94.5062, "duration": 0.75, "pitch": 45, "velocity": 100 },
{ "time": 94.5062, "duration": 0.75, "pitch": 33, "velocity": 100 },
{ "time": 95.2562, "duration": 0.747917, "pitch": 38, "velocity": 90 },
{ "time": 95.2562, "duration": 0.747917, "pitch": 50, "velocity": 90 },
{ "time": 96.0042, "duration": 0.751042, "pitch": 31, "velocity": 100 },
{ "time": 96.0042, "duration": 0.751042, "pitch": 43, "velocity": 100 },
{ "time": 96.7552, "duration": 0.751042, "pitch": 43, "velocity": 73 },
{ "time": 96.7552, "duration": 0.751042, "pitch": 31, "velocity": 73 },
{ "time": 97.5062, "duration": 0.25, "pitch": 43, "velocity": 63 },
{ "time": 97.7562, "duration": 0.25, "pitch": 53, "velocity": 57 },
{ "time": 97.7562, "duration": 0.25, "pitch": 59, "velocity": 57 },
{ "time": 98.0062, "duration": 0.25, "pitch": 53, "velocity": 59 },
{ "time": 98.0062, "duration": 0.25, "pitch": 59, "velocity": 59 },
{ "time": 98.2562, "duration": 0.251042, "pitch": 43, "velocity": 57 },
{ "time": 98.5073, "duration": 0.25, "pitch": 53, "velocity": 59 },
{ "time": 98.5073, "duration": 0.25, "pitch": 59, "velocity": 59 },
{ "time": 98.7573, "duration": 0.248958, "pitch": 53, "velocity": 57 },
{ "time": 98.7573, "duration": 0.248958, "pitch": 59, "velocity": 57 },
{ "time": 99.0062, "duration": 0.25, "pitch": 43, "velocity": 63 },
{ "time": 99.2562, "duration": 0.25, "pitch": 58, "velocity": 57 },
{ "time": 99.2562, "duration": 0.25, "pitch": 60, "velocity": 57 },
{ "time": 99.5062, "duration": 0.25, "pitch": 58, "velocity": 81 },
{ "time": 99.5062, "duration": 0.25, "pitch": 60, "velocity": 81 },
{ "time": 99.7562, "duration": 0.25, "pitch": 43, "velocity": 77 },
{ "time": 100.006, "duration": 0.25, "pitch": 58, "velocity": 81 },
{ "time": 100.006, "duration": 0.25, "pitch": 60, "velocity": 81 },
{ "time": 100.256, "duration": 0.25, "pitch": 58, "velocity": 77 },
{ "time": 100.256, "duration": 0.25, "pitch": 60, "velocity": 77 },
{ "time": 100.506, "duration": 0.25, "pitch": 43, "velocity": 89 },
{ "time": 100.756, "duration": 0.25, "pitch": 63, "velocity": 77 },
{ "time": 100.756, "duration": 0.25, "pitch": 53, "velocity": 77 },
{ "time": 101.006, "duration": 0.25, "pitch": 53, "velocity": 81 },
{ "time": 101.006, "duration": 0.25, "pitch": 63, "velocity": 81 },
{ "time": 101.256, "duration": 0.251042, "pitch": 43, "velocity": 77 },
{ "time": 101.507, "duration": 0.25, "pitch": 53, "velocity": 81 },
{ "time": 101.507, "duration": 0.25, "pitch": 63, "velocity": 81 },
{ "time": 101.757, "duration": 0.248958, "pitch": 53, "velocity": 57 },
{ "time": 101.757, "duration": 0.248958, "pitch": 63, "velocity": 75 },
{ "time": 102.006, "duration": 0.25, "pitch": 43, "velocity": 93 },
{ "time": 102.256, "duration": 0.25, "pitch": 63, "velocity": 81 },
{ "time": 102.256, "duration": 0.25, "pitch": 53, "velocity": 81 },
{ "time": 102.506, "duration": 0.25, "pitch": 64, "velocity": 85 },
{ "time": 102.506, "duration": 0.25, "pitch": 59, "velocity": 85 },
{ "time": 102.506, "duration": 0.25, "pitch": 55, "velocity": 85 },
{ "time": 102.756, "duration": 0.251042, "pitch": 43, "velocity": 81 },
{ "time": 103.007, "duration": 0.25, "pitch": 64, "velocity": 85 },
{ "time": 103.007, "duration": 0.25, "pitch": 55, "velocity": 85 },
{ "time": 103.007, "duration": 0.25, "pitch": 59, "velocity": 85 },
{ "time": 103.257, "duration": 0.248958, "pitch": 64, "velocity": 81 },
{ "time": 103.257, "duration": 0.248958, "pitch": 59, "velocity": 81 },
{ "time": 103.257, "duration": 0.248958, "pitch": 55, "velocity": 81 },
{ "time": 103.506, "duration": 0.25, "pitch": 43, "velocity": 93 },
{ "time": 103.756, "duration": 0.25, "pitch": 55, "velocity": 81 },
{ "time": 103.756, "duration": 0.25, "pitch": 64, "velocity": 81 },
{ "time": 103.756, "duration": 0.25, "pitch": 59, "velocity": 81 },
{ "time": 104.006, "duration": 0.25, "pitch": 55, "velocity": 85 },
{ "time": 104.006, "duration": 0.25, "pitch": 64, "velocity": 85 },
{ "time": 104.006, "duration": 0.25, "pitch": 59, "velocity": 85 },
{ "time": 104.256, "duration": 0.25, "pitch": 43, "velocity": 81 },
{ "time": 104.506, "duration": 0.25, "pitch": 64, "velocity": 85 },
{ "time": 104.506, "duration": 0.25, "pitch": 55, "velocity": 85 },
{ "time": 104.506, "duration": 0.25, "pitch": 59, "velocity": 85 },
{ "time": 104.756, "duration": 0.25, "pitch": 59, "velocity": 100 },
{ "time": 104.756, "duration": 0.25, "pitch": 64, "velocity": 100 },
{ "time": 104.756, "duration": 0.25, "pitch": 55, "velocity": 100 },
{ "time": 105.006, "duration": 0.25, "pitch": 43, "velocity": 112 },
{ "time": 105.256, "duration": 0.25, "pitch": 64, "velocity": 100 },
{ "time": 105.256, "duration": 0.25, "pitch": 55, "velocity": 100 },
{ "time": 105.256, "duration": 0.25, "pitch": 59, "velocity": 100 },
{ "time": 105.506, "duration": 0.25, "pitch": 64, "velocity": 104 },
{ "time": 105.506, "duration": 0.25, "pitch": 55, "velocity": 104 },
{ "time": 105.506, "duration": 0.25, "pitch": 59, "velocity": 104 },
{ "time": 105.756, "duration": 0.25, "pitch": 43, "velocity": 100 },
{ "time": 106.006, "duration": 0.25, "pitch": 59, "velocity": 104 },
{ "time": 106.006, "duration": 0.25, "pitch": 56, "velocity": 104 },
{ "time": 106.006, "duration": 0.25, "pitch": 63, "velocity": 104 },
{ "time": 106.006, "duration": 0.25, "pitch": 68, "velocity": 104 },
{ "time": 106.256, "duration": 0.251042, "pitch": 56, "velocity": 100 },
{ "time": 106.256, "duration": 0.251042, "pitch": 59, "velocity": 100 },
{ "time": 106.256, "duration": 0.251042, "pitch": 63, "velocity": 100 },
{ "time": 106.256, "duration": 0.251042, "pitch": 68, "velocity": 100 },
{ "time": 106.507, "duration": 0.25, "pitch": 31, "velocity": 112 },
{ "time": 106.507, "duration": 0.25, "pitch": 43, "velocity": 112 },
{ "time": 106.757, "duration": 0.25, "pitch": 56, "velocity": 96 },
{ "time": 106.757, "duration": 0.25, "pitch": 68, "velocity": 96 },
{ "time": 106.757, "duration": 0.25, "pitch": 59, "velocity": 96 },
{ "time": 106.757, "duration": 0.25, "pitch": 63, "velocity": 96 },
{ "time": 107.007, "duration": 0.25, "pitch": 59, "velocity": 96 },
{ "time": 107.007, "duration": 0.25, "pitch": 68, "velocity": 96 },
{ "time": 107.007, "duration": 0.25, "pitch": 63, "velocity": 96 },
{ "time": 107.007, "duration": 0.25, "pitch": 56, "velocity": 96 },
{ "time": 107.257, "duration": 0.25, "pitch": 44, "velocity": 90 },
{ "time": 107.257, "duration": 0.25, "pitch": 32, "velocity": 90 },
{ "time": 107.507, "duration": 0.25, "pitch": 68, "velocity": 89 },
{ "time": 107.507, "duration": 0.25, "pitch": 59, "velocity": 89 },
{ "time": 107.507, "duration": 0.25, "pitch": 63, "velocity": 89 },
{ "time": 107.507, "duration": 0.25, "pitch": 56, "velocity": 89 },
{ "time": 107.757, "duration": 0.248958, "pitch": 59, "velocity": 83 },
{ "time": 107.757, "duration": 0.248958, "pitch": 63, "velocity": 83 },
{ "time": 107.757, "duration": 0.248958, "pitch": 68, "velocity": 83 },
{ "time": 107.757, "duration": 0.248958, "pitch": 56, "velocity": 83 },
{ "time": 108.006, "duration": 0.25, "pitch": 41, "velocity": 95 },
{ "time": 108.006, "duration": 0.25, "pitch": 29, "velocity": 93 },
{ "time": 108.256, "duration": 0.25, "pitch": 68, "velocity": 93 },
{ "time": 108.256, "duration": 0.25, "pitch": 59, "velocity": 93 },
{ "time": 108.256, "duration": 0.25, "pitch": 56, "velocity": 93 },
{ "time": 108.256, "duration": 0.25, "pitch": 63, "velocity": 93 },
{ "time": 108.506, "duration": 0.25, "pitch": 59, "velocity": 89 },
{ "time": 108.506, "duration": 0.25, "pitch": 68, "velocity": 89 },
{ "time": 108.506, "duration": 0.25, "pitch": 63, "velocity": 89 },
{ "time": 108.506, "duration": 0.25, "pitch": 56, "velocity": 89 },
{ "time": 108.756, "duration": 0.248958, "pitch": 29, "velocity": 80 },
{ "time": 108.756, "duration": 0.248958, "pitch": 41, "velocity": 80 },
{ "time": 109.005, "duration": 0.25, "pitch": 68, "velocity": 75 },
{ "time": 109.005, "duration": 0.25, "pitch": 56, "velocity": 75 },
{ "time": 109.005, "duration": 0.25, "pitch": 59, "velocity": 75 },
{ "time": 109.005, "duration": 0.25, "pitch": 63, "velocity": 75 },
{ "time": 109.255, "duration": 0.25, "pitch": 68, "velocity": 66 },
{ "time": 109.255, "duration": 0.25, "pitch": 59, "velocity": 66 },
{ "time": 109.255, "duration": 0.25, "pitch": 56, "velocity": 66 },
{ "time": 109.255, "duration": 0.25, "pitch": 63, "velocity": 66 },
{ "time": 109.505, "duration": 0.25, "pitch": 40, "velocity": 67 },
{ "time": 109.755, "duration": 0.251042, "pitch": 64, "velocity": 60 },
{ "time": 109.755, "duration": 0.251042, "pitch": 56, "velocity": 60 },
{ "time": 110.006, "duration": 0.25, "pitch": 64, "velocity": 62 },
{ "time": 110.006, "duration": 0.25, "pitch": 56, "velocity": 62 },
{ "time": 110.256, "duration": 0.25, "pitch": 40, "velocity": 60 },
{ "time": 110.506, "duration": 0.25, "pitch": 56, "velocity": 62 },
{ "time": 110.506, "duration": 0.25, "pitch": 64, "velocity": 62 },
{ "time": 110.756, "duration": 0.248958, "pitch": 64, "velocity": 60 },
{ "time": 110.756, "duration": 0.248958, "pitch": 56, "velocity": 60 },
{ "time": 111.005, "duration": 0.25, "pitch": 40, "velocity": 67 },
{ "time": 111.255, "duration": 0.25, "pitch": 56, "velocity": 60 },
{ "time": 111.255, "duration": 0.25, "pitch": 64, "velocity": 60 },
{ "time": 111.505, "duration": 0.25, "pitch": 63, "velocity": 62 },
{ "time": 111.505, "duration": 0.25, "pitch": 56, "velocity": 62 },
{ "time": 111.755, "duration": 0.251042, "pitch": 40, "velocity": 60 },
{ "time": 112.006, "duration": 0.25, "pitch": 56, "velocity": 62 },
{ "time": 112.006, "duration": 0.25, "pitch": 61, "velocity": 62 },
{ "time": 112.256, "duration": 0.248958, "pitch": 56, "velocity": 60 },
{ "time": 112.256, "duration": 0.248958, "pitch": 61, "velocity": 60 },
{ "time": 112.505, "duration": 0.25, "pitch": 44, "velocity": 67 },
{ "time": 112.755, "duration": 0.25, "pitch": 63, "velocity": 60 },
{ "time": 112.755, "duration": 0.25, "pitch": 59, "velocity": 60 },
{ "time": 113.005, "duration": 0.25, "pitch": 59, "velocity": 62 },
{ "time": 113.005, "duration": 0.25, "pitch": 63, "velocity": 62 },
{ "time": 113.255, "duration": 0.25, "pitch": 44, "velocity": 60 },
{ "time": 113.505, "duration": 0.25, "pitch": 63, "velocity": 62 },
{ "time": 113.505, "duration": 0.25, "pitch": 59, "velocity": 62 },
{ "time": 113.755, "duration": 0.25, "pitch": 59, "velocity": 60 },
{ "time": 113.755, "duration": 0.25, "pitch": 63, "velocity": 60 },
{ "time": 114.005, "duration": 0.25, "pitch": 44, "velocity": 67 },
{ "time": 114.255, "duration": 0.251042, "pitch": 63, "velocity": 60 },
{ "time": 114.255, "duration": 0.251042, "pitch": 59, "velocity": 60 },
{ "time": 114.506, "duration": 0.25, "pitch": 59, "velocity": 62 },
{ "time": 114.506, "duration": 0.25, "pitch": 63, "velocity": 62 },
{ "time": 114.756, "duration": 0.248958, "pitch": 56, "velocity": 60 },
{ "time": 115.005, "duration": 0.25, "pitch": 59, "velocity": 62 },
{ "time": 115.005, "duration": 0.25, "pitch": 63, "velocity": 62 },
{ "time": 115.255, "duration": 0.251042, "pitch": 59, "velocity": 60 },
{ "time": 115.255, "duration": 0.251042, "pitch": 63, "velocity": 60 },
{ "time": 115.506, "duration": 0.25, "pitch": 56, "velocity": 67 },
{ "time": 115.756, "duration": 0.25, "pitch": 64, "velocity": 60 },
{ "time": 115.756, "duration": 0.25, "pitch": 57, "velocity": 60 },
{ "time": 116.006, "duration": 0.25, "pitch": 64, "velocity": 62 },
{ "time": 116.006, "duration": 0.25, "pitch": 57, "velocity": 62 },
{ "time": 116.256, "duration": 0.25, "pitch": 56, "velocity": 60 },
{ "time": 116.506, "duration": 0.25, "pitch": 64, "velocity": 62 },
{ "time": 116.506, "duration": 0.25, "pitch": 57, "velocity": 62 },
{ "time": 116.756, "duration": 0.25, "pitch": 64, "velocity": 60 },
{ "time": 116.756, "duration": 0.25, "pitch": 57, "velocity": 60 },
{ "time": 117.006, "duration": 0.25, "pitch": 54, "velocity": 67 },
{ "time": 117.256, "duration": 0.25, "pitch": 64, "velocity": 60 },
{ "time": 117.256, "duration": 0.25, "pitch": 57, "velocity": 60 },
{ "time": 117.506, "duration": 0.25, "pitch": 64, "velocity": 62 },
{ "time": 117.506, "duration": 0.25, "pitch": 57, "velocity": 62 },
{ "time": 117.756, "duration": 0.248958, "pitch": 54, "velocity": 60 },
{ "time": 118.005, "duration": 0.25, "pitch": 64, "velocity": 62 },
{ "time": 118.005, "duration": 0.25, "pitch": 57, "velocity": 62 },
{ "time": 118.255, "duration": 0.25, "pitch": 63, "velocity": 60 },
{ "time": 118.255, "duration": 0.25, "pitch": 57, "velocity": 60 },
{ "time": 118.505, "duration": 0.25, "pitch": 52, "velocity": 67 },
{ "time": 118.755, "duration": 0.251042, "pitch": 63, "velocity": 60 },
{ "time": 118.755, "duration": 0.251042, "pitch": 57, "velocity": 60 },
{ "time": 119.006, "duration": 0.25, "pitch": 63, "velocity": 62 },
{ "time": 119.006, "duration": 0.25, "pitch": 57, "velocity": 62 },
{ "time": 119.256, "duration": 0.248958, "pitch": 52, "velocity": 60 },
{ "time": 119.505, "duration": 0.25, "pitch": 61, "velocity": 62 },
{ "time": 119.505, "duration": 0.25, "pitch": 57, "velocity": 62 },
{ "time": 119.755, "duration": 0.251042, "pitch": 61, "velocity": 60 },
{ "time": 119.755, "duration": 0.251042, "pitch": 57, "velocity": 60 },
{ "time": 120.006, "duration": 0.25, "pitch": 51, "velocity": 67 },
{ "time": 120.256, "duration": 0.25, "pitch": 61, "velocity": 60 },
{ "time": 120.256, "duration": 0.25, "pitch": 57, "velocity": 60 },
{ "time": 120.506, "duration": 0.25, "pitch": 61, "velocity": 63 },
{ "time": 120.506, "duration": 0.25, "pitch": 56, "velocity": 63 },
{ "time": 120.756, "duration": 0.248958, "pitch": 51, "velocity": 62 },
{ "time": 121.005, "duration": 0.25, "pitch": 61, "velocity": 65 },
{ "time": 121.005, "duration": 0.25, "pitch": 56, "velocity": 65 },
{ "time": 121.255, "duration": 0.251042, "pitch": 56, "velocity": 64 },
{ "time": 121.255, "duration": 0.251042, "pitch": 59, "velocity": 64 },
{ "time": 121.506, "duration": 0.25, "pitch": 49, "velocity": 72 },
{ "time": 121.756, "duration": 0.248958, "pitch": 56, "velocity": 66 },
{ "time": 121.756, "duration": 0.248958, "pitch": 59, "velocity": 66 },
{ "time": 122.005, "duration": 0.25, "pitch": 59, "velocity": 68 },
{ "time": 122.005, "duration": 0.25, "pitch": 54, "velocity": 68 },
{ "time": 122.255, "duration": 0.251042, "pitch": 49, "velocity": 67 },
{ "time": 122.506, "duration": 0.25, "pitch": 56, "velocity": 70 },
{ "time": 122.506, "duration": 0.25, "pitch": 52, "velocity": 70 },
{ "time": 122.756, "duration": 0.248958, "pitch": 56, "velocity": 69 },
{ "time": 122.756, "duration": 0.248958, "pitch": 52, "velocity": 69 },
{ "time": 123.005, "duration": 0.25, "pitch": 47, "velocity": 78 },
{ "time": 123.255, "duration": 0.25, "pitch": 56, "velocity": 71 },
{ "time": 123.255, "duration": 0.25, "pitch": 52, "velocity": 71 },
{ "time": 123.505, "duration": 0.25, "pitch": 52, "velocity": 73 },
{ "time": 123.505, "duration": 0.25, "pitch": 57, "velocity": 73 },
{ "time": 123.755, "duration": 0.251042, "pitch": 45, "velocity": 71 },
{ "time": 124.006, "duration": 0.25, "pitch": 59, "velocity": 62 },
{ "time": 124.006, "duration": 0.25, "pitch": 52, "velocity": 62 },
{ "time": 124.256, "duration": 0.25, "pitch": 59, "velocity": 54 },
{ "time": 124.256, "duration": 0.25, "pitch": 52, "velocity": 54 },
{ "time": 124.506, "duration": 0.25, "pitch": 44, "velocity": 67 },
{ "time": 124.756, "duration": 0.248958, "pitch": 49, "velocity": 60 },
{ "time": 124.756, "duration": 0.248958, "pitch": 57, "velocity": 60 },
{ "time": 125.005, "duration": 0.25, "pitch": 59, "velocity": 62 },
{ "time": 125.005, "duration": 0.25, "pitch": 51, "velocity": 62 },
{ "time": 125.255, "duration": 0.25, "pitch": 42, "velocity": 60 },
{ "time": 125.505, "duration": 0.25, "pitch": 61, "velocity": 62 },
{ "time": 125.505, "duration": 0.25, "pitch": 52, "velocity": 62 },
{ "time": 125.755, "duration": 0.25, "pitch": 61, "velocity": 60 },
{ "time": 125.755, "duration": 0.25, "pitch": 52, "velocity": 60 },
{ "time": 126.005, "duration": 0.25, "pitch": 40, "velocity": 67 },
{ "time": 126.255, "duration": 0.251042, "pitch": 63, "velocity": 60 },
{ "time": 126.255, "duration": 0.251042, "pitch": 57, "velocity": 60 },
{ "time": 126.506, "duration": 0.25, "pitch": 61, "velocity": 62 },
{ "time": 126.506, "duration": 0.25, "pitch": 57, "velocity": 62 },
{ "time": 126.756, "duration": 0.25, "pitch": 40, "velocity": 60 },
{ "time": 127.006, "duration": 0.25, "pitch": 59, "velocity": 62 },
{ "time": 127.006, "duration": 0.25, "pitch": 57, "velocity": 62 },
{ "time": 127.256, "duration": 0.25, "pitch": 57, "velocity": 60 },
{ "time": 127.256, "duration": 0.25, "pitch": 59, "velocity": 60 },
{ "time": 127.506, "duration": 0.25, "pitch": 39, "velocity": 67 },
{ "time": 127.756, "duration": 0.248958, "pitch": 61, "velocity": 60 },
{ "time": 127.756, "duration": 0.248958, "pitch": 52, "velocity": 60 },
{ "time": 128.005, "duration": 0.25, "pitch": 59, "velocity": 62 },
{ "time": 128.005, "duration": 0.25, "pitch": 52, "velocity": 62 },
{ "time": 128.255, "duration": 0.25, "pitch": 39, "velocity": 60 },
{ "time": 128.505, "duration": 0.25, "pitch": 37, "velocity": 62 },
{ "time": 128.755, "duration": 0.25, "pitch": 54, "velocity": 60 },
{ "time": 128.755, "duration": 0.25, "pitch": 57, "velocity": 60 },
{ "time": 129.005, "duration": 0.25, "pitch": 35, "velocity": 67 },
{ "time": 129.255, "duration": 0.25, "pitch": 63, "velocity": 60 },
{ "time": 129.255, "duration": 0.25, "pitch": 54, "velocity": 60 },
{ "time": 129.505, "duration": 0.25, "pitch": 63, "velocity": 62 },
{ "time": 129.505, "duration": 0.25, "pitch": 54, "velocity": 62 },
{ "time": 129.755, "duration": 0.25, "pitch": 47, "velocity": 60 },
{ "time": 130.005, "duration": 0.25, "pitch": 54, "velocity": 62 },
{ "time": 130.005, "duration": 0.25, "pitch": 63, "velocity": 62 },
{ "time": 130.255, "duration": 0.25, "pitch": 63, "velocity": 60 },
{ "time": 130.255, "duration": 0.25, "pitch": 54, "velocity": 60 },
{ "time": 130.505, "duration": 0.25, "pitch": 45, "velocity": 77 },
{ "time": 130.755, "duration": 0.25, "pitch": 59, "velocity": 65 },
{ "time": 130.755, "duration": 0.25, "pitch": 54, "velocity": 65 },
{ "time": 131.005, "duration": 0.25, "pitch": 54, "velocity": 77 },
{ "time": 131.005, "duration": 0.25, "pitch": 51, "velocity": 77 },
{ "time": 131.255, "duration": 0.25, "pitch": 45, "velocity": 73 },
{ "time": 131.505, "duration": 0.25, "pitch": 51, "velocity": 77 },
{ "time": 131.505, "duration": 0.25, "pitch": 54, "velocity": 77 },
{ "time": 131.755, "duration": 0.251042, "pitch": 54, "velocity": 73 },
{ "time": 132.006, "duration": 0.25, "pitch": 44, "velocity": 85 },
{ "time": 132.256, "duration": 0.248958, "pitch": 54, "velocity": 73 },
{ "time": 132.505, "duration": 0.25, "pitch": 56, "velocity": 87 },
{ "time": 132.505, "duration": 0.25, "pitch": 61, "velocity": 87 },
{ "time": 132.755, "duration": 0.248958, "pitch": 56, "velocity": 83 },
{ "time": 133.004, "duration": 0.25, "pitch": 57, "velocity": 87 },
{ "time": 133.004, "duration": 0.25, "pitch": 64, "velocity": 87 },
{ "time": 133.004, "duration": 0.25, "pitch": 56, "velocity": 87 },
{ "time": 133.254, "duration": 0.251042, "pitch": 63, "velocity": 83 },
{ "time": 133.254, "duration": 0.251042, "pitch": 57, "velocity": 83 },
{ "time": 133.254, "duration": 0.251042, "pitch": 54, "velocity": 83 },
{ "time": 133.505, "duration": 0.25, "pitch": 52, "velocity": 95 },
{ "time": 133.755, "duration": 0.25, "pitch": 66, "velocity": 83 },
{ "time": 133.755, "duration": 0.25, "pitch": 60, "velocity": 83 },
{ "time": 134.005, "duration": 0.25, "pitch": 66, "velocity": 79 },
{ "time": 134.005, "duration": 0.25, "pitch": 60, "velocity": 79 },
{ "time": 134.255, "duration": 0.25, "pitch": 52, "velocity": 87 },
{ "time": 134.505, "duration": 0.25, "pitch": 51, "velocity": 101 },
{ "time": 134.755, "duration": 0.25, "pitch": 66, "velocity": 99 },
{ "time": 134.755, "duration": 0.25, "pitch": 60, "velocity": 99 },
{ "time": 135.005, "duration": 0.25, "pitch": 49, "velocity": 113 },
{ "time": 135.255, "duration": 0.251042, "pitch": 56, "velocity": 101 },
{ "time": 135.255, "duration": 0.251042, "pitch": 64, "velocity": 101 },
{ "time": 135.506, "duration": 0.25, "pitch": 56, "velocity": 107 },
{ "time": 135.506, "duration": 0.25, "pitch": 64, "velocity": 107 },
{ "time": 135.756, "duration": 0.248958, "pitch": 47, "velocity": 105 },
{ "time": 136.005, "duration": 0.25, "pitch": 56, "velocity": 111 },
{ "time": 136.005, "duration": 0.25, "pitch": 64, "velocity": 111 },
{ "time": 136.255, "duration": 0.25, "pitch": 56, "velocity": 113 },
{ "time": 136.255, "duration": 0.25, "pitch": 64, "velocity": 107 },
{ "time": 136.505, "duration": 0.25, "pitch": 46, "velocity": 100 },
{ "time": 136.755, "duration": 0.25, "pitch": 64, "velocity": 90 },
{ "time": 136.755, "duration": 0.25, "pitch": 56, "velocity": 90 },
{ "time": 137.005, "duration": 0.25, "pitch": 64, "velocity": 93 },
{ "time": 137.005, "duration": 0.25, "pitch": 54, "velocity": 93 },
{ "time": 137.255, "duration": 0.25, "pitch": 45, "velocity": 90 },
{ "time": 137.505, "duration": 0.25, "pitch": 56, "velocity": 93 },
{ "time": 137.505, "duration": 0.25, "pitch": 64, "velocity": 93 },
{ "time": 137.755, "duration": 0.25, "pitch": 63, "velocity": 90 },
{ "time": 137.755, "duration": 0.25, "pitch": 54, "velocity": 90 },
{ "time": 138.005, "duration": 0.25, "pitch": 44, "velocity": 100 },
{ "time": 138.255, "duration": 0.248958, "pitch": 62, "velocity": 85 },
{ "time": 138.255, "duration": 0.248958, "pitch": 52, "velocity": 85 },
{ "time": 138.504, "duration": 0.25, "pitch": 62, "velocity": 83 },
{ "time": 138.504, "duration": 0.25, "pitch": 52, "velocity": 83 },
{ "time": 138.754, "duration": 0.251042, "pitch": 42, "velocity": 75 },
{ "time": 139.005, "duration": 0.25, "pitch": 62, "velocity": 72 },
{ "time": 139.005, "duration": 0.25, "pitch": 52, "velocity": 72 },
{ "time": 139.255, "duration": 0.25, "pitch": 44, "velocity": 64 },
{ "time": 139.505, "duration": 0.25, "pitch": 45, "velocity": 67 },
{ "time": 139.755, "duration": 0.25, "pitch": 56, "velocity": 60 },
{ "time": 139.755, "duration": 0.25, "pitch": 64, "velocity": 60 },
{ "time": 139.755, "duration": 0.25, "pitch": 61, "velocity": 60 },
{ "time": 140.005, "duration": 0.25, "pitch": 54, "velocity": 62 },
{ "time": 140.005, "duration": 0.25, "pitch": 63, "velocity": 62 },
{ "time": 140.005, "duration": 0.25, "pitch": 59, "velocity": 62 },
{ "time": 140.255, "duration": 0.25, "pitch": 45, "velocity": 60 },
{ "time": 140.505, "duration": 0.25, "pitch": 52, "velocity": 62 },
{ "time": 140.505, "duration": 0.25, "pitch": 57, "velocity": 62 },
{ "time": 140.755, "duration": 0.25, "pitch": 59, "velocity": 60 },
{ "time": 140.755, "duration": 0.25, "pitch": 56, "velocity": 60 },
{ "time": 140.755, "duration": 0.25, "pitch": 51, "velocity": 60 },
{ "time": 141.005, "duration": 0.25, "pitch": 42, "velocity": 67 },
{ "time": 141.255, "duration": 0.248958, "pitch": 57, "velocity": 60 },
{ "time": 141.504, "duration": 0.25, "pitch": 51, "velocity": 62 },
{ "time": 141.504, "duration": 0.25, "pitch": 59, "velocity": 62 },
{ "time": 141.754, "duration": 0.251042, "pitch": 42, "velocity": 60 },
{ "time": 142.005, "duration": 0.25, "pitch": 52, "velocity": 62 },
{ "time": 142.005, "duration": 0.25, "pitch": 61, "velocity": 62 },
{ "time": 142.255, "duration": 0.25, "pitch": 63, "velocity": 60 },
{ "time": 142.255, "duration": 0.25, "pitch": 54, "velocity": 60 },
{ "time": 142.505, "duration": 0.25, "pitch": 35, "velocity": 67 },
{ "time": 142.755, "duration": 0.25, "pitch": 64, "velocity": 56 },
{ "time": 142.755, "duration": 0.25, "pitch": 57, "velocity": 56 },
{ "time": 143.005, "duration": 0.25, "pitch": 64, "velocity": 55 },
{ "time": 143.005, "duration": 0.25, "pitch": 57, "velocity": 55 },
{ "time": 143.255, "duration": 0.248958, "pitch": 47, "velocity": 50 },
{ "time": 143.504, "duration": 0.25, "pitch": 63, "velocity": 47 },
{ "time": 143.504, "duration": 0.25, "pitch": 57, "velocity": 47 },
{ "time": 143.754, "duration": 0.251042, "pitch": 63, "velocity": 43 },
{ "time": 143.754, "duration": 0.251042, "pitch": 57, "velocity": 43 },
{ "time": 144.005, "duration": 0.25, "pitch": 49, "velocity": 44 },
{ "time": 144.255, "duration": 0.251042, "pitch": 56, "velocity": 40 },
{ "time": 144.255, "duration": 0.251042, "pitch": 65, "velocity": 40 },
{ "time": 144.255, "duration": 0.251042, "pitch": 61, "velocity": 40 },
{ "time": 144.506, "duration": 0.25, "pitch": 65, "velocity": 41 },
{ "time": 144.506, "duration": 0.25, "pitch": 61, "velocity": 41 },
{ "time": 144.506, "duration": 0.25, "pitch": 56, "velocity": 41 },
{ "time": 144.756, "duration": 0.248958, "pitch": 49, "velocity": 40 },
{ "time": 145.005, "duration": 0.25, "pitch": 56, "velocity": 41 },
{ "time": 145.005, "duration": 0.25, "pitch": 63, "velocity": 41 },
{ "time": 145.005, "duration": 0.25, "pitch": 59, "velocity": 41 },
{ "time": 145.255, "duration": 0.25, "pitch": 59, "velocity": 40 },
{ "time": 145.255, "duration": 0.25, "pitch": 56, "velocity": 40 },
{ "time": 145.255, "duration": 0.25, "pitch": 63, "velocity": 40 },
{ "time": 145.505, "duration": 0.25, "pitch": 49, "velocity": 44 },
{ "time": 145.755, "duration": 0.25, "pitch": 56, "velocity": 40 },
{ "time": 145.755, "duration": 0.25, "pitch": 65, "velocity": 40 },
{ "time": 145.755, "duration": 0.25, "pitch": 61, "velocity": 40 },
{ "time": 146.005, "duration": 0.25, "pitch": 65, "velocity": 41 },
{ "time": 146.005, "duration": 0.25, "pitch": 61, "velocity": 41 },
{ "time": 146.005, "duration": 0.25, "pitch": 56, "velocity": 41 },
{ "time": 146.255, "duration": 0.25, "pitch": 49, "velocity": 40 },
{ "time": 146.505, "duration": 0.25, "pitch": 56, "velocity": 41 },
{ "time": 146.505, "duration": 0.25, "pitch": 63, "velocity": 41 },
{ "time": 146.505, "duration": 0.25, "pitch": 59, "velocity": 41 },
{ "time": 146.755, "duration": 0.25, "pitch": 59, "velocity": 40 },
{ "time": 146.755, "duration": 0.25, "pitch": 63, "velocity": 40 },
{ "time": 146.755, "duration": 0.25, "pitch": 56, "velocity": 40 },
{ "time": 147.005, "duration": 0.25, "pitch": 49, "velocity": 44 },
{ "time": 147.255, "duration": 0.25, "pitch": 65, "velocity": 40 },
{ "time": 147.255, "duration": 0.25, "pitch": 56, "velocity": 40 },
{ "time": 147.255, "duration": 0.25, "pitch": 61, "velocity": 40 },
{ "time": 147.505, "duration": 0.25, "pitch": 65, "velocity": 41 },
{ "time": 147.505, "duration": 0.25, "pitch": 61, "velocity": 41 },
{ "time": 147.505, "duration": 0.25, "pitch": 56, "velocity": 41 },
{ "time": 147.755, "duration": 0.25, "pitch": 49, "velocity": 40 },
{ "time": 148.005, "duration": 0.25, "pitch": 56, "velocity": 41 },
{ "time": 148.005, "duration": 0.25, "pitch": 59, "velocity": 41 },
{ "time": 148.005, "duration": 0.25, "pitch": 63, "velocity": 41 },
{ "time": 148.255, "duration": 0.25, "pitch": 59, "velocity": 40 },
{ "time": 148.255, "duration": 0.25, "pitch": 56, "velocity": 40 },
{ "time": 148.255, "duration": 0.25, "pitch": 63, "velocity": 40 },
{ "time": 148.505, "duration": 0.25, "pitch": 42, "velocity": 44 },
{ "time": 148.755, "duration": 0.25, "pitch": 61, "velocity": 40 },
{ "time": 148.755, "duration": 0.25, "pitch": 52, "velocity": 40 },
{ "time": 148.755, "duration": 0.25, "pitch": 57, "velocity": 40 },
{ "time": 149.005, "duration": 0.25, "pitch": 57, "velocity": 41 },
{ "time": 149.005, "duration": 0.25, "pitch": 52, "velocity": 41 },
{ "time": 149.005, "duration": 0.25, "pitch": 61, "velocity": 41 },
{ "time": 149.255, "duration": 0.25, "pitch": 42, "velocity": 40 },
{ "time": 149.505, "duration": 0.25, "pitch": 52, "velocity": 41 },
{ "time": 149.505, "duration": 0.25, "pitch": 57, "velocity": 41 },
{ "time": 149.505, "duration": 0.25, "pitch": 61, "velocity": 41 },
{ "time": 149.755, "duration": 0.25, "pitch": 57, "velocity": 40 },
{ "time": 149.755, "duration": 0.25, "pitch": 52, "velocity": 40 },
{ "time": 149.755, "duration": 0.25, "pitch": 61, "velocity": 40 },
{ "time": 150.005, "duration": 0.25, "pitch": 42, "velocity": 44 },
{ "time": 150.255, "duration": 0.25, "pitch": 52, "velocity": 52 },
{ "time": 150.255, "duration": 0.25, "pitch": 61, "velocity": 52 },
{ "time": 150.255, "duration": 0.25, "pitch": 57, "velocity": 52 },
{ "time": 150.505, "duration": 0.25, "pitch": 52, "velocity": 67 },
{ "time": 150.505, "duration": 0.25, "pitch": 61, "velocity": 67 },
{ "time": 150.505, "duration": 0.25, "pitch": 57, "velocity": 67 },
{ "time": 150.755, "duration": 0.248958, "pitch": 42, "velocity": 77 },
{ "time": 151.004, "duration": 0.25, "pitch": 52, "velocity": 93 },
{ "time": 151.004, "duration": 0.25, "pitch": 61, "velocity": 93 },
{ "time": 151.004, "duration": 0.25, "pitch": 57, "velocity": 93 },
{ "time": 151.254, "duration": 0.251042, "pitch": 61, "velocity": 90 },
{ "time": 151.254, "duration": 0.251042, "pitch": 52, "velocity": 90 },
{ "time": 151.254, "duration": 0.251042, "pitch": 57, "velocity": 90 },
{ "time": 151.505, "duration": 0.25, "pitch": 44, "velocity": 100 },
{ "time": 151.755, "duration": 0.25, "pitch": 51, "velocity": 90 },
{ "time": 151.755, "duration": 0.25, "pitch": 56, "velocity": 90 },
{ "time": 152.005, "duration": 0.25, "pitch": 51, "velocity": 93 },
{ "time": 152.005, "duration": 0.25, "pitch": 56, "velocity": 93 },
{ "time": 152.255, "duration": 0.248958, "pitch": 44, "velocity": 90 },
{ "time": 152.504, "duration": 0.25, "pitch": 52, "velocity": 93 },
{ "time": 152.504, "duration": 0.25, "pitch": 57, "velocity": 93 },
{ "time": 152.754, "duration": 0.251042, "pitch": 42, "velocity": 90 },
{ "time": 153.005, "duration": 0.25, "pitch": 40, "velocity": 67 },
{ "time": 153.255, "duration": 0.25, "pitch": 56, "velocity": 60 },
{ "time": 153.255, "duration": 0.25, "pitch": 59, "velocity": 60 },
{ "time": 153.505, "duration": 0.25, "pitch": 56, "velocity": 62 },
{ "time": 153.505, "duration": 0.25, "pitch": 59, "velocity": 62 },
{ "time": 153.755, "duration": 0.25, "pitch": 40, "velocity": 60 },
{ "time": 154.005, "duration": 0.25, "pitch": 56, "velocity": 62 },
{ "time": 154.005, "duration": 0.25, "pitch": 59, "velocity": 62 },
{ "time": 154.255, "duration": 0.25, "pitch": 56, "velocity": 60 },
{ "time": 154.255, "duration": 0.25, "pitch": 59, "velocity": 60 },
{ "time": 154.505, "duration": 0.25, "pitch": 40, "velocity": 67 },
{ "time": 154.755, "duration": 0.25, "pitch": 56, "velocity": 60 },
{ "time": 154.755, "duration": 0.25, "pitch": 59, "velocity": 60 },
{ "time": 155.005, "duration": 0.25, "pitch": 54, "velocity": 62 },
{ "time": 155.005, "duration": 0.25, "pitch": 59, "velocity": 62 },
{ "time": 155.255, "duration": 0.25, "pitch": 40, "velocity": 60 },
{ "time": 155.505, "duration": 0.25, "pitch": 59, "velocity": 62 },
{ "time": 155.505, "duration": 0.25, "pitch": 52, "velocity": 62 },
{ "time": 155.755, "duration": 0.25, "pitch": 51, "velocity": 60 },
{ "time": 155.755, "duration": 0.25, "pitch": 59, "velocity": 60 },
{ "time": 156.005, "duration": 0.25, "pitch": 40, "velocity": 67 },
{ "time": 156.255, "duration": 0.25, "pitch": 51, "velocity": 60 },
{ "time": 156.255, "duration": 0.25, "pitch": 59, "velocity": 60 },
{ "time": 156.505, "duration": 0.25, "pitch": 59, "velocity": 62 },
{ "time": 156.505, "duration": 0.25, "pitch": 52, "velocity": 62 },
{ "time": 156.755, "duration": 0.25, "pitch": 40, "velocity": 60 },
{ "time": 157.005, "duration": 0.25, "pitch": 59, "velocity": 62 },
{ "time": 157.005, "duration": 0.25, "pitch": 56, "velocity": 62 },
{ "time": 157.255, "duration": 0.25, "pitch": 56, "velocity": 60 },
{ "time": 157.255, "duration": 0.25, "pitch": 59, "velocity": 60 },
{ "time": 157.505, "duration": 0.25, "pitch": 40, "velocity": 67 },
{ "time": 157.755, "duration": 0.25, "pitch": 56, "velocity": 59 },
{ "time": 157.755, "duration": 0.25, "pitch": 59, "velocity": 59 },
{ "time": 158.005, "duration": 0.25, "pitch": 56, "velocity": 60 },
{ "time": 158.005, "duration": 0.25, "pitch": 59, "velocity": 60 },
{ "time": 158.255, "duration": 0.25, "pitch": 40, "velocity": 57 },
{ "time": 158.505, "duration": 0.25, "pitch": 56, "velocity": 58 },
{ "time": 158.505, "duration": 0.25, "pitch": 59, "velocity": 58 },
{ "time": 158.755, "duration": 0.25, "pitch": 56, "velocity": 54 },
{ "time": 158.755, "duration": 0.25, "pitch": 59, "velocity": 54 },
{ "time": 159.005, "duration": 0.5, "pitch": 40, "velocity": 60 },
{ "time": 159.505, "duration": 0.5, "pitch": 56, "velocity": 54 },
{ "time": 159.505, "duration": 0.5, "pitch": 59, "velocity": 54 },
{ "time": 160.005, "duration": 0.5, "pitch": 56, "velocity": 50 },
{ "time": 160.005, "duration": 0.5, "pitch": 59, "velocity": 50 },
{ "time": 160.505, "duration": 1, "pitch": 40, "velocity": 54 }
]
